<svg width="250" height="136" viewBox="0 0 250 136" fill="none" xmlns="http://www.w3.org/2000/svg">
<path fill-rule="evenodd" clip-rule="evenodd" d="M153.273 123.464C152.793 123.464 152.299 123.534 151.819 123.658C151.34 123.783 150.895 123.978 150.522 124.244C150.131 124.511 149.83 124.848 149.599 125.257C149.369 125.665 149.242 126.143 149.242 126.693C149.242 126.977 149.296 127.262 149.367 127.547C149.438 127.813 149.581 128.079 149.759 128.327C149.936 128.576 150.185 128.808 150.505 129.003C150.807 129.199 151.198 129.358 151.677 129.482C152.441 129.677 153.08 129.857 153.595 129.981C154.11 130.106 154.571 130.245 154.962 130.387C155.193 130.476 155.388 130.619 155.583 130.814C155.778 131.01 155.867 131.314 155.867 131.74C155.867 131.936 155.831 132.149 155.742 132.344C155.654 132.539 155.511 132.715 155.333 132.875C155.138 133.017 154.907 133.161 154.605 133.249C154.303 133.338 153.949 133.392 153.522 133.392C153.132 133.392 152.778 133.358 152.44 133.267C152.103 133.179 151.801 133.056 151.552 132.861C151.286 132.683 151.091 132.435 150.949 132.133C150.81 131.839 150.737 131.492 150.734 131.082H148.815C148.833 131.756 148.959 132.343 149.207 132.84C149.438 133.338 149.777 133.745 150.185 134.065C150.612 134.384 151.088 134.616 151.639 134.776C152.189 134.936 152.793 135.008 153.415 135.008C153.948 135.008 154.499 134.935 155.014 134.811C155.547 134.686 156.01 134.492 156.419 134.208C156.827 133.941 157.162 133.586 157.411 133.143C157.66 132.698 157.786 132.182 157.786 131.561C157.786 131.26 157.749 130.974 157.661 130.69C157.572 130.388 157.429 130.124 157.251 129.875C157.074 129.626 156.845 129.394 156.578 129.199C156.312 129.003 155.99 128.844 155.635 128.738C155.493 128.703 155.265 128.632 154.927 128.544C154.59 128.455 154.252 128.365 153.897 128.276C153.56 128.188 153.238 128.101 152.954 128.03C152.669 127.959 152.51 127.925 152.475 127.905C152.084 127.799 151.784 127.619 151.535 127.406C151.304 127.175 151.178 126.874 151.178 126.483C151.178 126.199 151.251 125.967 151.375 125.789C151.5 125.594 151.659 125.456 151.854 125.349C152.049 125.242 152.261 125.171 152.492 125.117C152.723 125.063 152.955 125.043 153.186 125.043C153.861 125.043 154.411 125.186 154.837 125.488C155.281 125.771 155.512 126.269 155.566 126.979H157.484C157.484 126.411 157.378 125.914 157.147 125.47C156.916 125.027 156.612 124.673 156.221 124.371C155.848 124.069 155.404 123.836 154.889 123.694C154.392 123.534 153.841 123.464 153.273 123.464ZM84.0643 123.711L84.0469 123.718H84.0643V134.728H85.9825V130.198H88.8234C89.2675 130.198 89.6215 130.252 89.9057 130.358C90.1898 130.464 90.4223 130.644 90.5821 130.892C90.7419 131.123 90.8656 131.424 90.9186 131.797C90.9716 132.153 91.0088 132.597 91.0088 133.095C91.0088 133.36 91.0079 133.643 91.0436 133.927C91.061 134.211 91.1512 134.48 91.2934 134.711H93.3538C93.1407 134.48 92.9778 134.106 92.889 133.573C92.7998 133.04 92.7467 132.454 92.7467 131.815C92.7467 131.37 92.6937 131.017 92.5872 130.733C92.4806 130.448 92.3412 130.216 92.1813 130.039C92.0215 129.861 91.8425 129.735 91.6472 129.647C91.4517 129.558 91.2728 129.507 91.113 129.487V129.453C91.2018 129.434 91.3617 129.361 91.557 129.272C91.7524 129.166 91.9475 129.024 92.1606 128.811C92.3559 128.598 92.5349 128.316 92.6948 127.979C92.8547 127.641 92.9272 127.196 92.9272 126.681C92.9272 125.758 92.6256 125.029 92.0218 124.496C91.418 123.98 90.51 123.715 89.3023 123.715L84.0643 123.718V123.711ZM220.903 123.711L220.886 123.718H220.903V134.728H222.821V130.198H225.662C226.106 130.198 226.464 130.252 226.748 130.358C227.032 130.464 227.261 130.644 227.421 130.892C227.581 131.123 227.708 131.424 227.761 131.797C227.814 132.153 227.847 132.597 227.847 133.095C227.847 133.36 227.847 133.643 227.882 133.927C227.9 134.211 227.99 134.48 228.132 134.711H230.193C229.979 134.48 229.82 134.106 229.731 133.573C229.642 133.04 229.589 132.454 229.589 131.815C229.589 131.37 229.536 131.017 229.429 130.733C229.323 130.448 229.18 130.216 229.02 130.039C228.86 129.861 228.685 129.735 228.489 129.647C228.294 129.558 228.115 129.507 227.955 129.487V129.453C228.044 129.434 228.204 129.361 228.399 129.272C228.595 129.166 228.79 129.024 229.003 128.811C229.198 128.598 229.377 128.316 229.537 127.979C229.697 127.641 229.766 127.196 229.766 126.681C229.766 125.758 229.464 125.029 228.861 124.496C228.257 123.98 227.352 123.715 226.145 123.715L220.903 123.718V123.711ZM7.19678 123.714V134.707H9.115V129.823H14.0892V128.258H9.115V125.383H14.7829V123.714H7.19678ZM25.2586 123.714V130.745C25.2586 131.456 25.3645 132.061 25.5777 132.594C25.8086 133.109 26.1131 133.554 26.5038 133.909C26.8946 134.265 27.372 134.529 27.9226 134.707C28.4731 134.885 29.0965 134.974 29.7714 134.974C30.4463 134.974 31.0662 134.885 31.6168 134.707C32.1673 134.529 32.6482 134.264 33.039 133.909C33.4474 133.554 33.7485 133.109 33.9616 132.594C34.1748 132.079 34.2808 131.456 34.2808 130.745V123.714H32.3625V130.125C32.3625 130.498 32.3459 130.872 32.3102 131.245C32.2747 131.636 32.186 131.973 32.0084 132.275C31.8486 132.577 31.5827 132.826 31.2453 133.021C30.9078 133.216 30.41 133.323 29.7884 133.323C29.1668 133.323 28.6689 133.216 28.3315 133.021C27.9941 132.826 27.746 132.577 27.5684 132.275C27.4085 131.973 27.3022 131.618 27.2666 131.245C27.2311 130.872 27.2142 130.498 27.2142 130.125V123.714H25.296H25.2586ZM44.583 123.714V125.383H48.0656V134.707H49.9803V125.383H53.4803V123.714H44.583ZM63.675 123.714V130.745C63.675 131.456 63.781 132.061 63.9941 132.594C64.225 133.109 64.526 133.554 64.9168 133.909C65.3075 134.265 65.7884 134.529 66.339 134.707C66.8895 134.885 67.5094 134.974 68.1843 134.974C68.8592 134.974 69.4826 134.885 70.0332 134.707C70.5837 134.529 71.0612 134.264 71.4519 133.909C71.8604 133.554 72.1649 133.109 72.3781 132.594C72.5911 132.079 72.6972 131.456 72.6972 130.745V123.714H70.779V130.125C70.779 130.498 70.7623 130.872 70.7266 131.245C70.6911 131.636 70.6024 131.973 70.4248 132.275C70.265 132.577 69.9956 132.826 69.6582 133.021C69.3208 133.216 68.8264 133.323 68.2048 133.323C67.5832 133.323 67.0854 133.216 66.7479 133.021C66.4105 132.826 66.1624 132.577 65.9848 132.275C65.825 131.973 65.7151 131.618 65.6795 131.245C65.644 130.872 65.6272 130.498 65.6272 130.125V123.714H63.709H63.675ZM103.954 123.714V134.707H111.981V133.038H105.89V129.823H111.433V128.258H105.89V125.383H111.877V123.714H103.954ZM136.116 123.714V134.707H138.035V123.714H136.116ZM181.848 123.714V134.707H183.767V129.753H188.775V134.707H190.694V123.714H188.775V128.081H183.767V123.714H181.848ZM202.096 123.714V134.707H210.126V133.038H204.031V129.823H209.574V128.258H204.031V125.383H210.018V123.714H202.096ZM240.814 123.714V134.707H248.84V133.038H242.749V129.823H248.289V128.258H242.749V125.383H248.733V123.714H240.814ZM85.9652 125.293H89.0905C89.3392 125.293 89.5707 125.312 89.8016 125.346C90.0325 125.38 90.2449 125.468 90.4225 125.593C90.6001 125.717 90.7426 125.897 90.8492 126.11C90.9557 126.323 91.0087 126.608 91.0087 126.963C91.0087 127.549 90.8462 127.99 90.5266 128.274C90.2069 128.576 89.7468 128.722 89.1252 128.722H85.9652L85.9652 125.293ZM222.804 125.293H225.929C226.178 125.293 226.41 125.312 226.64 125.346C226.871 125.38 227.084 125.468 227.261 125.593C227.439 125.717 227.581 125.897 227.688 126.11C227.794 126.323 227.847 126.608 227.847 126.963C227.847 127.549 227.689 127.99 227.369 128.274C227.049 128.576 226.589 128.722 225.967 128.722H222.804V125.293Z" fill="#ED1C24"/>
<path fill-rule="evenodd" clip-rule="evenodd" d="M130.24 4.47266V66.3829H144.004V4.47266H130.24ZM183.395 4.47266C167.447 4.47266 149.579 13.4949 149.579 36.5828C149.579 50.2933 157.59 66.3829 182.525 66.3829C189.984 66.3829 195.72 64.6069 195.72 64.6069V53.153C195.72 53.153 191.281 55.0713 184.71 55.0713C172.651 55.0713 164.321 48.8721 164.321 35.4277C164.321 21.9838 173.291 15.5553 183.805 15.5553C190.98 15.5553 195.72 17.8447 195.72 17.8447V5.73525C195.72 5.73525 191.973 4.47266 183.395 4.47266ZM201.582 4.47266V16.2837H218.222V66.3829H231.986V16.2837H249V4.47266H201.582ZM193.517 75.4953C188.58 75.4953 185.598 78.2317 185.598 81.8015C185.598 84.8385 187.872 86.7716 191.353 87.9793C193.875 88.8673 194.867 89.6135 194.867 90.9277C194.867 92.2953 193.731 93.2033 191.547 93.2033C189.522 93.2033 187.567 92.5461 186.288 91.8886L185.296 95.8291C186.468 96.4863 188.83 97.1091 191.228 97.1091C196.982 97.1091 199.681 94.1251 199.681 90.6086C199.681 87.6605 197.94 85.7254 194.246 84.358C191.546 83.3456 190.357 82.7415 190.357 81.4095C190.357 80.3261 191.353 79.3838 193.413 79.3838C195.473 79.3838 196.963 79.9704 197.798 80.3792L198.863 76.5603C197.619 75.991 195.879 75.4953 193.517 75.4953ZM219.394 75.4953C213.214 75.4953 209.199 80.1834 209.199 86.4705C209.199 92.4378 212.842 97.1264 219.058 97.1264C225.185 97.1264 229.356 92.9516 229.356 86.0785C229.356 80.2887 225.841 75.4752 219.394 75.4953ZM136.65 75.6552C134.253 75.6552 131.981 75.8162 130.24 76.0989H130.258V96.6824C131.448 96.8245 133.187 96.9843 135.638 96.9843C139.74 96.9843 143.099 96.1149 145.302 94.2857C147.326 92.5807 148.781 89.8114 148.781 85.7977C148.781 82.0858 147.413 79.5085 145.229 77.8924C143.204 76.365 140.629 75.6552 136.65 75.6552ZM244.65 75.7977V89.8981L237.189 75.8147H231.649V96.752H235.999V81.4653L244.029 96.7556H249V75.7974L244.65 75.7977ZM151.074 75.8166V96.7748H155.833V75.8166H151.074ZM157.359 75.8166L164.071 96.7748H169.631L176.683 75.8166H171.636L168.955 84.7694C168.245 87.1671 167.59 89.6533 167.058 92.1752H166.967C166.47 89.5645 165.812 87.1657 165.101 84.6793L162.545 75.8166H157.359ZM178.085 75.8166V96.7748H182.844V75.8166H178.085ZM202.113 75.8166V96.7748H206.875V75.8166H202.113ZM219.287 79.2264C222.537 79.2264 224.351 82.4577 224.351 86.2228C224.351 90.2898 222.504 93.3476 219.307 93.3476C216.146 93.3476 214.208 90.4503 214.208 86.3477C214.208 82.2806 216.072 79.2264 219.287 79.2264ZM137.147 79.2989C141.214 79.2989 143.773 81.6078 143.737 85.959C143.737 90.9673 140.948 93.3255 136.65 93.2919C136.064 93.2919 135.408 93.2938 134.999 93.2053V79.476C135.408 79.3868 136.081 79.2989 137.147 79.2989Z" fill="#00A750"/>
<path fill-rule="evenodd" clip-rule="evenodd" d="M107.56 54.2717C107.56 61.2685 106.182 68.1968 103.504 74.6611C100.827 81.1253 96.9022 86.9988 91.9547 91.9463C87.0072 96.8938 81.1336 100.818 74.6694 103.496C68.2052 106.174 61.2768 107.552 54.28 107.552C47.2832 107.552 40.3549 106.174 33.8906 103.496C27.4264 100.818 21.5529 96.8938 16.6053 91.9463C11.6578 86.9988 7.73326 81.1253 5.05569 74.6611C2.37811 68.1968 0.999998 61.2685 1 54.2717C1.00001 40.141 6.61342 26.589 16.6054 16.597C26.5973 6.60508 40.1493 0.991699 54.28 0.991699C68.4107 0.991699 81.9627 6.60508 91.9547 16.597C101.947 26.589 107.56 40.141 107.56 54.2717Z" fill="#04984A"/>
<path d="M106.441 54.2716C106.441 61.1216 105.092 67.9044 102.471 74.2329C99.8493 80.5614 96.0072 86.3116 91.1635 91.1552C86.3199 95.9988 80.5697 99.841 74.2412 102.462C67.9127 105.084 61.1299 106.433 54.2799 106.433C47.43 106.433 40.6472 105.084 34.3187 102.462C27.9902 99.841 22.2399 95.9989 17.3963 91.1553C12.5527 86.3116 8.71053 80.5614 6.08919 74.2329C3.46784 67.9044 2.11865 61.1216 2.11865 54.2716C2.11866 40.4376 7.6142 27.1702 17.3963 17.388C27.1785 7.6059 40.4459 2.11035 54.2799 2.11035C68.114 2.11035 81.3814 7.6059 91.1635 17.388C100.946 27.1702 106.441 40.4376 106.441 54.2716Z" fill="#F5F6F6"/>
<path fill-rule="evenodd" clip-rule="evenodd" d="M55.0331 5.98633V5.99388C53.6552 6.00144 52.3958 6.39272 51.9921 6.52123L52.2851 7.75758C58.4301 5.59739 58.5145 8.65892 58.4726 9.09935C58.2838 9.08045 58.0954 9.06535 57.9081 9.04872C46.1109 8.03108 37.3258 11.9551 36.9335 12.0995C27.5168 15.6229 21.7491 21.8723 20.9941 22.6483L22.2323 23.9491C16.6536 23.5087 17.0932 28.6678 17.1562 29.3808C17.3488 29.5067 17.5135 29.5444 17.6542 29.5293C17.6742 29.5293 17.6935 29.5255 17.7128 29.5179C18.1719 29.4136 18.3568 28.7029 18.4355 28.4984C18.5403 28.2259 20.0513 27.7216 19.7577 29.4204L20.8691 29.3976L22.6308 24.384L24.7909 26.5872C21.2046 27.1954 22.4616 29.2715 21.371 30.7395C20.5111 32.1655 19.1901 31.0759 18.9804 30.6144L18.8768 31.2843C20.0159 32.1567 20.8371 32.3102 21.4491 32.0577C21.5048 32.035 21.559 32.0078 21.6112 31.9776C21.9247 31.8011 22.1787 31.5115 22.3905 31.1612C22.4257 31.103 22.4592 31.0451 22.4921 30.9835C22.9217 30.1827 23.1676 29.1326 23.4061 28.3488C23.7417 27.2582 24.896 26.8178 25.8397 27.1534L26.3632 26.6086L22.5468 22.5382L26.7831 18.9347C26.5314 20.6335 27.4121 21.1799 27.8944 21.2219C28.1107 21.2408 28.3091 21.2445 28.4921 21.237C28.6141 21.2332 28.7293 21.2181 28.8378 21.2029C30.3026 20.9917 30.5853 19.9133 30.9569 19.4178C31.8587 19.3951 31.1241 21.0329 30.9354 21.2635C29.0898 23.4656 25.5666 22.1238 25.0213 21.8513L24.7069 22.3748C30.726 24.556 32.1933 21.7671 32.2772 21.4314C33.0951 18.3274 30.5779 18.4117 30.0955 18.4744C29.6551 20.9911 27.9562 20.6775 27.7674 20.2791C27.6377 20.0274 27.6083 19.7722 27.6483 19.5213C27.6551 19.4793 27.6634 19.4377 27.6736 19.3962C27.9344 18.3579 29.3304 17.4192 29.74 17.1735C30.4321 17.488 32.7396 17.3209 33.2849 17.2789C32.5928 18.7888 33.7241 20.9286 33.9548 21.2223L34.6892 20.9702C33.4519 19.2085 34.6046 16.7954 34.8982 16.439L34.2908 15.894C32.9695 17.2363 31.5641 16.8621 30.9978 16.8394C30.4316 16.8167 30.4942 16.5865 30.7459 16.398L35.5076 13.8608L37.5838 19.1245L38.6736 18.6011L36.7029 13.4409C43.9385 10.1481 53.7534 9.83328 54.3826 9.89602C55.0327 9.93797 54.7809 11.239 54.697 11.4488C54.6551 11.4412 54.6147 11.4336 54.574 11.4261C53.9643 11.3448 53.4982 11.66 53.1443 11.719C52.3178 10.7221 51.5612 10.4848 50.9294 10.5823C50.8808 10.5899 50.8339 10.5974 50.7869 10.6087C49.9393 10.8117 49.3409 11.5975 49.1404 11.8451L50.1033 12.6205C51.4456 10.3764 52.7895 11.6341 52.9783 11.9486L52.033 12.7669L52.9978 13.4798C54.0465 11.9277 54.8233 12.1379 55.117 12.2845C55.7042 12.599 55.3049 14.13 55.242 14.6751C53.6684 13.2633 50.9406 15.1442 50.2654 14.7016C50.2518 14.694 50.2386 14.6827 50.2263 14.6714C50.0578 14.5171 50.0619 14.1635 50.3142 13.4799L49.6853 13.6908C49.5201 15.3347 50.1658 15.7309 51.0896 15.6889C51.2436 15.6813 51.4051 15.6624 51.572 15.6341C53.0746 15.3861 55.0019 14.4568 55.5564 15.5774L56.1228 15.5547C57.0246 12.283 55.7878 11.9463 55.4314 11.6738C56.0395 11.4432 55.8708 10.5619 55.8708 10.0586C55.8708 10.0586 57.3188 10.1225 58.3884 10.1856L57.7595 15.7012L58.8279 15.7851L59.4783 10.373L60.3806 10.4784L60.5076 9.30466L59.3747 9.19918C58.7731 6.59214 56.8048 5.97499 55.0331 5.98633ZM64.1347 9.91799L63.7363 11.0918C64.5752 11.0499 70.2382 12.834 70.2382 12.834L70.0273 13.3574L63.4218 12.666L63.6113 13.9453C67.7009 14.8681 68.2037 17.6574 68.3086 18.2656L68.7285 18.3068L71.1406 13.2736L72.9863 14.1135L70.3847 19.1037L71.455 19.5666L73.8867 14.5959L74.6835 14.9103L75.2089 13.8186C70.1545 11.3019 64.7639 10.1066 64.1347 9.91799ZM45.3261 11.3359C43.9337 11.3511 42.4788 12.4901 42.1347 12.834L43.3085 13.8614C43.4265 13.5273 44.0789 12.7321 44.3847 12.4785C44.4051 12.4634 44.4244 12.4483 44.4414 12.4354C44.4648 12.4203 44.4886 12.4014 44.5117 12.3886C44.5347 12.3734 44.5558 12.3621 44.5781 12.3474C45.9712 11.5098 46.6004 12.7565 46.58 12.9802C46.4122 14.3434 44.9874 15.1812 44.7148 15.3279C42.219 16.6701 39.388 14.1959 38.8007 13.6716L38.2968 13.7986C40.7146 17.3947 44.235 16.8177 44.7578 16.6638C44.7744 16.66 44.7887 16.6524 44.7988 16.6487C48.1334 15.4532 47.4397 12.7695 47.2929 12.5178C46.7666 11.631 46.0554 11.3284 45.3261 11.3359ZM69.5898 14.1836L68.5722 15.9864L68.5624 16.0053L68.5488 15.9901C68.5488 15.9901 68.2611 15.6239 67.9023 15.2206C67.5435 14.8173 67.1122 14.3767 66.8339 14.2323L66.84 14.2058L69.5898 14.1836ZM77.4941 14.8399C76.544 14.855 75.7084 15.4375 75.5449 15.6641C74.5172 17.1112 75.5443 18.1389 75.9218 18.3906C76.4068 18.7315 77.1614 18.8515 77.7519 18.8477C77.7814 18.8475 77.8111 18.8465 77.8398 18.8457C78.1549 18.8381 78.4132 18.7913 78.5429 18.7267C78.5724 18.7115 78.6009 18.6964 78.6288 18.6817C78.7696 18.6061 78.8946 18.5252 79.0039 18.4413C79.0476 18.4073 79.0898 18.3736 79.1288 18.3396C79.2655 18.2191 79.3735 18.0909 79.4589 17.9607C79.471 17.9418 79.4827 17.9267 79.4941 17.9059C79.5167 17.8681 79.5377 17.8304 79.5566 17.7926C79.566 17.7737 79.5755 17.7548 79.5838 17.7359C79.6012 17.6981 79.6167 17.6607 79.6307 17.6225C79.6375 17.6036 79.6439 17.5828 79.6503 17.5639C79.91 16.7655 79.4928 15.969 79.3827 15.8315C78.8256 15.0861 78.1599 14.8401 77.539 14.8393C77.5238 14.8393 77.5092 14.8396 77.4941 14.8399ZM77.4608 15.9024C77.4846 15.9019 77.5074 15.9025 77.5311 15.9024C78.1613 15.8986 78.8346 16.0331 79.2147 16.4609C79.3825 16.6288 79.7599 17.6162 78.2499 17.8887C77.7465 17.9726 77.0541 18.0558 76.2362 17.6994C75.3134 17.3009 75.7965 16.4619 76.0272 16.2521C76.0717 16.1187 76.7284 15.9183 77.4608 15.9024ZM81.5214 17.7832L80.7655 18.6016C80.7655 18.6016 87.3303 24.2842 87.6659 24.7246L86.1991 25.7734C85.6119 23.1728 83.786 23.3411 83.3456 23.2364C82.7164 20.0275 80.829 20.1114 80.3886 20.1953C78.4381 20.5938 78.5005 22.1658 78.6053 22.543C78.92 23.7804 80.5138 24.2207 81.1639 24.2207L81.1443 23.0469C79.5713 23.0076 79.252 22.3606 79.2009 22.0723C79.1975 22.0534 79.1945 22.0345 79.193 22.0197C79.1767 21.8296 79.2134 21.6788 79.2887 21.5607C79.3038 21.5381 79.3216 21.5169 79.3395 21.4942C79.8092 20.9471 81.2428 21.2444 81.5836 21.4318C83.0936 22.2288 82.9268 24.2012 82.8219 24.9143C85.045 24.0125 85.9254 25.6267 85.9254 26.0881L83.2418 28.2267L83.9547 29.1291L88.4215 25.5647L89.6578 27.1779L85.1071 30.3244L85.736 31.2893L90.4547 28.1232L92.3434 30.9533C89.7008 30.0934 88.2743 31.3732 88.0856 31.6037C86.4707 33.6381 88.1702 35.2116 88.7575 35.6311L89.1344 34.5392C88.9745 34.4841 88.8373 34.421 88.7184 34.3518C88.6589 34.3178 88.6027 34.2823 88.5524 34.2445C87.8985 33.7604 87.9891 33.0761 88.0231 32.8206C88.2747 31.2478 90.4762 31.5618 90.8746 31.6038C92.1959 31.7296 93.8106 33.554 94.2301 33.9944L90.4547 35.6937L90.5387 37.3089C91.6922 37.8123 92.952 39.2588 93.5602 39.846C91.6517 40.0138 90.8961 40.6227 90.4137 40.9163L90.6656 41.4183C91.0078 41.1704 91.3374 41.0108 91.65 40.9163C91.7021 40.9012 91.7532 40.8861 91.8043 40.8752C93.0828 40.5698 94.054 41.3375 94.3981 41.5666L94.9235 39.6564C94.525 38.8175 92.3221 36.8886 92.0075 36.5529L94.7125 35.2326C95.845 37.0362 97.6496 42.6978 97.7125 43.0334C98.4466 46.9553 96.2854 46.3888 95.9918 46.3049C95.1319 46.0743 95.4055 44.2081 95.4684 43.6837L93.9996 43.643C93.8528 45.8241 94.8596 46.4945 95.8453 46.9769C94.3143 48.445 95.1953 49.935 95.5309 50.2914L96.6852 49.4945C96.056 48.8443 96.1188 48.3607 96.1188 48.0882C96.1396 46.8928 97.2513 47.5226 97.4821 47.6273C98.4049 48.1097 98.3834 49.4518 98.3414 49.7035C98.0688 51.2984 96.6004 51.2757 96.3278 51.2757C96.0341 51.2757 93.5602 51.3188 93.5602 51.3188V52.5981L99.1168 52.3872V53.5415L100.375 53.5003L100.25 51.1507L98.2985 51.2131C100.522 48.6544 97.9421 46.7879 97.5856 46.4103C99.2634 44.6698 98.8658 43.4316 98.8239 43.1799C98.6587 41.9844 98.1805 40.4776 97.6422 39.0451C97.5525 38.8062 97.4607 38.5689 97.3688 38.3361C96.5417 36.2413 95.6739 34.4622 95.6149 34.3087C94.0419 30.5966 90.0151 25.8163 89.8473 25.5646C87.016 21.8105 81.5214 17.7832 81.5214 17.7832ZM74.369 18.5176L73.6561 19.5234C74.0126 19.754 76.8024 21.5789 77.0331 23.6133L77.41 23.0059C76.9696 21.3491 74.7046 18.8952 74.369 18.5176ZM21.0155 24.7325C21.0836 24.7325 21.153 24.74 21.2245 24.7476L20.3651 27.5991C20.3443 27.725 20.0705 28.1665 19.9237 27.81C19.7769 27.4536 18.9815 27.4316 18.7089 27.6207C18.5411 27.7465 18.289 27.7462 18.3729 27.2847C18.4713 26.8521 18.8816 24.816 20.8163 24.7359C20.8808 24.7332 20.9474 24.7306 21.0155 24.7325ZM14.2831 31.0371L13.0448 33.1367L14.1366 33.8926C10.781 35.843 11.0328 38.6319 11.1796 39.0723C11.9031 41.3031 13.015 41.6376 13.6854 41.6035C13.7145 41.6035 13.7438 41.5998 13.7714 41.596C13.8536 41.5884 13.928 41.5733 13.9921 41.5571C14.0132 41.5533 14.0337 41.5457 14.0526 41.5419C14.0715 41.5382 14.0893 41.5306 14.1053 41.5268C14.122 41.5231 14.1382 41.5154 14.1522 41.5117C14.1802 41.5003 14.2036 41.4928 14.2206 41.4853C14.4945 41.3556 14.7154 41.1757 14.8964 40.9637C14.913 40.9448 14.9292 40.924 14.9452 40.9051C15.765 39.8763 15.6748 38.1553 15.7089 37.5419L14.2831 37.5192C14.3244 37.6235 14.3579 37.7335 14.3866 37.8473C14.396 37.885 14.4059 37.9244 14.4138 37.9626C14.4221 38.0008 14.4304 38.0409 14.4372 38.0798C14.444 38.1188 14.4509 38.1596 14.4569 38.1989C14.4626 38.2382 14.4678 38.2802 14.4724 38.3199C14.4769 38.3596 14.4807 38.4009 14.4841 38.4409C14.4875 38.4802 14.4913 38.5226 14.4939 38.5619C14.4966 38.6016 14.4981 38.6435 14.5 38.6828C14.5 38.684 14.4999 38.6856 14.5 38.6867C14.5014 38.7263 14.5033 38.7645 14.5038 38.8038C14.5038 38.8038 14.5037 38.8076 14.5038 38.8114C14.5044 38.8503 14.5059 38.89 14.5057 38.9285V38.9342C14.5055 38.9728 14.5047 39.0113 14.5038 39.0495C14.5037 39.0495 14.5038 39.0533 14.5038 39.0571C14.5029 39.0952 14.5014 39.1327 14.5 39.1705C14.4999 39.1705 14.5001 39.1742 14.5 39.178C14.4981 39.2158 14.4943 39.2518 14.4921 39.2895C14.4919 39.2933 14.4922 39.2933 14.4921 39.2971C14.4894 39.3349 14.4871 39.3723 14.4841 39.4063C14.4839 39.4101 14.4843 39.4101 14.4841 39.4139C14.4811 39.4479 14.4777 39.4834 14.4743 39.5174C14.474 39.5212 14.4746 39.525 14.4743 39.5288C14.4709 39.5628 14.4663 39.5983 14.4626 39.6323C14.4623 39.6361 14.4629 39.6344 14.4626 39.6399C14.4068 40.1073 14.3054 40.4832 14.2184 40.6223C14.212 40.6337 14.2052 40.6412 14.1988 40.6488C13.2131 41.7394 12.7925 40.7973 12.7086 40.4829C11.5131 36.7288 14.3663 35.0295 14.8277 34.7778C15.2799 34.5227 15.5295 34.7245 15.7144 34.7702C15.7269 34.774 15.7379 34.7778 15.7496 34.7778L18.9586 36.5805L19.6089 35.4477L14.7652 32.7211L15.3726 31.6333L14.2831 31.0371ZM9.66784 41.3145L8.99792 43.7246L10.1718 43.9121C6.04017 48.4212 9.56427 51.3166 9.96279 51.5683C10.1162 51.6609 10.2458 51.6912 10.3554 51.6836C10.3796 51.6836 10.4034 51.6814 10.4257 51.6723C10.504 51.6496 10.5704 51.6031 10.6269 51.5377C10.6348 51.5302 10.6427 51.5188 10.6503 51.5075C10.9947 51.0523 10.9289 49.8572 10.8846 49.5329C10.8006 49.0925 10.7802 48.4011 10.8221 48.1286C11.1158 46.7234 11.7862 47.2466 11.912 47.4352C11.9199 47.4466 11.9309 47.4617 11.9434 47.4764C11.9554 47.4915 11.9687 47.5067 11.9844 47.5271C12.0798 47.6409 12.2392 47.8241 12.3984 48.1091C12.4116 48.1318 12.4241 48.1568 12.4375 48.1832C12.6363 48.5612 12.8296 49.1019 12.8984 49.8687L13.8633 49.1968C13.7375 48.1063 13.0041 46.7855 12.7734 46.5758C11.715 45.5796 11.0992 46.2394 10.7129 47.0894C10.6925 47.134 10.6732 47.179 10.6543 47.2244C10.5015 47.5891 10.3868 47.9741 10.2949 48.2693C10.2719 48.343 10.2509 48.4114 10.2305 48.4722C10.2101 48.5331 10.1904 48.586 10.1719 48.6306C10.0985 48.8037 10.021 48.8872 9.94338 48.9099C9.93355 48.9137 9.92372 48.9174 9.91389 48.9174C9.69158 48.9439 9.48255 48.516 9.43734 48.3803C9.05197 46.9214 9.4901 45.8595 10.0077 45.1362C10.0322 45.1022 10.0569 45.0685 10.0819 45.0345C10.1068 45.0005 10.1312 44.9691 10.1561 44.9389C10.1811 44.9086 10.2073 44.8754 10.2323 44.8452C10.4325 44.6055 10.629 44.4156 10.7811 44.269L15.5194 45.3803L15.9393 44.058L10.5291 42.6323L10.8006 41.7514L9.66784 41.3145ZM29.9921 85.9238L29.2772 86.6582L29.8026 87.2871C29.6558 87.4969 29.6566 87.9992 30.0761 88.125C30.4745 88.2509 31.6479 89.4464 31.7108 89.8028C31.9625 91.187 30.6616 91.3767 30.3261 91.4395C30.0849 91.5 29.379 91.4404 29.1483 90.8574C29.1381 90.8309 29.129 90.8057 29.1211 90.7792C29.056 90.5604 29.0526 90.2751 29.1525 89.9081L28.4181 89.8242C28.3237 92.3304 29.4571 92.8271 30.8361 92.7969C30.9222 92.7969 31.0099 92.7893 31.0978 92.7855C31.3614 92.7666 31.6304 92.736 31.9005 92.6975C32.2608 92.6464 32.6219 92.5852 32.9669 92.5372C33.6571 92.4416 34.285 92.3978 34.7306 92.592C35.947 93.1583 35.7378 94.313 35.633 94.5647L34.5001 96.4514L35.8439 97.0393L38.0861 92.0686C41.9031 93.8722 46.351 94.3763 47.0431 94.5022L46.9591 95.0471L39.7658 94.9004L39.7013 96.3262C43.8539 96.4521 46.182 99.765 46.3498 100.059L47.3771 100.205L48.217 94.7948C52.3276 95.445 56.9838 95.0877 57.592 95.0038L57.6545 95.4237C57.6545 95.4237 51.4879 97.2059 50.5861 97.4784L51.258 98.5702C55.5993 97.8362 57.7389 100.122 58.0744 100.478L59.3322 100.332L59.0588 96.3474C60.1494 95.844 61.8485 95.9686 62.0373 96.1365C62.226 96.3043 63.2131 97.3327 60.6545 97.5213L61.1369 98.6736C63.7375 97.9605 63.0439 96.3036 62.8342 96.0311C61.9324 94.9404 59.6895 95.1717 59.1232 95.1717V94.8164C61.8287 94.5227 63.5274 93.9351 64.3244 93.7461L65.8127 99.1153L67.0509 98.7384L65.5822 93.4943C69.1475 92.5925 73.4049 90.2852 74.2228 89.8029L74.4123 90.1605L68.5822 94.6897L69.756 95.5706C71.7065 93.5152 76.9282 94.1869 77.5783 94.3128L78.0607 93.8714L75.2932 89.2581L76.426 88.5022L75.7541 87.6018C68.0781 93.1386 57.5918 93.8519 57.0256 93.9358C49.4964 94.8586 41.5885 92.131 41.1271 91.9632C35.2758 90.1176 30.3486 86.3223 29.9921 85.9238ZM32.2362 89.1328C32.2362 89.1328 36.1781 91.2919 37.08 91.5645L36.2831 93.2422C35.5281 92.8228 35.7592 90.4537 32.2987 90.9571L32.2362 89.1328ZM74.83 91.2071L76.0682 93.1602C76.0682 93.1602 73.7824 92.9281 72.7128 93.1375L74.83 91.2071ZM74.5975 94.7695C73.9843 94.796 73.1695 95.1783 72.8397 95.3457C72.8087 95.3608 72.7815 95.376 72.7596 95.3869C72.7158 95.4096 72.6912 95.4247 72.6912 95.4247L72.9022 96.2001C73.4265 95.7387 74.9569 95.5497 74.9569 95.5497L74.9784 94.8173C74.9671 94.8135 74.955 94.8097 74.9433 94.806C74.9372 94.806 74.9296 94.8038 74.9236 94.7984C74.8994 94.7908 74.8747 94.787 74.8494 94.7832C74.843 94.7822 74.8362 94.7822 74.8297 94.7813C74.7651 94.7737 74.6983 94.7662 74.6266 94.77C74.6172 94.7702 74.6073 94.7691 74.5975 94.7695ZM43.6659 96.4101H46.7284L46.3495 98.5899C46.3495 98.5899 44.9452 96.8925 43.6659 96.4101ZM57.7596 96.6191L57.9471 99.3457C57.4857 99.094 55.9556 97.7092 54.7811 97.5625L57.7596 96.6191ZM41.6522 98.0644V98.0682L41.5057 98.9491C42.1559 99.0118 43.0778 99.7668 43.3924 100.06L43.7283 99.326C43.6458 99.2206 43.561 99.125 43.4744 99.0369C43.462 99.0256 43.4499 99.0105 43.4374 98.998C43.4249 98.9867 43.4128 98.9716 43.4004 98.9591C43.3879 98.9477 43.3758 98.9364 43.3633 98.9251C42.6878 98.3015 41.953 98.1529 41.6522 98.0644Z" fill="#04984A"/>
<path fill-rule="evenodd" clip-rule="evenodd" d="M12.25 63.2656L11.0918 66.0195L8.10156 65.662L10.3672 67.6151L9.13086 70.246L11.6484 68.787L13.832 70.8007L13.1348 67.8749L15.8125 66.4296L12.8027 66.2187L12.25 63.2656ZM95.2656 63.2656L94.7109 66.2188L91.7012 66.4296L94.3789 67.8749L93.6816 70.8007L95.8672 68.787L98.3848 70.2461L97.1465 67.6152L99.4141 65.6621L96.4238 66.0196L95.2656 63.2656ZM18.6309 76.6953L17.5527 79.416L14.5273 79.1348L16.8652 81.0607L15.5586 83.7911L18.1504 82.1758L20.3633 84.1426L19.6504 81.252L22.2617 79.8067L19.1992 79.5996L18.6309 76.6953ZM88.8848 76.6953L88.3145 79.5996L85.2539 79.8067L87.8633 81.252L87.1523 84.1426L89.3633 82.1758L91.957 83.7911L90.6504 81.0607L92.9863 79.1348L89.9609 79.416L88.8848 76.6953Z" fill="#EC2227"/>
<path fill-rule="evenodd" clip-rule="evenodd" d="M89.9023 54.2719C89.9023 63.7195 86.1493 72.7802 79.4688 79.4607C72.7883 86.1412 63.7276 89.8943 54.2799 89.8943C44.8323 89.8943 35.7716 86.1412 29.0911 79.4607C22.4105 72.7802 18.6575 63.7195 18.6575 54.2719C18.6575 49.5939 19.5789 44.9617 21.3691 40.6398C23.1593 36.3179 25.7832 32.3908 29.091 29.083C32.3989 25.7751 36.3259 23.1512 40.6478 21.361C44.9697 19.5708 49.6019 18.6494 54.2799 18.6494C58.9579 18.6494 63.5901 19.5708 67.912 21.361C72.2339 23.1512 76.1609 25.7751 79.4688 29.083C82.7766 32.3908 85.4006 36.3179 87.1908 40.6398C88.981 44.9617 89.9024 49.5939 89.9023 54.2719Z" fill="#EC2227"/>
<path fill-rule="evenodd" clip-rule="evenodd" d="M38.961 29.7677C38.7557 29.7601 38.5229 30.1958 38.4395 30.3458C38.2959 30.5715 38.0703 31.0848 38.2755 31.2696C38.4807 31.4752 38.8701 31.2691 39.0958 31.3108C39.2804 31.3724 39.711 31.4737 39.67 31.7405C39.5674 31.7632 39.3419 31.6997 39.3829 31.8637C39.4239 31.9869 39.7316 32.0705 39.752 32.1937C39.9162 32.8093 39.0559 32.3369 38.7481 32.4397C38.6456 32.4806 38.5412 32.6643 38.4591 32.7463C38.3565 32.8487 38.2335 32.9318 38.1719 33.0546C38.1515 33.1162 38.1523 33.1571 38.1114 33.2187C38.0498 33.3011 38.0498 33.3 38.0294 33.4024C38.0294 33.4432 38.0899 33.5252 38.049 33.5664C37.9875 33.6896 37.7424 33.5664 37.6604 33.5664C37.4962 33.5664 37.3528 33.7316 37.2092 33.7932C37.0861 33.8544 37.0247 33.8544 36.9631 33.9572C36.9427 34.0392 37.0022 34.1008 36.8791 34.1624C36.756 34.224 36.5715 34.1814 36.51 34.2857C36.4279 34.4909 36.715 34.5725 36.8381 34.6137L36.9416 34.6326C37.0853 34.6942 37.0032 34.7759 36.9006 34.8787C36.8186 34.9607 36.6956 35.0007 36.6135 35.0623C36.552 35.1032 36.3665 35.1647 36.3049 35.2264C36.2845 35.2876 36.2648 35.3288 36.2444 35.3904C36.2033 35.452 36.1203 35.4528 36.0999 35.5348C36.0588 35.74 36.3049 35.6977 36.3049 35.8413C36.3254 35.9645 36.0178 35.9868 36.0589 36.1305C36.0793 36.2945 36.101 36.4173 36.1214 36.5406C36.1418 36.7046 36.1623 36.7866 36.2854 36.9098C36.388 37.0123 36.593 37.1971 36.7366 37.1971C36.7777 37.1782 36.8381 37.134 36.9202 37.1151C36.9818 37.1151 37.0247 37.1725 37.1273 37.134C37.2504 37.0724 37.2297 36.8683 37.4144 36.9503C37.558 37.0323 37.6184 37.2772 37.721 37.421C37.8236 37.6263 37.926 37.8525 38.1312 37.9757C38.3158 38.1397 38.5823 38.0369 38.7054 38.2217C38.7875 38.3449 38.9535 38.5509 38.9124 38.6944C38.7483 38.6532 38.7473 38.8788 38.8499 38.9404C38.9935 39.0224 39.1995 38.9593 39.2816 39.1457C39.3431 39.2485 39.2608 39.3925 39.4456 39.4953C39.6098 39.5799 39.8352 39.4964 40.0198 39.5989C40.184 39.6809 40.2854 39.8868 40.4495 39.9485C40.6958 40.0305 40.8205 39.8267 40.9847 39.7239C41.0873 39.6623 41.0657 39.6601 41.1683 39.7429C41.2299 39.8045 41.2708 39.9069 41.3734 39.9069C41.6196 39.9481 41.3537 39.7016 41.4359 39.6196C41.5385 39.4964 41.7025 39.7428 41.764 39.8249C41.8461 39.9477 41.8861 40.0902 41.9887 40.2135C42.2144 40.5008 41.5588 40.5631 41.8461 40.9323C41.9076 41.0143 42.0101 41.0554 42.0922 41.1375C42.1537 41.2195 42.1947 41.3835 42.2972 41.4247C42.4409 41.4867 42.5843 41.3869 42.7484 41.4058C42.8305 41.4247 42.9329 41.4886 42.9945 41.5502C43.1176 41.6938 43.0356 41.9191 42.9125 42.0424C42.7894 42.1652 42.7484 42.166 42.7484 42.3508C42.7484 42.474 42.6245 42.6599 42.4808 42.6788C42.3987 42.72 42.2963 42.6977 42.2347 42.6788C42.0706 42.6599 41.9887 42.6562 41.9887 42.5345C41.9683 42.3905 41.9272 42.3474 41.7015 42.5534C41.5374 42.6762 41.5171 42.6966 41.3324 42.5946C41.1888 42.533 40.9838 42.3066 40.7992 42.3682C40.7376 42.4094 40.7162 42.5564 40.6136 42.5753C40.5726 42.5753 40.5121 42.5564 40.4711 42.5148C40.348 42.4532 40.3687 42.2888 40.184 42.3077C40.0404 42.4513 39.774 42.9223 39.5688 42.5322C39.4456 42.327 39.4459 42.2639 39.1586 42.245C39.0355 42.2223 38.8911 42.2037 38.768 42.2638C38.4192 42.4486 38.7269 42.8388 38.768 43.1057C38.7884 43.2905 38.727 43.5363 38.6449 43.6799C38.5423 43.8439 38.4194 43.9259 38.4398 44.131C38.4602 44.2335 38.522 44.4565 38.3168 44.4376C38.2553 44.4187 38.0083 44.1514 37.8851 44.2951C37.8443 44.3567 38.0093 44.5196 37.8655 44.6016C37.7629 44.6632 37.598 44.5196 37.5159 44.6016C37.598 44.7248 37.8645 44.7879 37.926 44.9315C37.9876 45.0963 37.886 45.1341 37.7424 45.1152C37.4962 45.0332 37.3324 44.8692 37.1272 44.705C36.963 44.5818 36.8802 44.3573 36.6545 44.3573C36.4288 44.3384 35.9767 44.501 36.2639 44.7266C36.387 44.8498 36.5716 44.9111 36.592 45.0959C36.592 45.3419 36.346 45.2599 36.1819 45.3419C36.0588 45.4239 35.9563 45.506 35.8538 45.6292C35.7101 45.7936 35.6487 45.9776 35.5256 46.1624C35.4436 46.306 35.3821 46.4084 35.2385 46.4904C35.1359 46.5724 34.9729 46.5724 34.9729 46.7364C34.9729 46.8597 35.1154 46.9621 35.1975 47.0237C35.3412 47.1261 35.4436 47.2082 35.4436 47.393C35.464 47.5158 35.5461 47.6594 35.6487 47.7622C35.7307 47.865 35.7111 47.9478 35.7932 48.0298C35.8753 48.1119 35.9767 48.1931 36.0588 48.2955C36.3666 48.7264 36.8809 48.9124 37.2092 49.2408C37.4144 49.4664 37.7208 49.5681 38.0081 49.6705C38.3979 49.7937 38.8087 49.6516 39.1369 49.8561C39.2806 49.9585 39.2804 50.0012 39.5061 50.0201C39.6908 50.0201 39.8556 50.0587 40.0198 50.039C40.1224 50.0201 40.2238 50.0201 40.3264 50.039C40.5931 50.0802 40.7591 50.366 40.7795 50.6328C40.7999 50.8996 40.9634 51.5975 40.4709 51.6387C40.3684 51.6576 40.1008 51.5781 40.1623 51.7422C40.1827 51.8038 40.4504 51.8858 40.5119 51.9474C40.5943 52.0294 40.5744 52.0283 40.6155 52.1311C40.6359 52.2335 40.7171 52.3779 40.676 52.5217C40.6556 52.5833 40.594 52.6037 40.594 52.6857C40.594 52.7473 40.6564 52.8498 40.7385 52.891C40.7589 52.9934 40.553 53.1994 40.512 53.3227C40.4299 53.5075 40.3881 53.6908 40.1624 53.7524C39.9982 53.7902 39.6918 53.8139 39.5276 53.7712C39.302 53.6892 38.9738 53.5868 39.2405 53.8945C39.3431 54.0177 39.5062 54.1197 39.4651 54.3046C39.383 54.551 39.1176 54.3273 38.9534 54.4902C38.9534 54.675 39.2405 54.5926 39.3226 54.7362C39.3636 54.8182 39.3216 54.9415 39.26 55.0235C39.1575 55.1055 39.0355 55.1467 38.9534 55.2287C38.8919 55.3107 38.8499 55.4135 38.8089 55.5159C38.7474 55.6391 38.6047 56.09 38.8714 56.1312C39.0971 56.1501 38.8907 55.4956 39.096 55.598C39.1986 55.6804 39.2816 55.8028 39.1995 55.926C39.1582 55.9876 39.1166 56.0912 39.137 56.1529C39.1986 56.2145 39.2395 56.0682 39.3421 56.0493C39.4857 56.0304 39.6301 56.1528 39.6917 56.2349C39.6917 56.3377 39.6907 56.4409 39.7523 56.5025C39.8138 56.5845 40.0608 56.6052 40.1019 56.7077C40.1839 56.9129 39.7736 56.9934 40.1839 57.0964C40.2865 57.1153 40.4309 57.1375 40.5335 57.0964C40.6771 57.0552 40.6565 56.9323 40.7386 56.8503C40.9027 56.7071 40.964 56.9731 40.9436 57.0964C40.9232 57.2604 40.7581 57.4452 40.635 57.5475C40.5119 57.6091 40.513 57.5883 40.4514 57.7115C40.4514 57.7935 40.4925 57.7935 40.4104 57.8755C40.3078 57.978 40.0607 57.9576 40.1428 58.1628C40.1839 58.2448 40.6557 58.534 40.3069 58.5749C40.1633 58.5976 39.9779 58.2673 39.8342 58.4109C39.7726 58.4721 39.8146 58.7378 39.8558 58.7996C39.9994 58.9432 40.1418 58.9851 40.3265 59.0671C40.4701 59.1083 40.5745 59.2096 40.6566 59.3328C40.7797 59.4965 40.8812 59.5381 40.8812 59.2917C40.8812 59.0864 40.882 58.9428 41.1078 59.1276C41.2103 59.2301 41.2512 59.436 41.4359 59.3544C41.559 59.2932 41.5384 59.1688 41.682 59.2508C41.8051 59.3328 41.846 59.5381 41.9691 59.6201C42.0716 59.6817 42.1527 59.6012 42.1527 59.7237C42.1527 60.0298 41.9076 59.992 41.764 60.0109C41.5793 60.0521 41.4965 60.1964 41.4144 60.3605C41.3118 60.5249 41.3333 60.667 41.3128 60.8312C41.3128 60.9136 41.3129 60.9552 41.2718 61.0168C41.2308 61.0784 41.1887 61.058 41.1683 61.14C41.1273 61.2836 41.2718 61.5511 41.3128 61.6947C41.3949 61.8587 41.5375 61.9808 41.5375 62.1243C41.5375 62.2064 41.4964 62.2476 41.5375 62.3296C41.5785 62.3908 41.723 62.432 41.764 62.4936C41.8666 62.5964 42.0715 62.762 42.0511 62.9057C42.0101 63.0493 41.8256 63.1714 41.723 63.2534C41.6409 63.315 41.4153 63.3971 41.4769 63.5407C41.5179 63.6231 41.6809 63.6647 41.7425 63.7263C41.8656 63.8291 41.8039 63.9099 41.7835 63.992C41.7422 64.2176 41.6204 64.2603 41.723 64.4451C41.7845 64.5475 41.7835 64.6295 41.8245 64.7323C41.8656 64.8351 41.9066 64.8555 41.8245 64.9375C41.8041 65.0199 41.6809 65.0188 41.6605 65.1212C41.6605 65.224 41.886 65.3692 41.9476 65.4512C42.0708 65.6564 42.0922 65.8397 42.0511 66.0449C42.0101 66.209 41.8666 66.373 41.887 66.5371C41.9074 66.7219 42.1127 66.8047 42.1331 66.9688C42.1331 67.1536 41.9681 67.1543 41.9066 67.3184C41.8655 67.4412 41.9886 67.6044 42.0296 67.707C42.1322 67.8918 42.4202 67.9746 42.4613 68.1797C42.5023 68.3025 42.3587 68.4246 42.4613 68.5683C42.687 68.7736 42.5844 68.7528 42.5023 68.9376C42.4407 69.0396 42.2972 69.1228 42.2972 69.246C42.2972 69.3692 42.5854 69.4724 42.6058 69.5956C42.6262 69.6776 42.5228 69.8009 42.4613 69.8829C42.3381 70.0265 42.0705 70.0057 42.2347 70.293C42.3373 70.4775 42.4408 70.5391 42.5023 70.7442C42.605 71.011 42.4819 71.3183 42.6254 71.6055C42.728 71.7903 42.6868 71.8731 42.6664 72.0782C42.6664 72.119 42.5832 72.201 42.6861 72.2422C42.7476 72.2611 42.8305 72.2014 42.8716 72.1602C42.9537 72.0374 42.9956 71.8926 43.0981 71.7696C43.2007 71.626 43.2611 71.4823 43.2407 71.3184C43.2203 71.1132 43.1187 71.0516 42.9751 70.9492C42.8109 70.8671 42.81 70.7647 42.8716 70.5799C42.9126 70.4567 42.9536 70.3338 42.9536 70.1697C42.974 70.0261 42.893 69.7793 43.0161 69.6561C43.2213 69.7793 43.057 70.0057 43.3442 70.1287C43.4673 70.2107 43.6108 70.2512 43.6724 70.0664C43.7339 69.8816 43.4047 69.6562 43.4868 69.5742C43.5894 69.451 43.9176 69.677 43.938 69.7794C43.979 69.9438 43.8356 70.1487 43.856 70.3126C43.856 70.3742 43.8571 70.3946 43.8775 70.4358C43.8775 70.4547 44.1236 70.4585 44.1236 70.4982C44.1032 70.5802 43.8971 70.539 43.856 70.5802C43.7534 70.703 43.7534 70.7635 43.856 70.8867C44.0202 71.0507 44.2056 71.0107 44.2466 71.2363C44.2671 71.3183 44.1635 72.098 44.3892 71.7695C44.4713 71.6875 44.4722 71.5654 44.5337 71.463C44.5748 71.4014 44.6763 71.3594 44.7173 71.2774C44.7788 71.1338 44.5738 71.0098 44.5122 70.8868C44.4507 70.7432 44.4105 70.2714 44.6568 70.3947C44.739 70.4136 44.7583 70.6826 44.7583 70.7443C44.7993 70.8471 44.8012 70.9699 44.8833 71.0723C44.9448 71.1751 44.9859 71.1747 45.0064 71.3184C45.0268 71.4004 45.0463 71.544 45.026 71.6056C44.985 71.7904 44.82 71.914 44.6764 71.9962C44.6149 72.0578 44.5534 71.9957 44.5534 72.1194C44.5534 72.2426 44.6773 72.2835 44.7389 72.3247C44.6773 72.4891 44.8415 72.5499 44.862 72.6527C44.9235 72.8579 44.8618 73.0023 45.1901 72.9203C45.2722 72.9014 45.3141 72.8791 45.3756 72.7971C45.4372 72.7355 45.4986 72.7143 45.5807 72.6527C45.7448 72.5707 45.6823 72.4271 45.6412 72.2835C45.6205 72.1399 45.6628 72.0178 45.6628 71.8538C45.6628 71.669 45.5808 71.5454 45.4987 71.3811C45.4577 71.2579 45.4165 70.8675 45.6628 71.0315C45.7654 71.0931 45.7447 71.4828 45.9499 71.3595C46.0731 71.2979 46.073 70.971 46.0319 70.8478C46.0115 70.7042 45.908 70.5803 45.8464 70.4162C45.7643 70.1698 45.99 70.1713 45.9284 69.9455C45.908 69.7815 45.7234 69.6987 45.6823 69.5549C45.6619 69.4113 45.7243 69.3908 45.7859 69.3088C45.8473 69.2268 45.7858 69.1448 45.8269 69.0628C45.909 68.8991 46.0924 68.9399 46.1745 69.104C46.2771 69.2888 46.1754 69.4524 46.278 69.6371C46.3601 69.7808 46.359 69.9868 46.3386 70.1508C46.3386 70.192 46.1539 70.602 46.2155 70.602C46.4823 70.6432 46.5231 70.0894 46.6257 69.9457C46.8103 69.6789 46.9539 70.2738 46.7487 70.438C46.6667 70.52 46.6257 70.4568 46.5847 70.602V70.7445C46.5642 70.8265 46.4831 70.8481 46.4831 70.9301C46.4831 71.0941 46.7702 71.0317 46.8933 71.0317C46.9753 71.0317 47.0572 71.009 47.1393 71.0506C47.2214 71.0695 47.2623 71.1761 47.3444 71.195C47.488 71.2139 47.4674 71.0102 47.5495 70.9078C47.5905 70.828 47.6111 70.7641 47.6315 70.8888C47.6519 71.0737 47.5699 71.3 47.5495 71.4436C47.5291 71.5256 47.5504 71.6488 47.5298 71.7308C47.4888 71.7535 47.4467 71.7913 47.4263 71.8325C47.4059 71.8941 47.4059 71.978 47.4673 72.0396C47.5699 72.1628 47.9194 72.1208 47.981 71.936C48.0014 71.854 47.9801 71.7712 47.9185 71.7096C47.8569 71.6276 47.7545 71.6688 47.7134 71.5456C47.6926 71.5044 47.7349 71.3815 47.7349 71.3403C47.776 71.2171 48.0015 70.8685 48.0631 71.1351C48.1246 71.258 48.0006 71.3415 48.0006 71.4439C48.0006 71.5051 48.0826 71.6283 48.1236 71.6899C48.1853 71.772 48.2261 71.772 48.2057 71.8952C48.1853 71.9776 48.1646 72.0377 48.2467 72.0789C48.5339 72.1817 48.4517 72.2021 48.6158 72.0789C48.6979 72.0381 48.6988 71.9765 48.7604 71.9149C48.8014 71.8328 48.7594 71.6492 48.8619 71.6492C48.903 71.6681 48.9869 71.8737 49.069 71.8737C49.0486 71.7097 49.069 71.526 49.069 71.362C49.069 71.0747 49.027 70.9088 48.9244 70.6627C48.8629 70.5399 48.8425 70.4167 48.7604 70.2934C48.7193 70.2318 48.6159 70.1498 48.5748 70.0882C48.5133 69.965 48.5552 70.0062 48.6374 69.883C48.6989 69.801 48.6773 69.7201 48.7389 69.6585C48.9031 69.6993 48.8628 69.7598 48.8424 69.883C48.8424 69.965 48.7808 70.1498 48.9244 70.0882C49.027 70.0474 49.0486 69.8433 49.069 69.7817C49.0758 69.759 49.0924 69.7197 49.1119 69.68C49.1195 69.7242 49.1301 69.767 49.151 69.801C49.1786 69.75 49.1956 69.7004 49.2096 69.6543L49.1726 69.5957C49.1896 69.5882 49.2028 69.5994 49.2096 69.6505C49.2566 69.4937 49.2678 69.3818 49.5202 69.4121C49.4998 69.8429 49.4176 70.2117 49.5202 70.6426C49.5406 70.725 49.5807 70.909 49.6217 70.9706C49.7038 71.0526 49.7867 71.0114 49.8483 71.0526C49.9098 71.0934 49.9508 71.1754 50.0123 71.2166C50.0534 71.1138 50.0124 70.826 49.9713 70.744C49.848 70.5799 49.7242 70.6423 49.8268 70.3963C49.9089 70.191 50.0132 70.0065 50.1569 69.9041C50.239 69.8629 50.4645 69.6357 50.526 69.6168C50.7517 69.5979 50.4431 69.9041 50.4635 69.9861C50.4839 70.1093 50.4645 70.1725 50.3619 70.1914C50.2799 70.2322 50.2595 70.2545 50.1979 70.2734C50.0543 70.3762 50.0953 70.4578 50.2389 70.6014C50.3209 70.6834 50.4645 70.8067 50.567 70.8067C50.6286 70.5194 50.6685 70.3342 50.8737 70.129C51.1609 70.0265 50.854 70.6006 50.8131 70.7442C50.7721 70.9698 50.6286 70.909 50.485 71.0526C50.3616 71.1962 50.2584 71.5038 50.3405 71.6678C50.4841 72.0166 50.8736 71.7294 50.9557 71.5038C51.0377 71.2781 51.1197 71.1757 51.2428 71.0116C51.3454 70.8887 51.4078 70.8052 51.5104 70.7032C51.5925 70.6416 51.6734 70.5811 51.735 70.5195C51.817 70.4171 52.0436 70.2111 52.0436 70.0878C52.0436 69.8826 51.6949 69.6786 51.8385 69.5761C52.0642 69.4121 52.1677 69.6377 52.1061 69.7813C52.0857 69.8837 52.2896 69.8826 52.4127 69.9238C52.5359 69.9646 52.5367 69.9862 52.6393 70.0682C52.7829 70.1914 53.0894 70.2315 53.192 70.0058C53.2535 69.8414 53.1708 69.6162 53.151 69.4726C53.3151 69.5554 53.3775 69.5365 53.5416 69.4538C53.6032 69.4349 53.7671 69.2897 53.8287 69.3717C53.8903 69.4745 53.6226 69.5981 53.6022 69.6393C53.438 69.947 53.7261 70.1326 53.9928 69.9889C54.2595 69.8249 54.2398 69.7009 54.3424 69.4753C54.4245 69.2908 54.5054 69.2901 54.608 69.0847C54.6696 68.8998 54.9361 68.7774 55.0592 68.5924C55.2028 68.4076 55.2232 68.2037 55.3463 68.0397C55.4489 67.8345 55.695 67.8129 55.6334 67.567C55.5923 67.3618 55.3668 67.2174 55.2642 67.0124C55.1616 66.8071 55.1001 66.5818 55.1412 66.3561C55.2438 66.0073 55.0798 65.9872 54.772 65.8639C54.4848 65.7407 54.4848 65.5963 54.731 65.5143C54.9567 65.4527 54.896 65.413 54.9986 65.2078C55.1833 65.1054 54.9565 64.7351 54.9361 64.6531C55.0797 64.7967 55.3052 64.9196 55.3052 65.1453C55.3052 65.3093 54.9986 65.4344 55.0396 65.5984C55.0807 65.7628 55.3257 65.621 55.4283 65.6396C55.695 65.7012 55.8189 66.0487 55.9009 66.2743C55.9832 66.5616 56.0025 66.8504 56.0025 67.1376C56.0229 67.4249 55.7563 67.6286 55.8384 67.8955C55.9205 68.1003 56.2506 68.0191 56.1275 68.2861C56.0659 68.4297 55.7779 68.4902 55.7369 68.7978C55.7369 68.8798 55.7973 68.9834 55.7565 69.0654C55.7361 69.1062 55.6539 69.1062 55.6335 69.1474C55.6127 69.1663 55.5924 69.2702 55.5924 69.3114C55.5924 69.373 55.5713 69.4354 55.5514 69.497C55.5104 69.5586 55.4694 69.6406 55.4694 69.7023C55.4282 69.7435 55.4293 69.8259 55.4089 69.8448L55.3054 70.132C55.2233 70.234 55.1834 70.3172 55.2857 70.4404C55.3473 70.502 55.4693 70.502 55.5103 70.6456C55.5514 70.7072 55.5513 70.79 55.5923 70.8312C55.6744 70.934 55.6343 70.9132 55.7369 70.8312C55.7369 70.8085 55.7368 70.7473 55.7779 70.7061C55.8189 70.6872 55.8805 70.7054 55.9009 70.6872C56.0651 70.6051 56.0864 70.4823 56.2095 70.3591C56.3327 70.2155 56.4761 70.194 56.6197 70.0915C56.7838 69.9683 56.7837 69.8047 56.9068 69.6814C57.0299 69.5582 57.2143 69.5173 57.1939 69.2712C57.1731 69.1276 57.0503 69.0048 57.1529 68.8611C57.2965 68.6766 57.4801 68.7167 57.4185 68.4294C57.3981 68.3474 57.3365 68.3073 57.3365 68.2049C57.3365 68.1229 57.3775 68.0193 57.3775 67.9373C57.3979 67.7117 57.4185 67.4863 57.5006 67.2811C57.5827 67.0554 57.6647 66.8904 57.5006 66.7264C57.398 66.5623 57.1725 66.5204 57.0494 66.3768C56.9263 66.2332 56.9058 66.0283 56.8853 65.8435C56.8853 65.7203 56.8864 65.3926 56.7017 65.3514C56.5581 65.3106 56.4547 65.5782 56.3111 65.537C56.147 65.4958 56.2291 65.2693 56.2291 65.1463C56.2701 64.7975 56.3318 64.325 56.065 64.0174C55.8804 63.8122 55.6335 63.9759 55.4283 63.957C54.8333 63.8749 55.5923 63.4239 55.7565 63.2187C55.9001 63.0343 56.0034 62.8698 56.2291 62.9314C56.3933 62.9931 56.4957 63.1159 56.5572 63.2595C56.6804 63.5264 56.6597 63.8336 56.8033 64.1209C56.9675 64.4285 57.3169 64.5933 57.6041 64.7985C57.8708 64.9834 57.8491 65.1463 58.0338 65.3923C58.1774 65.5971 58.5268 65.8033 58.7525 65.7007C58.9577 65.5983 59.0815 65.31 59.3072 65.5972C59.3688 65.6792 59.4908 65.7427 59.5729 65.8043C59.696 65.9067 60.0865 66.0288 60.2096 66.0288C60.4353 65.988 60.4966 65.782 60.6197 65.6382C60.7839 65.4946 60.9684 65.414 60.8658 65.1675C60.7427 64.9622 60.3746 64.9622 60.4361 64.7163C60.4977 64.4082 60.9487 64.7767 61.1334 64.8179C61.3796 64.6743 61.1734 64.5114 61.276 64.3882C61.4401 64.1626 61.5015 64.5719 61.6861 64.6127C61.9323 64.6539 61.8716 64.4691 61.9947 64.3667C62.1794 64.2231 62.3443 64.5114 62.4264 64.2242C62.4674 64.1422 62.3033 64.0991 62.3443 64.0171C62.3648 63.9143 62.4458 63.8735 62.5279 63.8119C62.7946 63.6474 62.5699 63.5053 62.6314 63.3411C62.7054 63.1374 62.9293 63.0668 63.108 62.9193C63.0154 63.0202 62.9487 63.1861 62.8971 63.2375C62.856 63.3195 62.9381 63.4847 62.8971 63.5871C62.7329 63.8948 62.6724 64.1825 62.7955 64.5109C62.8365 64.6546 62.979 64.7562 63.0611 64.8586C63.2048 64.9607 63.2876 65.0654 63.4107 65.1671C63.5954 65.3107 63.6363 65.494 63.7389 65.6378C63.9236 65.8842 64.1489 66.1102 64.3541 66.3155C64.6824 66.6847 65.0523 67.0134 65.1139 67.5674C65.1343 67.8751 65.1959 68.2236 65.1959 68.5108C65.2163 68.5928 65.2368 69.0852 65.483 68.8801C65.5856 68.7773 65.3806 68.5112 65.401 68.3879C65.4626 68.1419 65.688 68.1007 65.8522 67.9368C65.9753 67.8136 66.0377 67.6703 66.1608 67.5675C66.366 67.4443 66.4263 67.3819 66.7135 67.3819L67.3092 67.2587C67.3092 67.5459 66.5906 67.5047 66.3854 67.6688C66.1597 67.8537 66.0154 68.385 65.6666 68.3661C65.523 68.6122 65.9539 68.7985 65.6666 69.2294C65.4204 69.5783 65.5855 69.8033 65.8522 70.1317C65.8932 70.1933 65.9353 70.233 65.9557 70.2742C66.0378 70.3971 66.0377 70.6034 66.0788 70.7469C66.1404 70.8697 66.0777 70.9537 66.0572 71.0553C66.0364 71.1578 66.0991 71.2401 66.0788 71.3425C66.0788 71.4041 66.0583 71.4658 66.1198 71.5478C66.161 71.671 66.2007 71.7118 66.1803 71.835C66.1803 71.9171 66.1607 71.9582 66.1607 72.0402C66.2017 72.2043 66.2838 72.3672 66.2017 72.552C66.2017 72.6136 66.1596 72.6143 66.1392 72.6555C66.1187 72.6744 66.14 72.7587 66.1195 72.7999C66.1195 72.9023 66.098 73.0452 66.1392 73.1476L66.4067 73.7023C66.5093 73.8663 66.6313 73.9896 66.7544 74.1535C66.8159 74.2563 66.8169 74.3799 66.8579 74.5031C66.9195 74.6672 66.899 74.8709 66.8579 75.0559C66.8375 75.0971 66.8158 75.179 66.7954 75.261C66.7338 75.3843 66.6724 75.5078 66.5903 75.6107C66.5287 75.6927 66.3863 75.794 66.4067 75.9172C66.3863 75.9992 66.4057 76.0831 66.4673 76.1243C66.5288 76.1655 66.6108 76.1859 66.6723 76.2475C66.7133 76.2664 66.7543 76.3106 66.7954 76.3295C66.9595 76.514 67.0414 76.7387 67.1235 76.9643C67.2056 77.2104 67.185 77.4366 67.1645 77.6831C67.1645 78.0115 67.1234 78.3596 67.3286 78.6264C67.3696 78.6673 67.4311 78.7493 67.4927 78.7905C67.5543 78.8313 67.5971 78.8929 67.6587 78.9545C67.7408 79.0365 67.8012 79.0989 67.8833 79.1809C67.9654 79.2629 68.0483 79.3234 68.1099 79.4054C68.2124 79.5286 68.2934 79.6318 68.3755 79.755C68.437 79.919 68.5405 80.0627 68.6431 80.2062C68.7662 80.3702 68.7046 80.5762 68.7662 80.7608C68.8277 80.8841 69.0327 80.8213 69.0943 80.9445C69.1356 81.0265 69.1344 81.1085 69.1548 81.1906C69.1958 81.2934 69.3598 81.3965 69.4419 81.4581C69.483 81.4993 69.6069 81.6426 69.6685 81.4994C69.6685 81.4586 69.6488 81.4166 69.6079 81.355C69.5871 81.2934 69.5852 81.2318 69.565 81.1498C69.5239 81.0062 69.5453 80.8421 69.4634 80.6986C69.3813 80.5754 69.3189 80.4526 69.2368 80.3294C69.1753 80.2269 69.0943 80.1869 69.0532 80.0228C69.0532 79.9408 69.0321 79.8361 69.0122 79.7337C69.0122 79.6721 68.9506 79.6128 68.9302 79.5716C68.8482 79.4075 68.8687 79.2219 68.8072 79.0579C68.8072 79.0171 68.7447 78.9346 68.7036 78.8938C68.6421 78.7706 68.5406 78.6674 68.479 78.5442C68.3969 78.3802 68.2944 78.1753 68.397 77.97C68.4791 77.8264 68.6636 77.7436 68.7662 77.6204C68.8688 77.4768 68.7037 77.332 68.6216 77.2298C68.4575 77.0861 68.5191 76.8802 68.6216 76.7161C68.7037 76.5521 68.8687 76.6114 68.9712 76.509C69.0535 76.3858 68.9909 76.2641 69.0728 76.1613C69.1343 76.0589 69.2163 75.9757 69.3599 75.9757C69.442 75.9757 69.5444 76.0358 69.606 76.0165C69.6881 75.9753 69.6685 75.8124 69.6685 75.7508C69.6685 75.566 69.7308 75.4643 69.9771 75.4832C70.2234 75.5244 70.2017 75.7712 70.2427 75.9149C70.3248 76.0789 70.4067 76.2633 70.5708 76.407C70.7555 76.5718 70.9399 76.3692 71.1451 76.3881C71.2271 76.3881 71.3706 76.3881 71.4322 76.4701C71.4937 76.5317 71.5563 76.633 71.5767 76.6946C71.659 76.9411 71.5366 77.2277 71.6802 77.4329C71.7418 77.5149 71.8637 77.6166 71.9868 77.5754C72.0689 77.5754 72.0903 77.5149 72.1314 77.4329C72.1724 77.3286 72.2133 77.3512 72.2954 77.31C72.398 77.31 72.4391 77.2685 72.4595 77.1869C72.5006 77.0228 72.1519 76.468 72.2544 76.5912C72.2748 76.6101 72.1314 76.3247 72.1314 76.099C72.1518 75.8117 72.0689 75.5045 71.9868 75.2376C71.9048 74.9092 71.9868 74.5797 72.0278 74.2513C72.0278 74.0256 71.9253 73.8218 71.9868 73.6166C72.0484 73.3705 72.0689 73.1041 72.0689 72.8373C72.0484 72.6936 71.9879 72.4876 72.0083 72.3236C72.0287 72.2416 72.0688 72.1811 72.1099 72.0991C72.233 71.8734 72.275 71.5464 72.1724 71.3412C72.1108 71.2388 71.9879 71.1753 71.9263 71.0521C71.8647 70.9293 71.8228 70.7845 71.7408 70.6615C71.6382 70.4767 71.6997 70.2926 71.7818 70.0873C71.8638 69.9229 71.9662 69.7789 71.9458 69.6147C71.9254 69.2862 71.8228 68.9985 71.7408 68.6908C71.7203 68.6088 71.6791 68.5287 71.6587 68.4466C71.5971 68.2618 71.5767 68.056 71.5767 67.892C71.5359 67.6867 71.5348 67.5216 71.5551 67.3373C71.5551 67.1729 71.556 67.0515 71.5355 66.8666C71.4944 66.723 71.3918 66.5578 71.3714 66.3939C71.351 66.2091 71.3714 66.0246 71.4534 65.8607C71.4944 65.7171 71.5365 65.5727 71.557 65.4291C71.557 65.3266 71.5774 65.183 71.557 65.0598C71.557 64.9982 71.516 64.9366 71.4749 64.8958C71.4134 64.7915 71.3705 64.7919 71.2679 64.7726C71.2063 64.7726 71.1449 64.7537 71.1038 64.7121C70.8987 64.6505 70.8382 64.4653 70.8382 64.2804C70.8382 64.0956 70.8382 63.8702 70.8792 63.7062C70.8996 63.6446 70.9408 63.6242 70.9612 63.583C71.0228 63.5214 71.0433 63.4367 70.9612 63.3955C70.8176 63.3728 70.6321 63.58 70.5296 63.4144C70.4885 63.3324 70.5084 63.2493 70.4886 63.188C70.4682 63.0648 70.4066 62.9609 70.2835 62.942C70.1809 62.9008 70.1615 62.8588 70.1819 62.7564C70.1819 62.6948 70.264 62.5935 70.305 62.5319C70.3871 62.4291 70.386 62.3055 70.3247 62.1823C70.2836 62.1207 70.1812 62.0387 70.2016 61.9771C70.222 61.9154 70.3461 61.8346 70.3461 61.7526C70.3257 61.5886 70.0794 61.5058 70.059 61.3209C70.059 61.2185 70.1 61.1361 70.1 61.0337C70.1 60.89 70.0582 60.7457 70.0785 60.602C70.1195 60.4996 70.2015 60.3979 70.2836 60.2955C70.3451 60.2543 70.3871 60.1919 70.3871 60.1099C70.3667 59.9663 70.3051 59.8639 70.3051 59.7407C70.2847 59.6383 70.3255 59.537 70.3051 59.4342C70.3051 59.3726 70.2632 59.3306 70.2835 59.2486C70.2835 59.1254 70.2639 59.0229 70.223 58.8793C70.2026 58.7769 70.1399 58.7345 70.1195 58.6529C70.0784 58.5093 70.0785 58.3876 70.0375 58.2642C69.9964 58.141 69.9555 58.0386 69.8734 57.9362C69.8118 57.8542 69.7512 57.8126 69.7308 57.7098C69.7308 57.5662 69.8949 57.4637 69.8128 57.3405C69.7718 57.2366 69.6684 57.2362 69.5863 57.2173C69.3196 57.0941 69.6477 56.7661 69.6273 56.6021C69.6273 56.5197 69.5668 56.438 69.5257 56.356C69.5049 56.2532 69.5668 56.15 69.4847 56.0884C69.4027 56.0268 69.3617 56.1074 69.3207 56.1705C69.2386 56.2733 69.2182 56.2736 69.2387 56.3969C69.2591 56.4585 69.2591 56.5394 69.2387 56.6214C69.2182 56.7057 69.1557 56.6852 69.0941 56.6025C68.9915 56.4588 68.9907 56.254 68.7445 56.1923C68.5804 56.1734 68.3764 56.1932 68.2328 56.2547C68.1097 56.2955 68.0473 56.4176 67.9652 56.4792C67.8831 56.6024 67.8227 56.7279 67.6586 56.7468C67.5149 56.7657 67.349 56.7279 67.2465 56.6217C67.1644 56.5192 67.2253 56.3756 67.2055 56.2524C67.2055 56.1704 67.1449 56.0661 67.0629 56.0472C66.8782 55.986 66.7962 56.2316 66.7758 56.3752C66.7554 56.5601 66.7543 56.7862 66.8774 56.971C66.9187 57.0734 66.9195 57.0938 66.9399 57.217C66.9603 57.299 67.0425 57.3402 67.0629 57.4223C67.0833 57.5251 67.0015 57.6479 67.0219 57.7503C67.0219 57.9148 67.104 58.0976 67.0219 58.221L66.9594 58.3031C66.8773 58.4671 66.7134 58.4281 66.5903 58.5102C66.4261 58.6126 66.2837 58.8575 66.0785 58.8988C65.9964 58.9215 65.812 58.9215 65.7094 58.8799C65.6273 58.861 65.5854 58.7393 65.4829 58.7393C65.4007 58.7204 65.4203 58.8009 65.4203 58.8625C65.4203 58.965 65.4614 59.0882 65.3793 59.1498C65.2972 59.2114 65.2153 59.2541 65.1332 59.273C65.0512 59.2919 64.9076 59.2737 65.0102 59.3765C65.0512 59.4586 65.1342 59.4585 65.1957 59.4997C65.2367 59.5186 65.2769 59.5602 65.2973 59.6014C65.3793 59.7038 65.2776 59.9295 65.2776 60.0526C65.2776 60.1758 65.2786 60.3413 65.3401 60.4647C65.4017 60.5263 65.4622 60.5868 65.5237 60.6484C65.6674 60.7712 65.8119 60.8944 65.8323 61.0996C65.8323 61.2024 65.8314 61.2852 65.7698 61.3672C65.7288 61.4492 65.6672 61.47 65.6468 61.5724C65.6264 61.6544 65.5853 61.716 65.5237 61.7776C65.339 62.024 65.1332 62.2091 64.887 62.3323C64.7844 62.3512 64.6214 62.4143 64.4983 62.4143C64.4163 62.4143 64.2522 62.3709 64.2112 62.4332C64.1704 62.4744 64.2101 62.5149 64.1896 62.5561C64.1896 62.5969 64.1685 62.6192 64.1486 62.6381C64.1282 62.7205 64.1487 62.7428 64.0666 62.6812C63.9845 62.64 63.9641 62.4767 63.8615 62.4956C63.8 62.5182 63.6769 62.64 63.6565 62.6812C63.5744 62.7428 63.4934 62.9053 63.3908 62.8864C63.2267 62.8864 63.2873 62.6593 63.2873 62.5565C63.2873 62.4745 63.307 62.3924 63.307 62.3104C63.307 62.1668 63.3285 62.0235 63.2873 61.9002C63.2669 61.8594 63.2463 61.8394 63.2053 61.7986C63.1643 61.737 63.2658 61.6754 63.225 61.5934C63.1429 61.4085 62.8147 61.1823 62.9379 60.9566C62.9789 60.895 63.0815 60.813 63.1019 60.7514C63.1223 60.6694 62.9789 60.6705 62.8969 60.6089C62.7942 60.5268 62.7338 60.4037 62.6722 60.3217C62.5697 60.2189 62.4672 60.1149 62.3851 59.9917C62.3441 59.9301 62.3032 59.6636 62.1801 59.6636C61.9954 59.7048 61.9945 60.0541 61.9945 60.1773C61.9945 60.3209 61.9954 60.4646 61.9749 60.6285C61.9545 60.6901 61.9945 60.853 62.0354 60.9351C62.0765 61.0171 62.1584 61.0375 62.2405 61.0991C62.2609 61.1403 62.3021 61.183 62.3225 61.2242C62.3429 61.2858 62.3644 61.3462 62.3441 61.4078C62.3237 61.5927 62.2006 61.737 62.0159 61.6754C61.9338 61.6346 61.8509 61.6339 61.7893 61.5311C61.6867 61.3875 61.6867 61.1633 61.6663 60.9784C61.6663 60.8347 61.6663 60.7304 61.6253 60.5662C61.5842 60.2174 61.7064 59.9307 61.4397 59.6639C61.3577 59.6026 61.3577 59.4794 61.3167 59.4178C61.2963 59.3762 61.297 59.3562 61.297 59.2946C61.256 59.1306 61.3595 59.1718 61.4005 59.0486C61.421 58.987 61.3596 58.9473 61.3185 58.9061C61.2568 58.8649 61.2345 58.8648 61.2345 58.7828C61.2141 58.7008 61.2561 58.5984 61.2149 58.5368C61.1739 58.4752 61.1122 58.4541 61.0918 58.3925C61.0303 58.2488 60.9484 58.1456 60.8457 58.0428C60.7431 57.9196 60.6398 57.8376 60.6602 57.6736C60.6602 57.5712 60.6817 57.4699 60.6817 57.3671C60.6817 57.2438 60.6808 57.2227 60.5782 57.1815C60.4756 57.1407 60.4142 57.121 60.3321 57.0798C60.2296 57.0186 60.1689 56.9365 60.1485 56.8337C60.1281 56.6693 60.2705 56.5851 60.4142 56.5662C60.5988 56.5046 60.7013 56.3817 60.6602 56.1969C60.6192 56.0945 60.5577 56.0328 60.4962 55.9508C60.4758 55.8896 60.4348 55.7868 60.4552 55.7048C60.5167 55.4996 60.6602 55.6024 60.8243 55.5408C60.9475 55.4792 60.8664 55.3151 60.8868 55.2127C60.9072 55.1099 61.0099 55.0475 61.0099 54.9451C61.0303 54.8015 60.9484 54.7002 60.8868 54.5974C60.8253 54.5154 60.7628 54.4538 60.8243 54.3513C60.8447 54.2077 60.9483 54.1461 61.0919 54.1461C61.215 54.1272 61.3165 54.1873 61.3575 54.0641C61.4191 53.9613 61.3996 53.899 61.297 53.7965C61.2354 53.7141 61.3174 53.6129 61.379 53.5308C61.4611 53.4246 61.5225 53.3868 61.6661 53.4057C61.7482 53.4057 61.8301 53.5289 61.9122 53.4877C61.9737 53.4469 62.0361 53.3249 62.0977 53.2632C62.1388 53.2016 62.2822 53.1604 62.2618 53.058C62.2207 52.976 62.1388 52.934 62.0977 52.8312C62.0773 52.8123 62.0148 52.6479 62.0762 52.5247C62.1583 52.4041 62.3838 52.4631 62.4863 52.5058C62.5889 52.5247 62.6914 52.5247 62.7735 52.5878C62.835 52.6067 62.9179 52.6725 63 52.6914C63.1026 52.7103 63.246 52.6725 63.3281 52.6914C63.4923 52.7103 63.5946 52.7734 63.7793 52.7734C63.8204 52.7545 63.8828 52.7299 63.9238 52.711C64.17 52.5262 64.1894 52.1975 64.2305 51.9103C64.2509 51.8075 64.2314 51.6858 64.334 51.6446C64.4981 51.583 64.5792 51.7674 64.5996 51.8906C64.6407 51.9934 64.6816 52.157 64.8047 52.2187C64.9073 52.2599 65.0312 52.2376 65.0723 52.1366C65.1338 51.911 64.9082 51.6446 65.0313 51.4394C65.1339 51.2754 65.2773 51.3162 65.3594 51.4205C65.421 51.5026 65.4013 51.6639 65.586 51.645C65.6475 51.6261 65.709 51.6049 65.75 51.5433C65.8321 51.4613 65.831 51.4009 65.9746 51.4009C66.1388 51.382 66.2002 51.442 66.2617 51.6061C66.2822 51.6881 66.2822 51.7898 66.2617 51.8718C66.2205 51.8907 66.2012 51.9126 66.2012 51.9538C66.2012 51.995 66.2627 52.1413 66.3242 52.1413C66.4884 52.1602 66.5693 51.7894 66.6309 51.6666C66.7335 51.3998 66.6112 51.1336 66.6112 50.8463C66.6112 50.7027 66.6111 50.5787 66.8163 50.5787C66.9189 50.6014 67.0213 50.6218 67.1034 50.6218C67.206 50.6626 67.329 50.6846 67.2675 50.5614C67.2059 50.4998 66.9393 50.2318 67.0624 50.0887C67.1444 50.0275 67.329 50.1113 67.3905 50.1299C67.4316 50.1488 67.6571 50.2342 67.7187 50.2531C67.9444 50.3147 68.2322 50.3351 68.4374 50.2531C68.7247 50.1299 68.6426 49.7826 68.5605 49.5773C68.5194 49.4337 68.3132 49.02 68.5801 49.0011C68.6622 49.0011 68.7852 49.1047 68.8262 49.1867C68.8878 49.2687 68.9502 49.3927 69.0118 49.4543C69.0733 49.5159 69.1563 49.5363 69.1563 49.4543C69.1767 49.3931 69.1347 49.2902 69.0938 49.2082C69.0322 49.0234 69.0118 48.7974 69.0118 48.6125C69.0118 48.5101 69.0109 48.4084 69.0314 48.306C69.0725 48.1412 69.1359 47.9768 69.2384 47.8334C69.341 47.7106 69.464 47.5862 69.5255 47.4427C69.546 47.2787 69.587 47.1147 69.5666 46.9506C69.5461 46.8274 69.3399 46.6021 69.422 46.4584C69.4424 46.4172 69.5247 46.4164 69.5451 46.3548C69.5864 46.2524 69.6076 46.1088 69.6076 45.9856C69.628 45.9036 69.7101 45.783 69.8127 45.8019C69.9153 45.8208 69.9962 45.9648 70.0783 46.0264C70.1604 46.0672 70.2228 46.1288 70.2638 46.1904C70.3254 46.252 70.4064 46.2724 70.4474 46.3136C70.509 46.3544 70.5501 46.3767 70.5705 46.3956C70.6321 46.4364 70.7345 46.4376 70.8166 46.4992C70.9397 46.5608 71.1251 46.5393 71.2482 46.4368C71.3919 46.2932 71.4542 46.15 71.4338 45.9447C71.3927 45.8627 71.4338 45.7394 71.3928 45.6574C71.3724 45.5958 71.2901 45.4934 71.2697 45.4522C71.1671 45.3909 71.0012 45.5951 70.8986 45.4934C70.8371 45.4318 70.8371 45.2882 70.7755 45.2061C70.7343 45.1241 70.7354 45.041 70.715 44.9794C70.6534 44.8566 70.5715 44.7549 70.5099 44.6729C70.3663 44.5292 70.1819 44.4464 69.9767 44.4464C69.8536 44.4464 69.7922 44.5088 69.6896 44.55C69.6075 44.5908 69.5461 44.5689 69.4435 44.55C69.2999 44.5273 69.217 44.3644 69.0939 44.2824C69.0529 44.2416 68.9904 44.18 68.9494 44.1184C68.929 44.0776 68.9282 44.0356 68.9084 44.0167C68.8468 43.9347 68.7649 43.8716 68.7033 43.8527C68.5802 43.8119 68.4377 43.8716 68.3146 43.8119C68.2736 43.793 68.2112 43.7503 68.1701 43.6887C68.006 43.5246 67.8011 43.3807 67.5959 43.4623C67.5549 43.4812 67.5139 43.5057 67.4728 43.5246C67.4113 43.5435 67.3078 43.5436 67.2463 43.5436C67.1437 43.5624 67.0422 43.5442 66.9396 43.5624C66.7139 43.6036 66.4876 43.5813 66.2619 43.5624C66.0567 43.5397 65.7298 43.4804 65.5451 43.5813C65.4425 43.6429 65.3381 43.7238 65.215 43.765C65.0714 43.7877 64.9289 43.7667 64.8264 43.8081C64.7033 43.8693 64.2923 43.9498 64.3127 43.765C64.3127 43.683 64.3138 43.6841 64.3343 43.5813C64.3343 43.4993 64.2728 43.4181 64.1702 43.437C64.1291 43.437 64.0872 43.4986 64.0257 43.5602C63.9846 43.6218 63.9027 43.6429 63.8206 43.7045C63.6974 43.7638 63.5531 43.7431 63.4299 43.7234C63.2042 43.7234 62.9789 43.7236 62.7737 43.6006C62.5275 43.4774 62.2406 43.5571 61.9944 43.5382C61.8303 43.5193 61.7474 43.4347 61.6448 43.3118C61.6037 43.271 61.5638 43.2094 61.5022 43.1478C61.4407 43.107 61.3783 43.0847 61.3167 43.0658C61.2757 43.0658 61.2562 43.0469 61.2151 43.0469C61.092 43.0061 61.0101 43.087 60.887 43.1486C60.7844 43.2298 60.64 43.2725 60.4964 43.2109C60.127 43.0061 59.5532 43.0068 59.2249 43.3145C58.8761 43.6221 58.0131 43.6622 57.7054 43.2521C57.6643 43.1701 57.5414 43.0877 57.4183 43.1289C57.2746 43.1478 57.2953 43.2714 57.2132 43.3534C57.0901 43.497 56.8861 43.3965 56.7835 43.2733C56.7014 43.2102 56.599 43.1913 56.4964 43.1913C56.3938 43.2102 56.3109 43.2328 56.1878 43.2517C56.0442 43.2706 55.9203 43.2517 55.7562 43.2517C55.6535 43.2328 55.5101 43.2328 55.387 43.2517C55.2844 43.2706 55.224 43.2952 55.0804 43.3141C54.8957 43.3368 54.7719 43.2756 54.5667 43.2952C54.4436 43.3368 54.2386 43.3383 54.1155 43.2763C54.013 43.2147 53.9516 43.1319 53.8285 43.0907C53.6643 43.0291 53.5414 42.9267 53.3773 42.8855C53.2131 42.8447 53.0277 42.8231 52.8636 42.7819C52.7405 42.7411 52.5765 42.7188 52.4534 42.6999C52.3098 42.681 52.1449 42.681 52.0218 42.5983C51.9808 42.5367 51.8998 42.4947 51.8382 42.4539C51.7972 42.3923 51.7757 42.331 51.7347 42.2898C51.6731 42.2282 51.5512 42.2101 51.4691 42.1689C51.2639 42.0665 51.0795 42.006 50.8948 41.9444C50.7512 41.9036 50.6273 41.8216 50.5042 41.7804C50.3811 41.7191 50.3207 41.7802 50.1976 41.8216C50.136 41.8404 50.0736 41.8624 50.012 41.9036C49.9916 41.9444 49.9086 42.0053 49.8675 42.0053C49.7649 41.9864 49.9096 41.7172 49.93 41.6556C49.9916 41.512 49.8675 41.308 49.8675 41.144C49.8883 41.0827 49.8675 41.0211 49.9085 40.9799C49.9701 40.9187 50.0315 40.8775 50.0726 40.8159C50.1341 40.7747 50.1772 40.6926 50.1976 40.6106C50.2591 40.4262 50.3002 40.2622 50.3206 40.0775C50.3617 39.7698 50.3411 39.4613 50.3206 39.1536C50.3002 39.0304 50.2983 38.9065 50.2367 38.804C50.2162 38.7424 50.1957 38.6804 50.1136 38.6615C50.0315 38.5999 49.9291 38.5172 49.9495 38.394C49.9495 38.2708 50.0325 38.1479 50.0941 38.0247C50.1556 37.9015 50.1545 37.8187 50.1137 37.6751C50.0933 37.5519 49.9916 37.4291 49.9711 37.3059C49.9301 37.2031 49.9908 37.0802 50.0317 36.9778C50.0933 36.8546 50.1547 36.7317 50.1958 36.6085C50.2368 36.4649 50.0932 36.3624 50.2368 36.2392C50.3394 36.1572 50.4028 36.0937 50.4028 35.9501C50.4028 35.8477 50.2778 35.7657 50.1958 35.7041C50.0727 35.5605 49.9702 35.7041 49.8266 35.7041C49.7856 35.7041 49.7455 35.7453 49.7251 35.7041C49.7046 35.6629 49.6832 35.5374 49.7035 35.5185C49.7651 35.3341 49.9086 35.212 49.8676 35.0067C49.8676 34.8631 49.7864 34.7188 49.766 34.5751C49.7456 34.5135 49.7045 34.4111 49.643 34.3699C49.5609 34.3083 49.4995 34.2682 49.4379 34.1862C49.3764 34.1042 49.3149 34.0419 49.2738 33.9598C49.1917 33.8982 49.1704 33.8155 49.0883 33.7743C49.0473 33.7331 49.0278 33.7554 48.9867 33.7743C48.9252 33.7932 48.8637 33.7932 48.8227 33.7932C48.6585 33.8344 48.7602 34.0196 48.7191 34.1428C48.7191 34.2248 48.5961 34.2059 48.5141 34.2248C48.432 34.266 48.3706 34.3068 48.309 34.348C48.0217 34.6352 48.6986 34.7571 48.8012 34.9007C48.9037 35.0647 48.8013 35.2692 48.5961 35.2503C48.4525 35.2314 48.1039 35.169 48.1449 35.4359C48.1653 35.4975 48.2269 35.5375 48.2269 35.6196C48.2473 35.7016 48.2054 35.7844 48.1644 35.846C48.0823 36.0512 48.0004 35.8271 47.9183 35.764C47.8362 35.7039 47.6323 35.6611 47.5707 35.7227C47.4681 35.8252 47.5083 35.8652 47.3442 35.8652C47.18 35.8463 47.2417 35.6407 47.1391 35.5587C47.057 35.4775 46.935 35.4964 46.8325 35.4964C46.6683 35.4964 46.4829 35.519 46.3598 35.4775C46.2162 35.4586 46.1333 35.3966 46.0102 35.3349C45.9281 35.2937 45.8881 35.2118 45.8266 35.1298C45.7856 35.0681 45.7231 35.0477 45.6821 35.0065C45.6 34.9041 45.5591 34.7994 45.477 34.7174C45.4154 34.6762 45.3755 34.6135 45.2934 34.5946C45.1703 34.5757 45.0268 34.5719 44.9242 34.5322C44.8011 34.4913 44.8002 34.3916 44.6977 34.3096C44.5746 34.1659 44.7192 33.9384 44.7192 33.7744C44.7192 33.7128 44.7389 33.6134 44.6977 33.5518C44.6773 33.4698 44.5952 33.4679 44.5336 33.4267C44.4105 33.3855 44.226 33.2219 44.3286 33.0986C44.4106 32.9958 44.5542 32.9747 44.4516 32.831C44.3285 32.7078 44.267 32.6258 44.3286 32.4618C44.4722 32.0513 44.3074 32.1557 43.9379 32.1746C43.7533 32.1746 43.5903 32.0918 43.4672 31.907C43.3236 31.7429 43.3443 31.6413 43.1801 31.8465C42.8108 32.2363 43.1184 32.4197 43.4672 32.6453C43.6519 32.7481 44.2672 33.0777 44.0415 33.2625C43.7542 33.4881 43.3238 32.8719 43.1391 33.0361C43.0776 33.241 43.4458 33.3026 43.3637 33.4873C43.2817 33.6305 43.0151 33.5693 42.9126 33.5061C42.81 33.4241 42.8111 33.0333 42.6469 33.2385C42.6059 33.3206 42.4195 33.6292 42.2348 33.547C42.1322 33.3417 42.0299 33.1766 41.8247 33.0743C41.7426 33.0335 41.7427 33.0743 41.6606 32.9923C41.5991 32.9511 41.5375 32.8702 41.5375 32.8086C41.4965 32.3983 40.6761 31.8839 40.8403 31.8223C40.9224 31.8034 41.0253 31.371 40.061 31.4122C39.9173 31.4122 39.8765 31.2277 39.8149 31.1249C39.7123 30.9197 39.6714 30.8777 39.4457 30.7753C39.2405 30.6521 39.1176 30.5712 39.1176 30.3457C39.1176 30.202 39.1988 29.9972 39.0961 29.8534C39.0537 29.7941 39.0084 29.7692 38.961 29.7677ZM61.8497 66.6349C61.8293 66.7169 61.8708 66.8196 61.83 66.8809C61.8096 66.9425 61.7059 66.9833 61.6855 67.0449L61.625 67.026C61.5429 67.1288 61.5225 67.1704 61.5429 67.2936C61.5634 67.4372 61.543 67.4361 61.4609 67.5593C61.4199 67.6617 61.4405 67.7661 61.5429 67.8677C61.666 67.9498 61.8711 67.9085 61.8711 68.1138V68.2778C61.9121 68.3394 61.9522 68.3814 61.9726 68.4634C61.993 68.525 61.9736 68.8514 62.0762 68.8326C62.1377 68.8326 62.1367 68.7499 62.1367 68.6883C62.1983 68.5855 62.3007 68.6089 62.4238 68.6278C62.5264 68.6467 62.5488 68.6671 62.5898 68.5847C62.631 68.5027 62.6298 68.3795 62.6095 68.2974C62.5891 68.2358 62.547 68.1743 62.547 68.0923C62.547 68.0511 62.588 67.991 62.588 67.9086C62.588 67.7238 62.4865 67.5805 62.3224 67.4984C62.0966 67.4164 62.1173 67.1692 62.0353 66.9847C62.0148 66.8615 61.9523 66.6965 61.8497 66.6349ZM58.8341 67.6544C58.6189 67.6846 58.5016 68.0274 58.4844 68.2149C58.4436 68.5022 58.4853 68.7695 58.4648 69.0567V69.1992C58.4444 69.3221 58.4436 69.4668 58.4238 69.5899C58.3827 69.7543 58.3203 69.8767 58.2383 70C58.1767 70.1436 58.0342 70.2472 57.9726 70.3907C57.9112 70.4931 57.9316 70.6971 57.9316 70.8203C57.9112 70.8819 57.9112 70.9443 57.9316 71.0059C58.0342 71.0248 58.0742 71.005 58.1562 70.9436C58.2588 70.8616 58.4023 70.6975 58.5254 70.6563C58.6075 70.6374 58.6698 70.6374 58.7519 70.5743C58.793 70.5127 58.8759 70.4511 58.9375 70.369C59.1427 70.1638 59.2451 69.877 59.3066 69.5897C59.327 69.3025 59.4083 68.9944 59.2441 68.748C59.162 68.6251 59.039 68.5031 59.039 68.3593C59.0186 68.2569 59.0399 68.1322 59.0194 68.0509C59.0194 67.9277 58.9579 67.8048 58.9784 67.6816C58.9303 67.659 58.8847 67.6514 58.8436 67.6552C58.8401 67.6555 58.8375 67.6539 58.8341 67.6544Z" fill="#FCEE23"/>
</svg>
