<svg width="62" height="35" viewBox="0 0 62 35" fill="none" xmlns="http://www.w3.org/2000/svg">
<g clip-path="url(#clip0_611_802)">
<mask id="mask0_611_802" style="mask-type:luminance" maskUnits="userSpaceOnUse" x="0" y="0" width="62" height="35">
<path d="M62 0H0V35H62V0Z" fill="white"/>
</mask>
<g mask="url(#mask0_611_802)">
<mask id="mask1_611_802" style="mask-type:luminance" maskUnits="userSpaceOnUse" x="0" y="0" width="62" height="35">
<path d="M62 0H0V35H62V0Z" fill="white"/>
</mask>
<g mask="url(#mask1_611_802)">
<mask id="mask2_611_802" style="mask-type:luminance" maskUnits="userSpaceOnUse" x="0" y="0" width="62" height="35">
<path d="M62 0H0V35H62V0Z" fill="white"/>
</mask>
<g mask="url(#mask2_611_802)">
<g opacity="0.1">
<mask id="mask3_611_802" style="mask-type:luminance" maskUnits="userSpaceOnUse" x="0" y="21" width="39" height="10">
<path d="M38.5782 21.688H0.126953V30.624H38.5782V21.688Z" fill="white"/>
</mask>
<g mask="url(#mask3_611_802)">
<path d="M38.0363 27.8089L1.06863 30.6207C0.550369 30.6555 0.126953 30.286 0.126953 29.7922V23.4627C0.126953 22.9722 0.550369 22.5662 1.06863 22.5497L38.0346 21.6881C38.3428 21.6831 38.5782 21.978 38.5782 22.3442V27.1063C38.5782 27.4791 38.3445 27.7906 38.0346 27.8105" fill="#221F1F"/>
</g>
</g>
<g opacity="0.1">
<mask id="mask4_611_802" style="mask-type:luminance" maskUnits="userSpaceOnUse" x="14" y="8" width="25" height="9">
<path d="M38.7006 8.32617H14.5303V16.1918H38.7006V8.32617Z" fill="white"/>
</mask>
<g mask="url(#mask4_611_802)">
<path d="M38.138 16.1916L15.3142 15.7012C14.8755 15.6879 14.5283 15.3201 14.5283 14.8677V9.08327C14.5283 8.63755 14.8755 8.29622 15.3142 8.3277L38.138 9.93495C38.4496 9.95649 38.6986 10.2779 38.6986 10.6524V15.5239C38.6986 15.9 38.4496 16.1999 38.138 16.1916Z" fill="#221F1F"/>
</g>
</g>
<g opacity="0.1">
<mask id="mask5_611_802" style="mask-type:luminance" maskUnits="userSpaceOnUse" x="12" y="14" width="27" height="9">
<path d="M38.3446 14.9739H12.9854V22.4219H38.3446V14.9739Z" fill="white"/>
</mask>
<g mask="url(#mask5_611_802)">
<path d="M37.7837 21.8537L13.7879 22.422C13.3492 22.4353 12.9834 22.074 12.9834 21.6217V15.7776C12.9834 15.3252 13.3475 14.9673 13.7879 14.974L37.7837 15.6368C38.0852 15.6467 38.3443 15.9582 38.3443 16.331V21.1644C38.3443 21.5355 38.0869 21.847 37.7837 21.8553" fill="#221F1F"/>
</g>
</g>
<path d="M38.0715 27.8086L2.50793 30.6205C2.01846 30.6553 1.60352 30.2858 1.60352 29.792V23.4624C1.60352 22.972 2.02016 22.566 2.50793 22.5494L38.0715 21.6878C38.3459 21.6828 38.5864 21.9778 38.5864 22.344V27.1061C38.5864 27.4789 38.3459 27.7904 38.0715 27.8103" fill="#4DC3CA"/>
<path d="M6.75126 28.2427L6.55141 27.7274L4.82387 27.8219L4.61555 28.3902C4.53595 28.6056 4.46143 28.7564 4.40723 28.8343C4.35473 28.9155 4.25311 28.9569 4.13116 28.9685C4.016 28.9768 3.92284 28.9403 3.83477 28.8658C3.7467 28.7912 3.70605 28.7001 3.70605 28.5973C3.70605 28.541 3.71791 28.4747 3.72977 28.4151C3.75517 28.3471 3.78227 28.261 3.83308 28.14L4.93566 25.2917C4.9763 25.2105 5.01356 25.1127 5.05421 24.9951C5.09317 24.8857 5.14059 24.7863 5.18971 24.7084C5.23713 24.6339 5.30826 24.5759 5.39295 24.5262C5.47255 24.4781 5.57078 24.4533 5.69272 24.4466C5.80959 24.44 5.9129 24.4582 5.99081 24.503C6.07041 24.5461 6.13138 24.604 6.1805 24.672C6.22792 24.7383 6.27873 24.8145 6.31261 24.8973C6.33801 24.9818 6.38374 25.0895 6.43455 25.2204L7.52696 27.908C7.62181 28.1085 7.66076 28.2576 7.66076 28.3488C7.66076 28.4449 7.6252 28.5426 7.53543 28.6255C7.4626 28.7183 7.36945 28.7614 7.25259 28.7713C7.17807 28.7746 7.12048 28.7663 7.07475 28.7465C7.02733 28.7249 6.99346 28.6951 6.9545 28.6503C6.92233 28.6156 6.89353 28.5493 6.85119 28.4697C6.81224 28.3852 6.78683 28.3123 6.75126 28.2427ZM5.04913 27.1541L6.33124 27.0911L5.68764 25.3563L5.04913 27.1541Z" fill="#137C79"/>
<path d="M9.86548 26.9122L9.10333 26.947V28.1367C9.10333 28.3024 9.07115 28.4349 8.98308 28.5261C8.91534 28.6222 8.81541 28.6719 8.69347 28.6719C8.56644 28.6835 8.46313 28.647 8.39369 28.5675C8.30731 28.4846 8.27344 28.3587 8.27344 28.1897V24.947C8.27344 24.7565 8.31409 24.6256 8.41062 24.5411C8.48684 24.4549 8.61895 24.4118 8.80355 24.4002L9.86548 24.3704C10.1771 24.3555 10.4024 24.3754 10.5717 24.4168C10.7377 24.4549 10.8732 24.5295 10.9952 24.6322C11.112 24.7383 11.2035 24.8692 11.2695 25.0249C11.3203 25.1823 11.3593 25.3563 11.3593 25.5518C11.3593 25.976 11.2272 26.2975 10.9833 26.5278C10.736 26.7581 10.3583 26.8873 9.86718 26.9138M9.65886 25.0133L9.10333 25.0365V26.3107L9.65886 26.2842C9.85871 26.2776 10.0213 26.2494 10.1399 26.2014C10.277 26.1533 10.3736 26.0804 10.4396 25.9793C10.5006 25.8832 10.5429 25.7573 10.5429 25.6048C10.5429 25.4193 10.4904 25.2751 10.3854 25.1658C10.2686 25.0481 10.023 24.9967 9.65716 25.0133" fill="#137C79"/>
<path d="M13.5269 26.7151L12.8156 26.7565V27.9097C12.8156 28.0771 12.7766 28.2047 12.7004 28.2908C12.6208 28.3869 12.5276 28.4333 12.4125 28.4416C12.3041 28.4416 12.2041 28.4118 12.133 28.3306C12.05 28.2494 12.0195 28.1301 12.0195 27.9595V24.8013C12.0195 24.6174 12.0585 24.4831 12.1449 24.4003C12.216 24.3241 12.3515 24.2777 12.5158 24.2744L13.5252 24.2396C13.8165 24.2247 14.0468 24.2445 14.2061 24.2843C14.3619 24.3257 14.4906 24.4003 14.6041 24.5014C14.7192 24.6041 14.8022 24.73 14.8598 24.8808C14.9174 25.0316 14.958 25.2023 14.958 25.3928C14.958 25.8004 14.8378 26.1219 14.5956 26.3439C14.3585 26.5659 14.0062 26.6886 13.5252 26.7151M13.3457 24.8609L12.8139 24.8858V26.1302L13.3457 26.1053C13.5184 26.1003 13.6709 26.0722 13.8013 26.0258C13.9181 25.9777 14.0214 25.9048 14.0756 25.812C14.14 25.7192 14.179 25.5966 14.179 25.4458C14.179 25.2669 14.1265 25.1227 14.0214 25.0117C13.9181 24.9024 13.6878 24.8526 13.344 24.8609" fill="#137C79"/>
<path d="M16.3233 24.5576V27.459L17.8256 27.3761C17.9493 27.3662 18.0339 27.3944 18.1017 27.4524C18.1677 27.5087 18.1915 27.5866 18.1915 27.681C18.1915 27.7821 18.1694 27.8583 18.1051 27.9213C18.0356 27.9859 17.9509 28.0207 17.8256 28.0306L16.0388 28.1383C15.8728 28.1532 15.7492 28.1184 15.6865 28.0455C15.6103 27.9726 15.5781 27.85 15.5781 27.6777V24.5875C15.5781 24.4284 15.6069 24.2992 15.6814 24.2196C15.739 24.1318 15.844 24.0904 15.9473 24.0854C16.0557 24.0788 16.1557 24.1202 16.2166 24.1981C16.2962 24.276 16.3233 24.3969 16.3233 24.5576Z" fill="#137C79"/>
<path d="M18.6992 27.5534V24.4698C18.6992 24.3058 18.7416 24.1865 18.8025 24.102C18.8669 24.0208 18.96 23.976 19.065 23.9727C19.1684 23.9711 19.2615 24.0075 19.3225 24.0854C19.3868 24.1616 19.4258 24.2776 19.4258 24.4416V27.512C19.4258 27.6793 19.3868 27.8003 19.3225 27.8848C19.2615 27.9643 19.1684 28.0107 19.065 28.0174C18.9617 28.0273 18.8686 27.9859 18.8025 27.9097C18.7416 27.8334 18.6992 27.7174 18.6992 27.5534Z" fill="#137C79"/>
<path d="M23.1503 26.4914C23.1503 26.6124 23.1198 26.745 23.0656 26.8924C23.0165 27.0382 22.9301 27.1774 22.8166 27.3232C22.7049 27.4641 22.5575 27.5801 22.3915 27.6795C22.2018 27.7772 21.9952 27.8319 21.7632 27.8468C21.5735 27.8568 21.4058 27.8501 21.2585 27.8203C21.1128 27.7905 20.9841 27.7375 20.8554 27.6646C20.73 27.5917 20.625 27.4906 20.5217 27.363C20.4218 27.247 20.3507 27.1161 20.2812 26.967C20.2118 26.8162 20.1644 26.6621 20.139 26.4898C20.1068 26.3257 20.0898 26.1418 20.0898 25.9496C20.0898 25.6398 20.1254 25.3564 20.2101 25.1046C20.2948 24.856 20.4167 24.6356 20.5658 24.4534C20.7182 24.2711 20.8859 24.1369 21.0925 24.0375C21.3008 23.9397 21.5091 23.8867 21.7412 23.8751C22.024 23.8635 22.2645 23.9165 22.483 24.0358C22.6981 24.1485 22.859 24.2943 22.9623 24.4733C23.0792 24.6489 23.1367 24.8162 23.1367 24.9803C23.1367 25.0631 23.1181 25.1443 23.0588 25.2123C23.0029 25.2868 22.9318 25.32 22.8573 25.3249C22.7641 25.3316 22.7032 25.3117 22.6524 25.262C22.61 25.2172 22.5643 25.1377 22.5084 25.0317C22.4271 24.8444 22.3204 24.7019 22.1917 24.6207C22.0799 24.5263 21.9224 24.4882 21.7446 24.4981C21.4566 24.5047 21.2331 24.6373 21.0552 24.8875C20.8825 25.1377 20.8012 25.4923 20.8012 25.9413C20.8012 26.2396 20.8367 26.4881 20.9197 26.687C20.9858 26.8792 21.0925 27.0184 21.2415 27.1145C21.3736 27.199 21.5379 27.2437 21.7141 27.2288C21.9224 27.2222 22.0833 27.1509 22.2306 27.0366C22.361 26.9156 22.4627 26.7466 22.5406 26.5345C22.5609 26.4318 22.5999 26.3473 22.6507 26.281C22.6913 26.2131 22.754 26.1799 22.859 26.1766C22.9318 26.1716 23.008 26.1998 23.0673 26.2562C23.1215 26.3208 23.152 26.4003 23.152 26.4914" fill="#137C79"/>
<path d="M25.8604 27.1011L25.7046 26.6421L24.3666 26.7167L24.2091 27.2121C24.16 27.4026 24.1058 27.5335 24.055 27.6064C24.0076 27.676 23.9466 27.7075 23.8467 27.7158C23.7518 27.7257 23.6858 27.6893 23.618 27.628C23.5452 27.5551 23.5215 27.4789 23.5215 27.3927C23.5215 27.3413 23.53 27.285 23.535 27.2287C23.5537 27.174 23.5841 27.0978 23.618 26.9967L24.4716 24.5046C24.4852 24.4301 24.5207 24.3472 24.5529 24.2494C24.5817 24.1484 24.6258 24.0655 24.663 23.9959C24.6935 23.9313 24.7443 23.875 24.8121 23.8369C24.8764 23.7921 24.9442 23.7689 25.0424 23.7689C25.1372 23.7673 25.2033 23.7822 25.2677 23.8203C25.3337 23.8567 25.3828 23.9048 25.4167 23.9711C25.459 24.0274 25.4895 24.0987 25.5132 24.1699C25.5437 24.2378 25.5691 24.3306 25.6165 24.4549L26.4498 26.8144C26.5176 26.9917 26.5515 27.121 26.5515 27.2005C26.5515 27.2883 26.5193 27.3712 26.4566 27.4457C26.3939 27.5203 26.3262 27.5584 26.2398 27.565C26.1856 27.57 26.1365 27.5584 26.1009 27.5418C26.0721 27.5269 26.0315 27.4987 26.0146 27.4606C25.9824 27.4292 25.9637 27.3761 25.9282 27.3016C25.9045 27.2253 25.874 27.1607 25.8638 27.1027M24.5512 26.1384L25.5234 26.0854L25.0424 24.5659L24.5529 26.1384H24.5512Z" fill="#137C79"/>
<path d="M28.6789 24.3092L27.993 24.3357V26.9968C27.993 27.1509 27.954 27.2702 27.9015 27.3497C27.8473 27.4276 27.766 27.4673 27.6763 27.4756C27.5848 27.4789 27.5001 27.4491 27.4375 27.3779C27.3816 27.3016 27.3511 27.1939 27.3511 27.0415V24.3638L26.6533 24.3937C26.5466 24.3986 26.4551 24.3738 26.3993 24.3191C26.3468 24.2628 26.3281 24.1899 26.3281 24.0987C26.3281 23.9977 26.3484 23.9231 26.4043 23.8701C26.4602 23.8104 26.55 23.7773 26.6533 23.7723L28.6789 23.7011C28.7822 23.6961 28.8669 23.7209 28.9211 23.7773C28.9736 23.832 28.9906 23.9032 28.9906 23.9977C28.9906 24.0921 28.9719 24.16 28.9177 24.2213C28.8635 24.2777 28.7822 24.3059 28.6772 24.3108" fill="#137C79"/>
<path d="M29.3955 26.919V24.0574C29.3955 23.9116 29.4158 23.7956 29.4717 23.7194C29.5293 23.6432 29.6106 23.6084 29.7004 23.6018C29.7851 23.5985 29.8714 23.6349 29.9273 23.7062C29.9815 23.7741 30.012 23.8884 30.012 24.0342V26.8792C30.012 27.0284 29.9815 27.1444 29.9273 27.2222C29.8714 27.3001 29.7851 27.3399 29.7004 27.3465C29.614 27.3498 29.5344 27.3183 29.4734 27.2487C29.4175 27.1725 29.3955 27.0665 29.3955 26.919Z" fill="#137C79"/>
<path d="M32.0047 23.5171C32.3078 23.5104 32.5687 23.5734 32.7871 23.7159C32.9955 23.8584 33.1564 24.0622 33.2664 24.3257C33.3816 24.5991 33.4358 24.9139 33.4358 25.2851C33.4358 25.5535 33.4087 25.8004 33.3494 26.0274C33.2868 26.256 33.2021 26.4565 33.0751 26.6239C32.9463 26.7912 32.799 26.9288 32.6279 27.0265C32.4467 27.1226 32.2435 27.1806 32.0047 27.1972C31.7845 27.2121 31.5796 27.1773 31.3848 27.0994C31.2103 27.0199 31.0562 26.9039 30.9258 26.7465C30.8106 26.5874 30.7073 26.3969 30.6531 26.1699C30.5871 25.9412 30.5498 25.6943 30.5498 25.4193C30.5498 25.1442 30.5905 24.889 30.6531 24.6571C30.7124 24.4284 30.8106 24.2263 30.9377 24.0572C31.0698 23.8949 31.2205 23.7673 31.3916 23.6695C31.5779 23.5817 31.776 23.532 32.0047 23.5204M32.8363 25.3116C32.8363 25.0514 32.8058 24.8327 32.7329 24.6422C32.6737 24.4549 32.5788 24.3174 32.4416 24.2279C32.318 24.1318 32.1639 24.092 32.0064 24.0987C31.8861 24.0987 31.7709 24.1302 31.6693 24.1915C31.5711 24.2511 31.4864 24.329 31.4068 24.435C31.3323 24.5444 31.2781 24.6819 31.229 24.8426C31.1883 25.01 31.1748 25.1939 31.1748 25.3961C31.1748 25.5982 31.1883 25.7772 31.229 25.9412C31.2781 26.1052 31.3323 26.2345 31.4153 26.3356C31.4864 26.4416 31.5846 26.5145 31.6846 26.5642C31.7845 26.6156 31.8929 26.6355 32.0064 26.6272C32.1639 26.6139 32.3078 26.5642 32.423 26.4615C32.5568 26.3604 32.6567 26.2146 32.7346 26.0224C32.8007 25.8252 32.8379 25.5899 32.8379 25.3099" fill="#137C79"/>
<path d="M34.6832 23.8486L35.7756 25.8436V23.7906C35.7756 23.6581 35.8027 23.5553 35.8502 23.4857C35.8942 23.4161 35.9569 23.3847 36.0263 23.3813C36.1127 23.378 36.1652 23.4095 36.2177 23.4725C36.2685 23.5371 36.2871 23.6382 36.2871 23.7674V26.4732C36.2871 26.7731 36.1889 26.9322 35.9907 26.9438C35.9416 26.9455 35.8976 26.9438 35.8536 26.9256C35.8095 26.9156 35.7756 26.8875 35.7435 26.846C35.6994 26.8146 35.6723 26.7665 35.6452 26.7168C35.6063 26.6654 35.5826 26.6157 35.5419 26.5644L34.4851 24.5926V26.6406C34.4851 26.7682 34.4512 26.8692 34.4021 26.9455C34.353 27.0184 34.2954 27.0532 34.2124 27.0598C34.1396 27.0664 34.0684 27.0349 34.0227 26.972C33.9736 26.9007 33.9414 26.8013 33.9414 26.6671V23.9712C33.9414 23.8519 33.955 23.7658 33.9821 23.6945C33.9973 23.6216 34.0379 23.5653 34.0938 23.5139C34.1531 23.4675 34.2175 23.4426 34.2886 23.441C34.3394 23.4377 34.3818 23.4493 34.4139 23.4675C34.4546 23.4874 34.4885 23.5156 34.5054 23.5487C34.546 23.5868 34.5647 23.6282 34.6019 23.6829C34.6223 23.7392 34.6612 23.7939 34.6866 23.8519" fill="#137C79"/>
<path d="M6.53871 28.0374L6.33039 27.5138L4.60285 27.6083L4.39622 28.1749C4.30476 28.392 4.25057 28.5461 4.1896 28.6207C4.13201 28.7002 4.04055 28.7483 3.89998 28.7532C3.7882 28.7615 3.69166 28.7234 3.61375 28.6488C3.52399 28.5743 3.47656 28.4881 3.47656 28.3854C3.47656 28.3224 3.48672 28.2644 3.51552 28.1981C3.52568 28.1385 3.56802 28.0424 3.61544 27.933L4.7231 25.0715C4.75528 24.9903 4.78746 24.8925 4.83149 24.7831C4.87892 24.6638 4.93142 24.5727 4.98223 24.4965C5.03473 24.4219 5.08554 24.354 5.177 24.3059C5.24983 24.2579 5.34637 24.233 5.47001 24.2264C5.59703 24.2248 5.69526 24.2463 5.76978 24.2861C5.85786 24.3258 5.91713 24.3838 5.96964 24.4518C6.02045 24.5296 6.0611 24.6042 6.08819 24.6821C6.12376 24.7633 6.17457 24.8743 6.22707 25.0118L7.32118 27.6994C7.40417 27.9032 7.44313 28.0507 7.44313 28.1418C7.44313 28.2412 7.40925 28.3373 7.32118 28.4185C7.24666 28.5097 7.15182 28.5527 7.03157 28.5643C6.96043 28.5676 6.90454 28.5577 6.85373 28.5378C6.8097 28.5179 6.77243 28.4881 6.74703 28.445C6.70469 28.4069 6.6742 28.344 6.64372 28.2628C6.5946 28.1783 6.56919 28.1037 6.5404 28.0391M4.82641 26.9455L6.11191 26.8809L5.46154 25.1427L4.82641 26.9471V26.9455Z" fill="white"/>
<path d="M9.65377 26.7068L8.88992 26.7399V27.9313C8.88992 28.0986 8.85605 28.2295 8.77475 28.319C8.69854 28.4151 8.60369 28.4664 8.47667 28.4681C8.35981 28.478 8.2548 28.4433 8.17689 28.3604C8.09898 28.2759 8.05664 28.15 8.05664 27.9843V24.73C8.05664 24.5477 8.09729 24.4102 8.19213 24.3224C8.26665 24.2445 8.40892 24.1931 8.58845 24.1931L9.65377 24.155C9.9654 24.1418 10.194 24.1633 10.3651 24.2031C10.5294 24.2445 10.6666 24.3207 10.7902 24.4235C10.9054 24.5245 10.9985 24.6571 11.0629 24.8128C11.1137 24.9703 11.1544 25.1442 11.1544 25.3398C11.1544 25.7656 11.0206 26.0887 10.775 26.3174C10.5294 26.5477 10.15 26.6769 9.65546 26.7034M9.45222 24.7996L8.89162 24.8195V26.102L9.45222 26.0755C9.64869 26.0639 9.81128 26.0357 9.93153 25.9893C10.0704 25.9429 10.1669 25.8716 10.233 25.7706C10.294 25.6695 10.3363 25.5452 10.3363 25.3928C10.3363 25.2105 10.2838 25.063 10.1788 24.957C10.0619 24.8344 9.81636 24.7814 9.45053 24.7996" fill="white"/>
<path d="M13.3328 26.5164L12.6163 26.5561V27.7094C12.6163 27.8801 12.5689 28.0076 12.5046 28.0938C12.4199 28.1899 12.3301 28.2363 12.2132 28.2429C12.1032 28.2496 11.9981 28.2164 11.9321 28.1352C11.8525 28.0524 11.8203 27.9331 11.8203 27.7641V24.5993C11.8203 24.4137 11.8525 24.2811 11.9456 24.1999C12.0185 24.1221 12.154 24.074 12.3166 24.074L13.3328 24.0359C13.619 24.0243 13.8561 24.0425 14.0119 24.084C14.1694 24.1237 14.2948 24.1983 14.4133 24.301C14.5285 24.4021 14.6081 24.5297 14.6691 24.6821C14.7317 24.8346 14.752 25.0052 14.752 25.1925C14.752 25.605 14.647 25.9248 14.3981 26.1469C14.166 26.3689 13.8104 26.4932 13.3328 26.518M13.1414 24.6589L12.6146 24.6838V25.9282L13.1414 25.9033C13.3243 25.9 13.4767 25.8718 13.6071 25.8271C13.7189 25.7757 13.8155 25.7061 13.8781 25.6117C13.9459 25.5189 13.973 25.3963 13.973 25.2438C13.973 25.0649 13.9222 24.9224 13.8256 24.813C13.7121 24.702 13.492 24.6506 13.1414 24.6606" fill="white"/>
<path d="M16.1388 24.3589V27.2668L17.6445 27.1774C17.7631 27.174 17.8562 27.1989 17.9223 27.2569C17.9714 27.3199 18.0137 27.3977 18.0137 27.4889C18.0137 27.58 17.9731 27.6645 17.9223 27.7341C17.8579 27.7937 17.7648 27.8319 17.6445 27.8352L15.8441 27.9478C15.6849 27.9611 15.5613 27.928 15.4817 27.855C15.4173 27.7805 15.375 27.6562 15.375 27.4789V24.3887C15.375 24.2263 15.4173 24.0971 15.4783 24.0175C15.5494 23.933 15.6358 23.8883 15.7493 23.885C15.8662 23.8783 15.9542 23.9198 16.0288 23.9943C16.1016 24.0722 16.1388 24.1981 16.1388 24.3589Z" fill="white"/>
<path d="M18.5205 27.3646V24.2744C18.5205 24.112 18.5476 23.9927 18.6187 23.9065C18.6916 23.8237 18.7695 23.7822 18.8762 23.7773C18.988 23.7723 19.0709 23.8121 19.1438 23.8883C19.2132 23.9645 19.2403 24.0838 19.2403 24.2478V27.3248C19.2403 27.4822 19.2132 27.6049 19.1438 27.691C19.0709 27.7788 18.9897 27.8203 18.8762 27.8302C18.7712 27.8352 18.6933 27.8004 18.6187 27.7225C18.5459 27.6446 18.5205 27.527 18.5205 27.3646Z" fill="white"/>
<path d="M22.9674 26.3092C22.9674 26.4301 22.9504 26.5627 22.8979 26.7085C22.8454 26.8493 22.7557 26.9968 22.6506 27.136C22.5355 27.2768 22.3915 27.4011 22.2035 27.4956C22.0257 27.5883 21.8191 27.6463 21.5769 27.6563C21.4024 27.6729 21.2364 27.6613 21.0891 27.6314C20.9367 27.6049 20.7927 27.5552 20.6741 27.479C20.5539 27.4028 20.437 27.3 20.3354 27.1741C20.249 27.0565 20.1593 26.9256 20.1051 26.7781C20.0373 26.6339 19.9899 26.4716 19.9476 26.3042C19.9188 26.1302 19.8984 25.9529 19.8984 25.7557C19.8984 25.4442 19.9476 25.1626 20.0272 24.909C20.1068 24.6605 20.2236 24.4484 20.3777 24.2661C20.5285 24.0839 20.7165 23.943 20.9163 23.842C21.1196 23.7459 21.3381 23.6928 21.5616 23.6895C21.836 23.6779 22.0816 23.7326 22.2984 23.8453C22.5135 23.9662 22.6811 24.1104 22.7963 24.286C22.9115 24.4617 22.9623 24.6323 22.9623 24.7897C22.9623 24.8825 22.9352 24.9604 22.8793 25.0333C22.8234 25.0996 22.754 25.141 22.6811 25.141C22.5998 25.141 22.5304 25.1228 22.4864 25.0797C22.4423 25.0383 22.3932 24.9587 22.339 24.8428C22.2425 24.6572 22.1341 24.523 22.0257 24.4302C21.897 24.3424 21.7496 24.3009 21.5616 24.3059C21.2855 24.3208 21.0467 24.4517 20.8842 24.7036C20.7114 24.9521 20.6267 25.3001 20.6267 25.7524C20.6267 26.0573 20.6657 26.3025 20.7317 26.4948C20.8147 26.6919 20.9248 26.8377 21.0552 26.9239C21.1958 27.02 21.355 27.0548 21.5481 27.0482C21.7445 27.0349 21.9173 26.972 22.0477 26.8493C22.1849 26.7334 22.2899 26.566 22.3576 26.3456C22.3932 26.2446 22.4305 26.1584 22.4677 26.0954C22.5067 26.0308 22.5846 25.996 22.676 25.9877C22.754 25.9828 22.8251 26.0126 22.8861 26.0772C22.947 26.1335 22.9674 26.2147 22.9674 26.3125" fill="white"/>
<path d="M25.686 26.9189L25.5302 26.4616L24.2058 26.5361L24.0449 27.0233C23.9805 27.2221 23.928 27.3514 23.8874 27.4193C23.8467 27.4839 23.7671 27.527 23.6689 27.5287C23.5859 27.5336 23.5063 27.5021 23.4368 27.4359C23.3759 27.3729 23.3369 27.295 23.3369 27.1989C23.3369 27.1475 23.3488 27.0945 23.3691 27.0432C23.3759 26.9868 23.408 26.9073 23.4368 26.8062L24.2938 24.3108C24.3125 24.2412 24.3463 24.1518 24.3751 24.054C24.4141 23.9562 24.4513 23.8701 24.4818 23.8055C24.5191 23.7375 24.575 23.6878 24.6343 23.6398C24.6986 23.5983 24.7833 23.5785 24.8731 23.5751C24.9578 23.5685 25.039 23.5851 25.0949 23.6282C25.1559 23.663 25.2067 23.7143 25.2474 23.7756C25.2897 23.8403 25.3117 23.9049 25.3473 23.9745C25.3659 24.0441 25.4049 24.1451 25.4455 24.2611L26.2873 26.6256C26.3483 26.8046 26.3889 26.9371 26.3889 27.0183C26.3889 27.0995 26.3499 27.1823 26.2873 27.2569C26.2348 27.3331 26.1535 27.3746 26.0705 27.3779C26.018 27.3828 25.9756 27.3762 25.9299 27.3563C25.8977 27.3381 25.8723 27.3099 25.8402 27.2751C25.8215 27.2453 25.7876 27.1906 25.7673 27.1177C25.7284 27.0432 25.7131 26.9752 25.686 26.9189ZM24.3717 25.9529L25.3524 25.9015L24.8663 24.3771L24.3717 25.9529Z" fill="white"/>
<path d="M28.523 24.1237L27.8269 24.1502V26.8179C27.8269 26.9703 27.7964 27.0913 27.7439 27.1692C27.6847 27.2471 27.6 27.2868 27.5102 27.2951C27.4204 27.3001 27.3324 27.2669 27.2782 27.194C27.224 27.1228 27.185 27.0101 27.185 26.8577V24.1734L26.4906 24.2032C26.3805 24.2082 26.2874 24.1833 26.2383 24.127C26.1841 24.0723 26.1553 23.9977 26.1553 23.9083C26.1553 23.8188 26.1858 23.7359 26.2383 23.6763C26.2908 23.6166 26.3839 23.5885 26.4906 23.5885L28.523 23.5139C28.6297 23.5139 28.7042 23.5371 28.7567 23.5885C28.8126 23.6448 28.838 23.7177 28.838 23.8138C28.838 23.9 28.8092 23.9762 28.7567 24.0342C28.7025 24.0939 28.6297 24.1237 28.5247 24.1237" fill="white"/>
<path d="M29.2344 26.74V23.8751C29.2344 23.7276 29.253 23.6149 29.3123 23.5387C29.3716 23.4641 29.4529 23.4227 29.5392 23.4194C29.6273 23.4161 29.7103 23.4509 29.7696 23.5205C29.8221 23.5901 29.8509 23.7061 29.8509 23.8535V26.7018C29.8509 26.851 29.8238 26.9686 29.7696 27.0448C29.7103 27.1244 29.6273 27.1625 29.5392 27.1708C29.4529 27.1741 29.3733 27.1409 29.314 27.073C29.2547 26.9968 29.2344 26.8907 29.2344 26.7416" fill="white"/>
<path d="M31.8506 23.3398C32.1555 23.3332 32.418 23.3962 32.628 23.537C32.8431 23.6795 33.0057 23.8866 33.1192 24.1517C33.2344 24.4235 33.2902 24.7383 33.2902 25.1095C33.2902 25.3795 33.2513 25.6281 33.2022 25.8518C33.1378 26.0788 33.0447 26.2809 32.9278 26.4499C32.7974 26.6173 32.6483 26.7548 32.4756 26.8509C32.2978 26.9487 32.0945 27.0067 31.8557 27.0183C31.6321 27.0365 31.4255 27.0001 31.2324 26.9205C31.058 26.8393 30.9022 26.725 30.7718 26.5659C30.6549 26.4085 30.5516 26.2163 30.4974 25.9877C30.4313 25.7606 30.3975 25.5121 30.3975 25.2404C30.3975 24.9686 30.433 24.7052 30.5008 24.4765C30.5584 24.2429 30.6549 24.044 30.7836 23.8734C30.9157 23.7126 31.0665 23.5834 31.2375 23.4856C31.4238 23.3978 31.6254 23.3481 31.8523 23.3398M32.6856 25.136C32.6856 24.8742 32.6551 24.6521 32.5823 24.4632C32.5264 24.276 32.4214 24.1368 32.2927 24.0457C32.164 23.9496 32.0115 23.9082 31.8523 23.9164C31.7321 23.9198 31.6186 23.9496 31.5187 24.0092C31.417 24.0705 31.3324 24.1468 31.2511 24.2545C31.1732 24.3622 31.124 24.5014 31.0698 24.6621C31.0309 24.8311 31.0173 25.0117 31.0173 25.2155C31.0173 25.4193 31.0292 25.5983 31.0698 25.7606C31.124 25.9263 31.1732 26.0539 31.2612 26.1567C31.3324 26.2644 31.4306 26.3389 31.5288 26.3853C31.6305 26.4367 31.7405 26.4599 31.8506 26.4499C32.0047 26.4367 32.1504 26.3853 32.269 26.2826C32.4045 26.1865 32.5027 26.039 32.5772 25.8468C32.6517 25.648 32.6839 25.4143 32.6839 25.1343" fill="white"/>
<path d="M34.5418 23.6712L35.6325 25.6711V23.6132C35.6325 23.4806 35.6477 23.3812 35.6968 23.3083C35.7477 23.2404 35.8002 23.2072 35.8882 23.2056C35.9611 23.2056 36.0254 23.2304 36.0711 23.2984C36.1186 23.358 36.1491 23.4607 36.1491 23.5916V26.3024C36.1491 26.604 36.0491 26.7614 35.8493 26.7713C35.7985 26.7747 35.7477 26.768 35.7036 26.7548C35.6647 26.7382 35.6325 26.7134 35.5918 26.6736C35.5529 26.6355 35.5275 26.5924 35.4885 26.541C35.4648 26.4897 35.436 26.44 35.3971 26.382L34.3368 24.4168V26.4582C34.3368 26.5924 34.3047 26.6951 34.2522 26.7647C34.203 26.8376 34.137 26.8774 34.0642 26.884C33.9795 26.889 33.9185 26.8592 33.8694 26.7879C33.822 26.7233 33.7881 26.6272 33.7881 26.4913V23.7872C33.7881 23.6695 33.8033 23.5834 33.8237 23.5138C33.8457 23.4409 33.8829 23.3795 33.9405 23.3315C34.0015 23.2851 34.0675 23.2602 34.1353 23.2586C34.1861 23.2553 34.2301 23.2669 34.2606 23.2851C34.2945 23.305 34.3368 23.3298 34.3555 23.3663C34.3927 23.4027 34.413 23.4458 34.4486 23.5038C34.474 23.5585 34.4994 23.6115 34.5418 23.6695" fill="white"/>
<path d="M38.1516 16.1916L16.2085 15.7012C15.7919 15.6879 15.4531 15.3201 15.4531 14.8677V9.08327C15.4531 8.63755 15.7919 8.29622 16.2085 8.3277L38.1516 9.93495C38.4514 9.95649 38.7004 10.2779 38.7004 10.6524V15.5239C38.7004 15.9 38.4514 16.1999 38.1516 16.1916Z" fill="#624EA0"/>
<path d="M18.7541 13.7063L18.1799 11.1811V13.8985C18.1799 14.0493 18.141 14.1586 18.0783 14.2332C18.0258 14.3078 17.9377 14.3376 17.8361 14.3343C17.7396 14.3343 17.6617 14.2929 17.599 14.2166C17.5347 14.1404 17.5059 14.0294 17.5059 13.877V10.7486C17.5059 10.573 17.5465 10.4603 17.621 10.4023C17.7142 10.346 17.8192 10.3244 17.9631 10.3344L18.1799 10.346C18.3256 10.3559 18.4221 10.3725 18.4865 10.404C18.5458 10.4371 18.5932 10.4885 18.6135 10.5564C18.6491 10.6277 18.683 10.747 18.7117 10.9044L19.2317 13.07L19.7449 10.959C19.794 10.805 19.8228 10.6989 19.8431 10.6277C19.8804 10.563 19.9227 10.52 19.9854 10.4951C20.0464 10.4686 20.1412 10.4653 20.2665 10.4686L20.4867 10.4835C20.6256 10.4934 20.7289 10.5266 20.8136 10.5929C20.883 10.6525 20.9338 10.7718 20.9338 10.9375V13.9946C20.9338 14.1388 20.8949 14.2514 20.8322 14.321C20.778 14.3923 20.7001 14.4287 20.6019 14.4238C20.5121 14.4188 20.4274 14.384 20.3648 14.3078C20.3123 14.2315 20.275 14.1172 20.275 13.9714V11.2904L19.7178 13.7444C19.6856 13.9018 19.645 14.0211 19.6314 14.0957C19.5992 14.1686 19.5586 14.2332 19.4925 14.2962C19.4282 14.3591 19.3469 14.384 19.2334 14.384C19.1572 14.3807 19.0776 14.3591 19.0183 14.3127C18.9624 14.273 18.915 14.2199 18.8879 14.157C18.8591 14.0924 18.8252 14.0244 18.8049 13.9465C18.7947 13.872 18.7676 13.7891 18.7558 13.7046" fill="#423087"/>
<path d="M23.1389 10.5763C23.481 10.5979 23.7909 10.6973 24.0348 10.8729C24.2736 11.0436 24.4701 11.2822 24.5836 11.5788C24.7191 11.8737 24.7817 12.225 24.7817 12.6127C24.7817 12.906 24.7394 13.1645 24.6784 13.3998C24.609 13.6367 24.5074 13.8389 24.3668 14.0062C24.2228 14.1819 24.0552 14.3094 23.8485 14.3906C23.6453 14.4801 23.4217 14.5149 23.1575 14.5116C22.8933 14.4983 22.6477 14.442 22.4411 14.3376C22.2328 14.2332 22.0617 14.094 21.9211 13.9134C21.7687 13.7295 21.6637 13.5191 21.5993 13.2656C21.5181 13.012 21.4893 12.742 21.4893 12.4537C21.4893 12.1653 21.5214 11.8936 21.6061 11.6467C21.6722 11.4098 21.7823 11.206 21.9228 11.0369C22.0803 10.8762 22.2412 10.7503 22.4445 10.6724C22.6511 10.5962 22.8831 10.5647 23.1389 10.5763ZM24.106 12.5796C24.106 12.2996 24.0569 12.0593 23.9891 11.8505C23.8993 11.6434 23.7943 11.486 23.6419 11.375C23.4963 11.259 23.3286 11.201 23.1406 11.1877C23.0119 11.1794 22.8781 11.206 22.7595 11.2573C22.6528 11.307 22.5478 11.3833 22.4614 11.4893C22.3852 11.597 22.3141 11.7378 22.2667 11.9085C22.2209 12.0759 22.187 12.273 22.187 12.4851C22.187 12.6972 22.2192 12.9027 22.2667 13.0816C22.3141 13.2589 22.3886 13.4047 22.4699 13.5224C22.5563 13.6467 22.6579 13.7328 22.7748 13.7991C22.8933 13.8554 23.0186 13.8902 23.1575 13.8969C23.3303 13.9018 23.4844 13.8554 23.6368 13.7676C23.7791 13.6715 23.896 13.524 23.9756 13.3219C24.0585 13.1231 24.1077 12.8762 24.1077 12.5796" fill="#423087"/>
<path d="M26.7156 14.5612L25.7384 14.528C25.6012 14.5198 25.4979 14.4833 25.4335 14.4087C25.3658 14.3325 25.3438 14.2083 25.3438 14.0525V11.2373C25.3438 11.0749 25.3675 10.9556 25.4369 10.8894C25.5013 10.8231 25.6029 10.7916 25.7367 10.7999L26.7766 10.8595C26.9256 10.8728 27.0679 10.8894 27.1712 10.9192C27.2779 10.949 27.3795 10.9954 27.4727 11.0584C27.5387 11.118 27.6082 11.1843 27.6675 11.2688C27.7267 11.3533 27.7657 11.4395 27.7928 11.5372C27.8284 11.6383 27.8419 11.7394 27.8419 11.8438C27.8419 12.2149 27.6878 12.4767 27.3728 12.6308C27.786 12.8048 27.9926 13.113 27.9926 13.5538C27.9926 13.7592 27.9452 13.9465 27.847 14.1055C27.7606 14.2629 27.6336 14.3839 27.4828 14.4585C27.388 14.4982 27.2779 14.5314 27.1611 14.543C27.0289 14.5612 26.885 14.5645 26.7122 14.5612M25.989 11.3831V12.3442L26.5954 12.3757C26.7529 12.3773 26.868 12.3707 26.9612 12.3359C27.051 12.3044 27.1153 12.2448 27.1678 12.147C27.2 12.0757 27.2203 11.9962 27.2203 11.9134C27.2203 11.7245 27.1627 11.5985 27.051 11.5339C26.929 11.4627 26.7546 11.4246 26.5242 11.4113L25.9907 11.3831H25.989ZM26.6682 12.9125L25.989 12.886V13.973L26.6953 13.9995C27.1221 14.0111 27.3389 13.8404 27.3389 13.4726C27.3389 13.292 27.283 13.1511 27.1695 13.0633C27.0662 12.9738 26.8985 12.9258 26.6682 12.9125Z" fill="#423087"/>
<path d="M28.5684 14.2317V11.3585C28.5684 11.2077 28.5887 11.0967 28.6497 11.0271C28.7106 10.9525 28.7818 10.9227 28.8783 10.926C28.9698 10.9277 29.0443 10.9741 29.0951 11.052C29.1578 11.1298 29.195 11.2375 29.195 11.39V14.2565C29.195 14.4056 29.1578 14.5134 29.0951 14.5879C29.046 14.6625 28.9698 14.694 28.8783 14.689C28.7835 14.689 28.7123 14.6459 28.653 14.568C28.5904 14.4918 28.5701 14.3841 28.5701 14.2317" fill="#423087"/>
<path d="M30.4871 11.4627V14.0824L31.7066 14.1304C31.798 14.1304 31.8827 14.1619 31.9352 14.2232C31.9843 14.2829 32.0063 14.3558 32.0063 14.4353C32.0063 14.5264 31.9877 14.5944 31.9352 14.6474C31.8861 14.7004 31.8031 14.7236 31.7066 14.722L30.2382 14.6739C30.1145 14.6689 30.0214 14.6341 29.9587 14.5629C29.8977 14.4867 29.874 14.3723 29.874 14.2133V11.4329C29.874 11.2838 29.896 11.1744 29.9536 11.1065C30.0112 11.0302 30.084 11.0021 30.1772 11.0054C30.2653 11.0104 30.3415 11.0534 30.3957 11.1313C30.4482 11.2075 30.4871 11.3152 30.4871 11.4627Z" fill="#423087"/>
<path d="M34.2915 11.8621L32.9941 11.7909V12.6558L34.1882 12.7105C34.2881 12.7155 34.344 12.742 34.3948 12.7934C34.4388 12.8447 34.4507 12.9093 34.4507 12.9872C34.4507 13.0651 34.4388 13.133 34.3948 13.1794C34.344 13.2275 34.2915 13.2474 34.1882 13.2441L32.9941 13.1894V14.1951L34.344 14.2449C34.4372 14.2515 34.4981 14.2797 34.5523 14.3327C34.5964 14.384 34.6116 14.4536 34.6116 14.5365C34.6116 14.6193 34.5964 14.6889 34.5523 14.7403C34.4998 14.7917 34.4372 14.8132 34.344 14.8115L32.7621 14.7602C32.6266 14.7535 32.5369 14.7171 32.4776 14.6442C32.42 14.5713 32.4014 14.4636 32.4014 14.3095V11.6401C32.4014 11.539 32.4149 11.4562 32.4335 11.3883C32.4657 11.3286 32.5013 11.2839 32.5572 11.2574C32.6131 11.2308 32.6825 11.2159 32.7638 11.2242L34.2932 11.3153C34.3965 11.3203 34.4558 11.3501 34.5015 11.4048C34.554 11.4578 34.5659 11.5208 34.5659 11.6037C34.5659 11.6865 34.554 11.7478 34.5015 11.7942C34.4575 11.8423 34.3982 11.8688 34.2932 11.8621" fill="#423087"/>
<path d="M18.5624 13.496L17.9848 10.9641V13.6832C17.9848 13.8323 17.9611 13.9483 17.8951 14.0212C17.829 14.0941 17.7545 14.1306 17.6529 14.1256C17.5546 14.1223 17.4632 14.0792 17.4005 14.0046C17.3463 13.9268 17.3057 13.8124 17.3057 13.66V10.525C17.3057 10.3544 17.3463 10.2417 17.4378 10.187C17.514 10.1323 17.6258 10.1075 17.763 10.1124L17.9967 10.1307C18.1288 10.1389 18.2338 10.1588 18.2897 10.1903C18.3507 10.2168 18.3964 10.2665 18.4353 10.3444C18.4557 10.4157 18.4912 10.5267 18.5336 10.6874L19.0535 12.8597L19.5701 10.7504C19.5989 10.5963 19.6345 10.4819 19.6649 10.419C19.6887 10.3461 19.7378 10.303 19.792 10.2814C19.8546 10.2599 19.9478 10.2483 20.0917 10.2599L20.3119 10.2698C20.4406 10.2814 20.5524 10.3179 20.6236 10.3792C20.7099 10.4455 20.7421 10.5615 20.7421 10.7255V13.7843C20.7421 13.9317 20.7218 14.0428 20.6608 14.114C20.5965 14.1852 20.5185 14.2234 20.4152 14.2184C20.3204 14.2134 20.2526 14.1786 20.19 14.1024C20.1239 14.0262 20.1036 13.9102 20.1036 13.7627V11.0801L19.5294 13.5357C19.4905 13.6981 19.4668 13.8108 19.4363 13.8837C19.4227 13.9582 19.3753 14.0295 19.316 14.0842C19.25 14.1488 19.1687 14.177 19.0535 14.172C18.9604 14.167 18.8977 14.1488 18.8384 14.1057C18.7741 14.0593 18.7334 14.008 18.6979 13.9466C18.6623 13.8787 18.6454 13.8108 18.6199 13.7346C18.5979 13.6583 18.5895 13.5755 18.5624 13.4943" fill="white"/>
<path d="M22.9625 10.3676C23.3182 10.3941 23.6146 10.4935 23.8585 10.6658C24.1074 10.8365 24.2971 11.0751 24.4174 11.3734C24.5461 11.67 24.6139 12.0196 24.6139 12.4073C24.6139 12.7022 24.5749 12.9607 24.5105 13.196C24.4309 13.433 24.3276 13.6351 24.1989 13.8025C24.0549 13.9781 23.8873 14.104 23.6874 14.1869C23.4825 14.278 23.2437 14.3112 22.9761 14.3078C22.7136 14.2962 22.4832 14.2382 22.2732 14.1339C22.0615 14.0295 21.8786 13.8886 21.738 13.7064C21.6008 13.5224 21.4941 13.3104 21.4128 13.0601C21.3519 12.8083 21.3027 12.5332 21.3027 12.2482C21.3027 11.9483 21.3535 11.6832 21.4179 11.4363C21.5043 11.1994 21.611 10.9956 21.7566 10.8266C21.8938 10.6675 22.075 10.5465 22.2766 10.467C22.4832 10.3875 22.7034 10.3543 22.9625 10.3676ZM23.933 12.3758C23.933 12.0975 23.8957 11.8555 23.806 11.6451C23.7382 11.438 23.6231 11.2822 23.4791 11.1679C23.3267 11.0552 23.159 10.9956 22.9608 10.9807C22.827 10.979 22.7034 10.9989 22.5882 11.0519C22.4697 11.1033 22.3714 11.1828 22.2868 11.2839C22.197 11.3916 22.1292 11.5324 22.0784 11.7014C22.031 11.8705 22.0141 12.0676 22.0141 12.2797C22.0141 12.5034 22.031 12.6989 22.0784 12.8779C22.1275 13.0568 22.1987 13.2043 22.2868 13.3203C22.385 13.4446 22.4866 13.5307 22.5984 13.597C22.7068 13.6533 22.8406 13.6898 22.9693 13.6964C23.1488 13.7031 23.3131 13.6567 23.452 13.5672C23.5943 13.4711 23.7128 13.3236 23.7941 13.1231C23.889 12.9226 23.9313 12.6774 23.9313 12.3775" fill="white"/>
<path d="M26.5495 14.3608L25.5655 14.3293C25.4266 14.3244 25.325 14.2829 25.2607 14.2084C25.1997 14.1305 25.1709 14.0096 25.1709 13.8521V11.0353C25.1709 10.8729 25.1997 10.7503 25.2624 10.6873C25.3284 10.6194 25.4317 10.5896 25.5655 10.5995L26.6122 10.6608C26.7613 10.6724 26.9035 10.6907 27.0153 10.7205C27.1203 10.7503 27.2236 10.7967 27.3117 10.8613C27.3828 10.921 27.4455 10.9873 27.5065 11.0734C27.5657 11.1579 27.6047 11.2441 27.642 11.3418C27.6691 11.4379 27.6911 11.5407 27.6911 11.6484C27.6911 12.0229 27.5319 12.2797 27.2168 12.4338C27.6318 12.6094 27.8367 12.916 27.8367 13.365C27.8367 13.5688 27.791 13.7527 27.6962 13.9085C27.603 14.0742 27.4878 14.1868 27.3303 14.2631C27.2304 14.3095 27.122 14.3376 27.0018 14.3509C26.868 14.3641 26.7206 14.3691 26.5512 14.3641M25.8263 11.1844V12.1471L26.431 12.177C26.5936 12.1819 26.7087 12.1753 26.8087 12.1422C26.89 12.1074 26.9611 12.0494 27.0085 11.9466C27.0356 11.8787 27.061 11.8008 27.061 11.718C27.061 11.5291 27.0051 11.4031 26.8866 11.3369C26.7714 11.264 26.6037 11.2275 26.3582 11.2109L25.828 11.1844H25.8263ZM26.5038 12.7155L25.8263 12.6856V13.7759L26.5343 13.8024C26.9662 13.8157 27.1779 13.645 27.1779 13.2788C27.1779 13.0933 27.1203 12.9557 27.017 12.8629C26.9069 12.7784 26.7342 12.7287 26.5038 12.7138" fill="white"/>
<path d="M28.4082 14.0343V11.1578C28.4082 11.0054 28.4285 10.8993 28.4878 10.8264C28.5471 10.7519 28.6301 10.7253 28.7198 10.7253C28.8096 10.732 28.8892 10.7751 28.9434 10.8529C28.9959 10.9275 29.0366 11.0451 29.0366 11.1943V14.0575C29.0366 14.2083 28.9959 14.3209 28.9434 14.3922C28.8892 14.4651 28.8096 14.5016 28.7198 14.4966C28.6301 14.4933 28.5505 14.4568 28.4878 14.3789C28.4285 14.3011 28.4082 14.1834 28.4082 14.0343Z" fill="white"/>
<path d="M30.3313 11.2672V13.8901L31.5491 13.9365C31.6456 13.9432 31.7303 13.9763 31.7777 14.0293C31.8302 14.089 31.8506 14.1619 31.8506 14.2497C31.8506 14.3375 31.8302 14.4088 31.7811 14.4618C31.7303 14.5132 31.6456 14.538 31.5491 14.5347L30.0824 14.4833C29.9537 14.4784 29.8605 14.4353 29.7978 14.364C29.7369 14.2928 29.7148 14.1818 29.7148 14.021V11.2307C29.7148 11.0816 29.7352 10.9772 29.7911 10.901C29.8486 10.8314 29.9232 10.7999 30.018 10.8032C30.1061 10.8115 30.1857 10.8496 30.2348 10.9258C30.289 11.0021 30.3296 11.1197 30.3296 11.2655" fill="white"/>
<path d="M34.1479 11.6665L32.837 11.5936V12.4602L34.0446 12.5265C34.1377 12.5315 34.1987 12.5563 34.241 12.606C34.2918 12.6574 34.3054 12.7237 34.3054 12.8049C34.3054 12.8861 34.2918 12.9441 34.241 12.9921C34.2004 13.0402 34.1377 13.065 34.0446 13.0634L32.837 13.0054V14.0062L34.1902 14.0575C34.2935 14.0625 34.3494 14.0907 34.3968 14.1454C34.4494 14.2 34.4663 14.2663 34.4663 14.3558C34.4663 14.4353 34.4494 14.5016 34.3968 14.553C34.3494 14.601 34.2935 14.6242 34.1902 14.6192L32.6134 14.5662C32.4762 14.5646 32.3848 14.5265 32.3289 14.4569C32.2713 14.3856 32.251 14.2696 32.251 14.1139V11.4462C32.251 11.3418 32.2662 11.2589 32.2815 11.196C32.317 11.1297 32.3526 11.0849 32.4085 11.0584C32.4644 11.0319 32.5254 11.0269 32.6134 11.0286L34.1479 11.1264C34.2427 11.1313 34.3088 11.1579 34.3511 11.2092C34.3969 11.2639 34.4239 11.3351 34.4239 11.413C34.4239 11.4909 34.3969 11.5638 34.3511 11.6102C34.3088 11.6566 34.241 11.6765 34.1479 11.6682" fill="white"/>
<path d="M37.8262 21.8537L14.75 22.422C14.3232 22.4353 13.9727 22.074 13.9727 21.6217V15.7776C13.9727 15.3252 14.3232 14.9673 14.75 14.974L37.8262 15.6368C38.1142 15.6467 38.3462 15.9582 38.3462 16.331V21.1644C38.3462 21.5355 38.1142 21.847 37.8262 21.8553" fill="#FFD217"/>
<path d="M33.7212 20.0044C33.7212 19.8453 33.7618 19.6995 33.8245 19.5703C33.8906 19.4377 33.9905 19.3333 34.1294 19.2554C34.253 19.1792 34.4037 19.1411 34.585 19.1411C34.7662 19.1411 34.9135 19.1792 35.0304 19.2604C35.1625 19.3399 35.2523 19.4443 35.32 19.5719C35.3827 19.7012 35.4064 19.8288 35.4064 19.9713C35.4064 20.1585 35.3573 20.3258 35.2573 20.465C35.1591 20.6108 35.0101 20.75 34.8119 20.8975C34.8763 20.9969 34.9406 21.0963 35.0033 21.1759C35.0626 21.2687 35.1235 21.3498 35.1777 21.4244C35.2286 21.499 35.2811 21.5603 35.3268 21.6133C35.3369 21.5652 35.3793 21.4791 35.4199 21.3482C35.4572 21.2156 35.4945 21.1228 35.5419 21.0648C35.5774 21.0019 35.6316 20.9737 35.6994 20.9721C35.7553 20.9721 35.8129 20.9986 35.8569 21.0549C35.906 21.1146 35.9382 21.1792 35.9382 21.2604C35.9382 21.3333 35.9077 21.4393 35.8705 21.5785C35.8349 21.7111 35.7671 21.8602 35.6977 22.0342C35.7468 22.0855 35.8163 22.1667 35.9297 22.2678C36.0381 22.3755 36.111 22.4468 36.1279 22.4882C36.1601 22.523 36.1668 22.576 36.1668 22.6456C36.1668 22.7284 36.1431 22.803 36.094 22.866C36.0449 22.9289 35.9856 22.9554 35.9196 22.9604C35.8552 22.9604 35.8044 22.9389 35.7417 22.8925C35.6808 22.8444 35.547 22.7251 35.3556 22.5296C35.2726 22.6373 35.1794 22.7251 35.0761 22.7947C34.9847 22.861 34.8814 22.914 34.773 22.9521C34.6612 22.982 34.5477 23.0068 34.4037 23.0068C34.2411 23.0134 34.087 22.9853 33.9363 22.9289C33.8042 22.8742 33.6839 22.7947 33.5942 22.6887C33.5044 22.5843 33.4299 22.4716 33.3892 22.344C33.3469 22.2164 33.3164 22.0839 33.3164 21.9463C33.3164 21.8171 33.3367 21.7028 33.3655 21.5918C33.4096 21.4857 33.457 21.3863 33.5146 21.3018C33.5654 21.2107 33.6501 21.1262 33.733 21.0483C33.8262 20.9737 33.9312 20.8958 34.0413 20.8213C33.9346 20.6622 33.8668 20.5164 33.8126 20.3888C33.7568 20.2662 33.7229 20.1353 33.7229 20.0077M34.3157 21.2256C34.1802 21.3283 34.0752 21.431 33.9956 21.5321C33.9312 21.6332 33.8906 21.7541 33.8906 21.8884C33.8906 21.9679 33.9092 22.0408 33.9312 22.1154C33.9617 22.1883 33.9956 22.2496 34.043 22.3142C34.0904 22.3689 34.1497 22.4202 34.2208 22.4468C34.2869 22.4766 34.3478 22.4948 34.4241 22.4931C34.4986 22.4915 34.5579 22.4716 34.6273 22.4468C34.6984 22.4169 34.7628 22.3738 34.8136 22.3175C34.8712 22.2695 34.9339 22.2082 34.9999 22.1336C34.8729 21.9944 34.7628 21.8602 34.6646 21.7293C34.568 21.5918 34.4495 21.4261 34.3157 21.2256ZM34.5291 20.5197C34.6646 20.412 34.7679 20.3126 34.8288 20.2347C34.9 20.1601 34.922 20.074 34.922 19.9646C34.922 19.8553 34.9 19.7741 34.8288 19.7028C34.7679 19.6299 34.6967 19.5984 34.6036 19.5984C34.5003 19.5984 34.4207 19.6316 34.3529 19.7045C34.292 19.7774 34.2581 19.8652 34.2581 19.9646C34.2581 20.016 34.2784 20.0723 34.2936 20.1336C34.3241 20.185 34.3462 20.2463 34.3936 20.306C34.4258 20.364 34.4715 20.4369 34.5291 20.5197Z" fill="#5A5A5C"/>
<path d="M33.5737 19.8223C33.5737 19.6615 33.6161 19.519 33.6737 19.3865C33.7465 19.2539 33.8464 19.1495 33.9802 19.0717C34.1055 18.9954 34.258 18.959 34.4409 18.959C34.6035 18.959 34.761 18.9954 34.8846 19.0766C35.0201 19.1562 35.1099 19.2606 35.1759 19.3898C35.2284 19.5174 35.2657 19.6466 35.2657 19.7875C35.2657 19.9747 35.2166 20.1437 35.1133 20.2812C35.015 20.4271 34.8643 20.5679 34.6577 20.7154C34.7305 20.8164 34.7999 20.9142 34.8592 20.9954C34.9168 21.0882 34.9693 21.1694 35.0201 21.2439C35.0726 21.3202 35.1234 21.3798 35.1776 21.4328C35.1929 21.3864 35.2284 21.2986 35.2759 21.1694C35.3165 21.0385 35.3521 20.9424 35.386 20.886C35.4351 20.8247 35.4876 20.7949 35.5401 20.7932C35.6095 20.7932 35.6688 20.8214 35.7145 20.8777C35.7619 20.9357 35.7958 21.0004 35.7958 21.0832C35.7958 21.1561 35.7687 21.2622 35.7315 21.4013C35.6908 21.5322 35.6281 21.683 35.5418 21.8554C35.5943 21.9067 35.679 21.9879 35.7907 22.089C35.8991 22.1967 35.9584 22.2696 35.9872 22.3127C36.0109 22.3491 36.0194 22.4005 36.0194 22.4701C36.0194 22.5529 36.0041 22.6275 35.9533 22.6921C35.9008 22.7518 35.8432 22.7816 35.7789 22.7849C35.7111 22.7866 35.6468 22.765 35.596 22.717C35.5418 22.6689 35.4046 22.548 35.2166 22.3524C35.1268 22.4618 35.0252 22.548 34.9337 22.6176C34.8423 22.6838 34.7424 22.7352 34.6289 22.775C34.5171 22.8048 34.4002 22.8263 34.258 22.828C34.0886 22.8346 33.9345 22.8081 33.7905 22.7518C33.6584 22.6971 33.5399 22.6142 33.4501 22.5082C33.3603 22.4038 33.2875 22.2911 33.2452 22.1619C33.2011 22.0326 33.1689 21.9001 33.1689 21.7642C33.1689 21.635 33.1944 21.5173 33.2198 21.4096C33.257 21.3003 33.3112 21.2025 33.3603 21.1197C33.423 21.0269 33.506 20.944 33.589 20.8678C33.672 20.7883 33.7753 20.7121 33.8955 20.6375C33.7888 20.4784 33.7177 20.3326 33.6669 20.2067C33.611 20.0774 33.5771 19.9532 33.5771 19.8223M34.175 21.0434C34.0378 21.1462 33.9311 21.2472 33.8549 21.35C33.777 21.4511 33.7482 21.5737 33.7482 21.7062C33.7482 21.7858 33.7668 21.8603 33.7837 21.9365C33.8193 22.0078 33.8498 22.0691 33.8972 22.1354C33.9463 22.1917 34.0073 22.2398 34.0784 22.2663C34.1428 22.2978 34.2055 22.3176 34.2834 22.3143C34.3494 22.3143 34.4155 22.2928 34.4883 22.2663C34.5578 22.2398 34.6086 22.195 34.6695 22.142C34.7305 22.0906 34.7949 22.031 34.8626 21.9548C34.7339 21.8139 34.6221 21.6814 34.5256 21.5472C34.429 21.408 34.3088 21.2423 34.1767 21.0434M34.3918 20.3343C34.5273 20.2266 34.6255 20.1288 34.6932 20.0542C34.7593 19.9764 34.783 19.8869 34.783 19.7792C34.783 19.6715 34.7593 19.5903 34.6932 19.519C34.6272 19.4445 34.5561 19.4113 34.4561 19.4113C34.3545 19.4113 34.2851 19.4445 34.2139 19.519C34.1479 19.5969 34.1208 19.6798 34.1208 19.7775C34.1208 19.8305 34.1377 19.8852 34.153 19.9482C34.1851 20.0045 34.2089 20.0609 34.2478 20.1222C34.2885 20.1802 34.3308 20.2531 34.3918 20.3359" fill="white"/>
<path d="M20.2152 19.3929V20.3838C20.2152 20.513 20.2101 20.6141 20.1864 20.6953C20.1559 20.7748 20.1152 20.8444 20.0509 20.914C19.9967 20.9737 19.9069 21.04 19.8138 21.0963C19.5309 21.2753 19.2599 21.4012 18.9957 21.4824C18.7281 21.5652 18.4419 21.6083 18.1269 21.6166C17.7543 21.6265 17.4088 21.5685 17.1005 21.4509C16.794 21.3266 16.528 21.146 16.3096 20.919C16.1012 20.6821 15.9285 20.3904 15.8032 20.0557C15.6846 19.7127 15.6338 19.3333 15.6338 18.9108C15.6338 18.4882 15.6846 18.1221 15.7964 17.7741C15.9149 17.4361 16.0877 17.1461 16.3079 16.9092C16.5213 16.6739 16.7923 16.4982 17.109 16.3756C17.4223 16.258 17.7746 16.1983 18.1743 16.2099C18.4876 16.2165 18.7722 16.2663 19.0177 16.3673C19.2701 16.4634 19.4682 16.5811 19.619 16.7236C19.768 16.871 19.8849 17.0218 19.9543 17.1809C20.0373 17.335 20.0695 17.4775 20.0695 17.5968C20.0695 17.7294 20.0305 17.842 19.9442 17.9348C19.8476 18.0243 19.7409 18.0723 19.6275 18.0723C19.5529 18.0723 19.4835 18.0508 19.4242 18.021C19.3666 17.9829 19.3124 17.9315 19.2701 17.8702C19.1515 17.6664 19.0516 17.5139 18.9585 17.4079C18.8856 17.3035 18.7722 17.2107 18.6367 17.1378C18.4876 17.0649 18.3166 17.0301 18.0964 17.0268C17.8643 17.0251 17.6662 17.0583 17.4985 17.1444C17.3105 17.229 17.1598 17.3483 17.0328 17.5123C16.9091 17.668 16.8126 17.8702 16.7364 18.0989C16.6703 18.3358 16.6364 18.5993 16.6364 18.8859C16.6364 19.5006 16.7736 19.9779 17.0328 20.3109C17.2953 20.6406 17.656 20.8014 18.1269 20.7947C18.3453 20.7931 18.5537 20.7616 18.7501 20.6903C18.9551 20.6257 19.1498 20.5346 19.3463 20.412V19.5719H18.5977C18.4249 19.5719 18.2793 19.5487 18.1878 19.489C18.1015 19.4261 18.0574 19.325 18.0574 19.1858C18.0574 19.0632 18.0896 18.9688 18.176 18.8925C18.2437 18.8163 18.3504 18.7832 18.4876 18.7848H19.58C19.7037 18.7848 19.8205 18.7948 19.9052 18.8213C19.9967 18.8478 20.0729 18.9075 20.1339 18.9936C20.1914 19.0864 20.2101 19.2173 20.2101 19.3963" fill="#AD9331"/>
<path d="M23.7533 20.8577L23.5416 20.2313L21.7141 20.2446L21.5058 20.8991C21.4093 21.1576 21.3483 21.3315 21.284 21.426C21.2179 21.5122 21.1231 21.5602 20.9859 21.5602C20.8707 21.5635 20.7657 21.5204 20.6742 21.426C20.576 21.3282 20.5303 21.2238 20.5303 21.0963C20.5303 21.0283 20.5455 20.9587 20.5692 20.8825C20.5828 20.8079 20.6234 20.7036 20.6725 20.5677L21.8429 17.2471C21.87 17.156 21.9208 17.0367 21.9682 16.9041C22.0139 16.7732 22.0647 16.6672 22.1172 16.5761C22.168 16.4932 22.2324 16.4187 22.3205 16.3673C22.4001 16.3159 22.5034 16.2927 22.6372 16.2927C22.7541 16.2927 22.8608 16.3225 22.9539 16.3805C23.0318 16.4369 23.1063 16.5048 23.1571 16.5959C23.2097 16.6755 23.2503 16.7716 23.2808 16.8693C23.3248 16.9655 23.3689 17.098 23.4247 17.2587L24.5714 20.4981C24.6628 20.74 24.7085 20.919 24.7085 21.03C24.7085 21.141 24.6679 21.2504 24.5731 21.3498C24.4951 21.4508 24.3935 21.5022 24.2682 21.5022C24.2038 21.5022 24.1446 21.489 24.0971 21.4624C24.048 21.4326 23.9972 21.3995 23.9616 21.3498C23.9345 21.2984 23.8922 21.2238 23.8499 21.1228C23.8143 21.0217 23.7889 20.9372 23.7482 20.8577M21.958 19.4675L23.2994 19.4625L22.6253 17.3747L21.9563 19.4675H21.958Z" fill="#AD9331"/>
<path d="M26.8073 20.6323L26.123 17.4907V20.8991C26.123 21.0929 26.0807 21.2305 26.013 21.3249C25.9317 21.426 25.8351 21.4757 25.72 21.4773C25.6048 21.4773 25.5116 21.4293 25.4286 21.3398C25.3524 21.247 25.3135 21.1029 25.3135 20.914V16.977C25.3135 16.7649 25.3626 16.6208 25.4591 16.5446C25.5591 16.4683 25.6962 16.4369 25.8639 16.4402L26.1332 16.4435C26.2873 16.4435 26.4042 16.4667 26.4838 16.4982C26.5482 16.5379 26.599 16.5976 26.6447 16.6854C26.6718 16.7732 26.7091 16.9157 26.7565 17.1112L27.3764 19.8005L27.9793 17.1295C28.0183 16.934 28.0538 16.7981 28.0962 16.7086C28.125 16.6208 28.1775 16.5661 28.2554 16.533C28.3147 16.4982 28.4298 16.4882 28.5856 16.4915L28.8448 16.4949C29.0023 16.4949 29.1361 16.5379 29.2241 16.6142C29.3139 16.6887 29.3579 16.8262 29.3579 17.04V20.8543C29.3579 21.0416 29.3292 21.1758 29.2546 21.2719C29.197 21.3647 29.092 21.4111 28.9836 21.4144C28.8719 21.416 28.7804 21.373 28.7093 21.2768C28.6314 21.189 28.6009 21.0482 28.6009 20.8643V17.5139L27.9404 20.6107C27.898 20.8146 27.854 20.967 27.8336 21.0598C27.793 21.1526 27.7456 21.2421 27.6812 21.3216C27.5999 21.3978 27.4966 21.4409 27.3747 21.4442C27.2747 21.4442 27.1799 21.4243 27.1155 21.373C27.0512 21.3216 26.9953 21.257 26.9614 21.1807C26.9106 21.1012 26.8886 21.0167 26.8581 20.9206C26.8462 20.8295 26.8175 20.7317 26.8022 20.629" fill="#AD9331"/>
<path d="M32.8026 17.3053L31.0192 17.2838V18.452H32.6688C32.7857 18.4553 32.8772 18.4901 32.9381 18.5563C32.994 18.621 33.0194 18.7088 33.0194 18.8099C33.0194 18.9192 32.9923 19.0087 32.9381 19.075C32.8772 19.1429 32.784 19.1744 32.6671 19.1744L31.0175 19.1777V20.5348L32.8636 20.5132C32.9923 20.5132 33.0821 20.5397 33.1465 20.6143C33.2007 20.6789 33.2396 20.7684 33.2396 20.8877C33.2396 20.9954 33.2007 21.0882 33.1465 21.1561C33.0821 21.2274 32.9923 21.2638 32.8636 21.2655L30.7042 21.3003C30.5264 21.3052 30.3926 21.2622 30.3248 21.1727C30.2384 21.0766 30.2012 20.9241 30.2012 20.717V17.1148C30.2012 16.9789 30.2249 16.8629 30.2537 16.7751C30.2892 16.6889 30.3401 16.6227 30.4213 16.5862C30.4976 16.5481 30.5924 16.5266 30.7059 16.5299L32.8009 16.573C32.9314 16.573 33.0211 16.6078 33.0855 16.674C33.1465 16.7469 33.1719 16.8298 33.1719 16.9425C33.1719 17.0551 33.1481 17.138 33.0855 17.2092C33.0211 17.2739 32.9314 17.3086 32.8009 17.307" fill="#AD9331"/>
<path d="M20.0408 19.1907V20.1816C20.0408 20.3108 20.0256 20.4169 20.0019 20.4964C19.9815 20.576 19.9392 20.6455 19.8731 20.7151C19.8054 20.7748 19.7326 20.8411 19.636 20.8941C19.3447 21.0714 19.067 21.1973 18.8044 21.2802C18.547 21.3647 18.2455 21.4078 17.9288 21.4127C17.5562 21.4227 17.2259 21.363 16.9194 21.247C16.6095 21.1228 16.3452 20.9421 16.12 20.7118C15.8964 20.4732 15.7406 20.1816 15.617 19.8469C15.4933 19.5006 15.4307 19.1195 15.4307 18.7019C15.4307 18.2844 15.4882 17.9082 15.6102 17.5619C15.7271 17.2239 15.8947 16.9306 16.1132 16.697C16.3385 16.4617 16.6095 16.2844 16.9262 16.1618C17.2429 16.0409 17.5935 15.9845 17.9796 15.9961C18.3065 16.0061 18.5944 16.0591 18.8417 16.1552C19.0805 16.2529 19.2787 16.3706 19.4277 16.5181C19.5835 16.6639 19.6953 16.8147 19.78 16.9754C19.8494 17.1278 19.8952 17.2703 19.8952 17.3929C19.8952 17.5255 19.841 17.6365 19.7546 17.7276C19.6733 17.8171 19.5666 17.8652 19.4362 17.8652C19.3752 17.8652 19.3109 17.8436 19.2414 17.8138C19.1771 17.774 19.1212 17.7243 19.0805 17.663C18.9603 17.4592 18.8603 17.3035 18.7858 17.1974C18.6994 17.0914 18.5944 17.0019 18.4471 16.9273C18.3116 16.8544 18.1304 16.8196 17.9187 16.8163C17.6866 16.8097 17.4885 16.8511 17.3022 16.9323C17.1294 17.0168 16.9787 17.1361 16.8415 17.3001C16.7229 17.4625 16.6213 17.6597 16.557 17.8933C16.4824 18.1253 16.4553 18.3888 16.4553 18.6771C16.4553 19.2935 16.5824 19.774 16.8432 20.1054C17.1091 20.4351 17.4715 20.5958 17.9356 20.5892C18.1693 20.5876 18.3793 20.5577 18.5724 20.4848C18.7638 20.4219 18.962 20.3324 19.1703 20.2081V19.3664H18.4234C18.2337 19.3664 18.1016 19.3415 18.0135 19.2819C17.922 19.2206 17.8678 19.1195 17.8678 18.9786C17.8678 18.8577 17.9119 18.7632 17.9847 18.687C18.0677 18.6108 18.1727 18.5777 18.298 18.5777H19.3871C19.5293 18.5793 19.6343 18.5909 19.7343 18.6174C19.824 18.6439 19.8969 18.7036 19.946 18.7881C20.0019 18.8825 20.0391 19.0101 20.0391 19.1891" fill="#EF4237"/>
<path d="M23.5855 20.6654L23.3772 20.0308L21.5413 20.0507L21.316 20.7052C21.2381 20.9637 21.1585 21.1377 21.0942 21.2255C21.0383 21.3216 20.935 21.363 20.7995 21.368C20.6792 21.3713 20.5759 21.3249 20.4861 21.2255C20.4015 21.1327 20.3574 21.0217 20.3574 20.9007C20.3574 20.8345 20.3608 20.7632 20.3811 20.687C20.4099 20.6141 20.4404 20.508 20.4861 20.3705L21.6632 17.0483C21.7022 16.9539 21.7378 16.8379 21.7818 16.7037C21.8258 16.5711 21.8766 16.4667 21.9308 16.3739C21.9833 16.2927 22.0596 16.2165 22.1375 16.1651C22.2323 16.1138 22.3373 16.0906 22.4525 16.0906C22.588 16.0922 22.6947 16.1221 22.7743 16.1817C22.8573 16.238 22.925 16.3076 22.9775 16.3955C23.03 16.4766 23.0724 16.5728 23.1198 16.6722C23.1503 16.7699 23.1926 16.9008 23.2485 17.0599L24.4087 20.3075C24.4917 20.5495 24.534 20.7268 24.534 20.8411C24.534 20.9554 24.495 21.0615 24.4171 21.1592C24.324 21.2553 24.2224 21.3067 24.1055 21.3083C24.0361 21.31 23.9717 21.2984 23.9243 21.2736C23.8735 21.2437 23.8345 21.2023 23.7939 21.1543C23.7617 21.1062 23.7295 21.0316 23.6906 20.9306C23.6431 20.8295 23.6143 20.74 23.5872 20.6654M21.7801 19.2653H23.13L22.4508 17.1759L21.7818 19.2653H21.7801Z" fill="#EF4237"/>
<path d="M26.6366 20.4385L25.949 17.2969V20.7119C25.949 20.8975 25.9168 21.0433 25.8372 21.1377C25.7678 21.2322 25.6645 21.2786 25.5544 21.2819C25.4308 21.2852 25.3376 21.2421 25.2546 21.1444C25.1886 21.0532 25.1445 20.9157 25.1445 20.7185V16.7816C25.1445 16.5662 25.2004 16.417 25.3003 16.3441C25.3986 16.2696 25.5205 16.2397 25.695 16.2397L25.966 16.2447C26.1285 16.248 26.2369 16.2663 26.3132 16.3044C26.3911 16.3425 26.4453 16.3988 26.4758 16.4916C26.5045 16.5745 26.5486 16.7219 26.5977 16.9191L27.2091 19.6117L27.8087 16.934C27.8527 16.7435 27.8984 16.5993 27.9323 16.5181C27.9611 16.4286 28.0136 16.3673 28.0932 16.3425C28.1576 16.3093 28.2677 16.2911 28.4235 16.2944L28.6809 16.3011C28.8418 16.306 28.9773 16.3425 29.062 16.417C29.1517 16.4949 29.1941 16.6407 29.1941 16.8495V20.6655C29.1941 20.8527 29.167 20.9919 29.0908 21.0864C29.0332 21.1775 28.9366 21.2239 28.8232 21.2255C28.7097 21.2289 28.6233 21.1858 28.5437 21.0946C28.4675 21.0002 28.4336 20.866 28.4336 20.6787V17.3284L27.7765 20.4285C27.7325 20.6307 27.6901 20.7765 27.6681 20.871C27.6359 20.9687 27.5868 21.0516 27.5157 21.1328C27.4344 21.2123 27.3294 21.2521 27.2074 21.2537C27.1092 21.2554 27.0143 21.2322 26.9551 21.1825C26.8822 21.1344 26.8263 21.0698 26.7925 20.9919C26.7535 20.9173 26.7163 20.8312 26.6993 20.7384C26.6773 20.6373 26.6502 20.5396 26.6333 20.4368" fill="#EF4237"/>
<path d="M32.6534 17.1162L30.8615 17.0897V18.2612L32.5162 18.2728C32.628 18.2728 32.7263 18.3009 32.7872 18.3722C32.8363 18.4352 32.8736 18.5246 32.8736 18.6307C32.8736 18.7367 32.8363 18.8212 32.7872 18.8858C32.7313 18.9571 32.6331 18.9869 32.5162 18.9869H30.8615V20.3456L32.7178 20.3274C32.8363 20.3274 32.9329 20.3589 32.9955 20.4285C33.0514 20.4931 33.0904 20.5859 33.0904 20.7035C33.0904 20.8212 33.0514 20.9024 32.9955 20.972C32.9346 21.0449 32.838 21.0797 32.7178 21.0813L30.5499 21.1194C30.3738 21.1211 30.2383 21.073 30.1705 20.9836C30.0841 20.8908 30.0469 20.7383 30.0469 20.5329V16.9273C30.0469 16.7865 30.0706 16.6738 30.0977 16.5843C30.1333 16.4965 30.1874 16.4335 30.2637 16.3938C30.3399 16.3557 30.4347 16.3408 30.5482 16.3424L32.6517 16.3822C32.7821 16.3871 32.8753 16.417 32.9363 16.4899C32.9939 16.5545 33.0226 16.6473 33.0226 16.75C33.0226 16.8644 32.9939 16.9505 32.9363 17.0201C32.8753 17.0831 32.7821 17.1162 32.6517 17.1129" fill="#EF4237"/>
<path d="M46.0986 16.1504L56.0709 11.2656C56.4672 11.0784 56.5908 10.5846 56.3283 10.2416L52.7327 5.54913C52.4515 5.18957 51.9129 5.18128 51.6165 5.53421L46.0918 12.2548L46.0986 16.1504Z" fill="#624EA0"/>
<path d="M61.8624 19.5703L59.9672 11.8323C59.8639 11.4114 59.3982 11.1762 58.9883 11.3336L46.5195 16.1851V20.6805L61.1647 20.4568C61.6304 20.4452 61.9742 20.0194 61.8624 19.5703Z" fill="#FFD217"/>
<path d="M46.557 20.8195L46.0879 23.9827L56.9528 30.6039C57.2779 30.8044 57.7251 30.6784 57.8877 30.3272L61.131 23.5552C61.3173 23.1608 61.0599 22.7035 60.6331 22.6472L46.5553 20.8179L46.557 20.8195Z" fill="#4DC3CA"/>
<path d="M47.7642 27.8434H38.5016C37.8122 27.8434 37.2432 27.29 37.2432 26.6123V9.8173C37.2432 9.14126 37.8122 8.58618 38.5016 8.58618H47.7642C48.4637 8.58618 49.0294 9.14126 49.0294 9.8173V26.6123C49.0294 27.2883 48.4637 27.8434 47.7642 27.8434ZM44.6089 26.9271C44.6089 26.7862 44.4802 26.6653 44.3362 26.6653H41.9329C41.7771 26.6653 41.6653 26.7862 41.6653 26.9271C41.6653 27.0679 41.7771 27.1922 41.9329 27.1922H44.3362C44.4802 27.1922 44.6089 27.0712 44.6089 26.9271Z" fill="#383738"/>
<g opacity="0.95">
<mask id="mask6_611_802" style="mask-type:luminance" maskUnits="userSpaceOnUse" x="38" y="10" width="11" height="17">
<path d="M48.2659 10.041H38.0107V26.208H48.2659V10.041Z" fill="white"/>
</mask>
<g mask="url(#mask6_611_802)">
<path d="M46.8802 26.2063H39.384C38.6253 26.2063 38.0088 25.5966 38.0088 24.8576V11.3865C38.0088 10.6491 38.6253 10.041 39.384 10.041H46.8802C47.6474 10.041 48.2639 10.6491 48.2639 11.3865V24.8592C48.2639 25.5982 47.6474 26.208 46.8802 26.208" fill="#CED4E7"/>
</g>
</g>
<g opacity="0.95">
<mask id="mask7_611_802" style="mask-type:luminance" maskUnits="userSpaceOnUse" x="38" y="10" width="11" height="17">
<path d="M48.2659 10.041H38.0107V26.208H48.2659V10.041Z" fill="white"/>
</mask>
<g mask="url(#mask7_611_802)">
<path d="M46.8802 26.2063L38.0088 11.3865C38.0088 10.6491 38.6253 10.041 39.384 10.041H46.8802C47.6474 10.041 48.2639 10.6491 48.2639 11.3865V24.8592C48.2639 25.5982 47.6474 26.208 46.8802 26.208" fill="#A8B9DE"/>
</g>
</g>
<path d="M4.14219 5.67998C4.13203 5.79099 4.09646 5.88875 4.03041 5.96995C3.95758 6.05279 3.8729 6.12073 3.74926 6.15718C3.62901 6.19695 3.50198 6.21518 3.34617 6.19695C3.16156 6.18535 3.00405 6.14061 2.90073 6.06274C2.81097 6.00308 2.74661 5.93349 2.70088 5.84567C2.65346 5.76283 2.6416 5.68163 2.6416 5.6021C2.6416 5.55736 2.6687 5.51759 2.69749 5.48611C2.74322 5.4596 2.78387 5.44635 2.83129 5.45132C2.86517 5.45463 2.90073 5.46623 2.92614 5.4944C2.95324 5.52257 2.97017 5.56068 2.9905 5.61038C3.00405 5.67169 3.02945 5.72306 3.05655 5.76283C3.07349 5.80756 3.10736 5.83905 3.15986 5.86721C3.21067 5.8987 3.26995 5.91527 3.3631 5.92189C3.47319 5.93349 3.56634 5.91527 3.63409 5.86721C3.71538 5.82082 3.75265 5.76283 3.76111 5.6866C3.76958 5.6253 3.74756 5.57559 3.71877 5.53416C3.67982 5.49108 3.62731 5.45794 3.5765 5.43309C3.524 5.40824 3.43424 5.38172 3.3377 5.35356C3.21237 5.30716 3.10228 5.26408 3.00405 5.21603C2.92275 5.16798 2.84992 5.10335 2.80419 5.02713C2.75677 4.95257 2.74661 4.86475 2.74661 4.75705C2.75677 4.65597 2.79742 4.56816 2.855 4.49194C2.91767 4.41903 3.00574 4.36435 3.11244 4.33618C3.22422 4.29807 3.35972 4.28813 3.50029 4.29973C3.61885 4.31133 3.71539 4.33287 3.7916 4.36435C3.88136 4.40246 3.94234 4.44057 3.99484 4.49194C4.04565 4.5433 4.0863 4.59301 4.09815 4.64769C4.12695 4.70071 4.13711 4.75208 4.13372 4.79847C4.12864 4.84653 4.10323 4.88298 4.07275 4.91943C4.04565 4.94926 3.99484 4.96748 3.94064 4.96086C3.89999 4.95423 3.87628 4.9476 3.84749 4.92275C3.83733 4.89789 3.80684 4.85978 3.78652 4.81007C3.75942 4.73882 3.72724 4.67917 3.68321 4.63941C3.6307 4.59301 3.56126 4.5665 3.45456 4.56319C3.35802 4.5549 3.26656 4.56816 3.21406 4.60627C3.1497 4.64438 3.11075 4.69408 3.11075 4.74876C3.11075 4.78853 3.11075 4.82001 3.12768 4.84653C3.15139 4.87304 3.17172 4.89955 3.21406 4.92275C3.24455 4.94926 3.27334 4.96583 3.31737 4.97577C3.35125 4.994 3.41053 5.01222 3.48674 5.04205C3.59005 5.07519 3.68321 5.10501 3.77466 5.14312C3.84918 5.17626 3.92879 5.221 3.98637 5.26739C4.04734 5.31047 4.0863 5.37178 4.10662 5.43475C4.14219 5.506 4.15066 5.58387 4.14388 5.67666" fill="#5A5A5C"/>
<path d="M4.92814 4.64781L4.87564 5.2874L5.69368 4.58982C5.72755 4.55171 5.75973 4.52685 5.79191 4.51525C5.81224 4.49537 5.85288 4.49371 5.89353 4.49537C5.94942 4.49537 5.98668 4.52023 6.02056 4.55171C6.05612 4.58816 6.07306 4.62296 6.06798 4.67267C6.06121 4.72403 6.02056 4.77374 5.96975 4.82511L5.45995 5.21615L5.93249 6.00486C5.96975 6.0612 5.99007 6.10594 6.0104 6.14736C6.02056 6.18879 6.02395 6.22358 6.02056 6.26335C6.02056 6.30146 6.00701 6.33791 5.96975 6.36774C5.9291 6.39425 5.88676 6.40253 5.82579 6.40253C5.77498 6.39756 5.73602 6.38099 5.70723 6.35448C5.66658 6.33128 5.65134 6.2998 5.62424 6.26169C5.60222 6.22358 5.59206 6.18879 5.57174 6.15399L5.18727 5.44481L4.84177 5.7149L4.81806 6.09434C4.81128 6.17222 4.7808 6.22524 4.74523 6.25672C4.71135 6.29483 4.66732 6.30477 4.60635 6.30146C4.5657 6.30146 4.54199 6.29152 4.5132 6.27329C4.48271 6.25009 4.46069 6.22524 4.45222 6.19873C4.43867 6.17387 4.43359 6.14736 4.43359 6.11588C4.43359 6.08108 4.43698 6.03966 4.44376 5.97835L4.56062 4.61633C4.56401 4.54342 4.57925 4.48377 4.6182 4.44898C4.66054 4.41749 4.70797 4.39927 4.76725 4.4059C4.82483 4.41252 4.86887 4.43241 4.89258 4.47052C4.92814 4.51525 4.93831 4.57159 4.92814 4.64947" fill="#5A5A5C"/>
<path d="M6.38477 6.21846L6.50502 4.77359C6.51348 4.69903 6.53889 4.64103 6.57784 4.60458C6.60833 4.57144 6.65406 4.55487 6.71334 4.5615C6.77092 4.56647 6.81326 4.58967 6.85222 4.62612C6.8844 4.6692 6.89795 4.72388 6.89117 4.8001L6.76584 6.24829C6.75907 6.32451 6.74382 6.37587 6.69809 6.41232C6.65914 6.44878 6.61172 6.46038 6.55413 6.45541C6.49993 6.45043 6.45929 6.42724 6.43219 6.38913C6.39154 6.34936 6.38646 6.29302 6.38646 6.2168" fill="#5A5A5C"/>
<path d="M7.68224 4.86472L7.57893 6.19857L8.34616 6.26154C8.41052 6.26817 8.45455 6.28308 8.47826 6.31953C8.51552 6.35101 8.52061 6.38581 8.51552 6.42889C8.51552 6.4786 8.50197 6.51008 8.46471 6.53328C8.42407 6.55979 8.37834 6.57305 8.31228 6.56808L7.40279 6.49683C7.3198 6.48688 7.2656 6.46534 7.22156 6.42889C7.19447 6.38747 7.17414 6.32782 7.1843 6.24994L7.30794 4.83324C7.32149 4.75867 7.32826 4.70399 7.3723 4.67417C7.41125 4.63606 7.46037 4.6228 7.51626 4.6228C7.57554 4.62777 7.61958 4.64931 7.64329 4.69405C7.68393 4.73051 7.68732 4.79181 7.68393 4.86638" fill="#5A5A5C"/>
<path d="M9.26633 4.9908L9.15117 6.32631L9.9184 6.38928C9.98276 6.3959 10.0285 6.41247 10.0674 6.44561C10.0911 6.47875 10.1098 6.51189 10.1047 6.55497C10.0996 6.60634 10.0725 6.63616 10.0454 6.66267C10.0132 6.68753 9.96751 6.70244 9.90485 6.69416L8.98349 6.62125C8.89712 6.61296 8.83784 6.59142 8.81413 6.55497C8.77517 6.51355 8.76501 6.4539 8.77517 6.37768L8.88187 4.95932C8.88865 4.88641 8.91913 4.83007 8.95131 4.80025C8.98349 4.7638 9.0343 4.7522 9.0885 4.7522C9.14778 4.75717 9.19181 4.77705 9.23246 4.82179C9.25617 4.85824 9.27819 4.91789 9.26633 4.99246" fill="#5A5A5C"/>
<path d="M11.3809 4.9658L11.8822 5.00391C12.0042 5.01386 12.1126 5.03374 12.2057 5.06688C12.3022 5.10002 12.3717 5.15138 12.4513 5.21766C12.624 5.39661 12.7104 5.6551 12.6732 5.98981C12.6732 6.09751 12.6545 6.19858 12.6223 6.2864C12.5986 6.37753 12.5648 6.45376 12.519 6.52998C12.4665 6.59791 12.4157 6.6559 12.3412 6.70727C12.2853 6.75035 12.2243 6.78183 12.1617 6.80337C12.1041 6.82491 12.0431 6.83486 11.9669 6.84148C11.8958 6.84977 11.8229 6.84811 11.7383 6.83983L11.2369 6.80337C11.1675 6.79675 11.1133 6.78515 11.0845 6.75864C11.0574 6.73378 11.0303 6.70727 11.0201 6.66585C11.01 6.63271 11.01 6.58134 11.0151 6.52335L11.1285 5.17624C11.1387 5.0967 11.1658 5.03871 11.2047 5.00557C11.2403 4.97575 11.3047 4.95918 11.3809 4.96746M11.5096 5.274L11.4046 6.52003L11.6874 6.54323C11.7484 6.54986 11.8009 6.55152 11.8416 6.55152C11.8805 6.55152 11.9093 6.54323 11.9466 6.53329C11.9991 6.52666 12.0296 6.50678 12.0533 6.48358C12.1972 6.39079 12.2684 6.21515 12.2972 5.95667C12.3107 5.7744 12.2972 5.64184 12.248 5.54077C12.2023 5.44798 12.1329 5.38833 12.0499 5.35685C11.972 5.32371 11.8771 5.30548 11.7552 5.29222L11.5096 5.274Z" fill="#5A5A5C"/>
<path d="M14.2964 5.4862L13.4496 5.41495L13.4005 5.8673L14.1914 5.93026C14.249 5.93689 14.2914 5.95015 14.3269 5.97832C14.3456 6.00648 14.3591 6.04459 14.354 6.0827C14.3489 6.12081 14.3371 6.15561 14.3049 6.18047C14.2812 6.20366 14.2338 6.21526 14.1796 6.21029L13.3886 6.14567L13.3463 6.66927L14.2338 6.7372C14.2863 6.74549 14.3371 6.75875 14.354 6.79023C14.3896 6.82171 14.3913 6.85651 14.3896 6.90621C14.3896 6.94598 14.3744 6.98243 14.3371 7.00895C14.3049 7.0338 14.2626 7.03877 14.1982 7.03546L13.1685 6.95427C13.0889 6.94433 13.033 6.92444 12.9889 6.88302C12.9618 6.84656 12.9449 6.7836 12.9534 6.70407L13.0753 5.32879C13.0787 5.27411 13.0906 5.22937 13.1024 5.19789C13.1295 5.16475 13.1464 5.14321 13.1956 5.12664C13.2277 5.1167 13.2684 5.11173 13.3226 5.1167L14.3303 5.19789C14.3913 5.20452 14.4353 5.21943 14.454 5.24925C14.4895 5.27908 14.4946 5.31056 14.4946 5.35696C14.4946 5.40004 14.4743 5.43318 14.4421 5.45803C14.4031 5.48288 14.3608 5.48454 14.2981 5.48288" fill="#5A5A5C"/>
<path d="M15.1002 5.47774L15.422 6.73868L15.9487 5.53739C15.9758 5.47111 15.9995 5.42968 16.0063 5.40483C16.0215 5.37832 16.0469 5.35843 16.0672 5.33689C16.1045 5.32032 16.1367 5.31038 16.1756 5.3137C16.2078 5.31867 16.2434 5.33192 16.262 5.34849C16.2959 5.36506 16.3128 5.3866 16.323 5.41311C16.3399 5.44128 16.3501 5.46779 16.345 5.49596C16.3416 5.51419 16.3365 5.53739 16.3264 5.55727C16.3196 5.57881 16.3128 5.59704 16.3128 5.61361C16.301 5.63846 16.2891 5.65834 16.2739 5.67823L15.7268 6.8381C15.6997 6.8845 15.6879 6.92923 15.6642 6.96569C15.6371 7.01208 15.6252 7.04025 15.5947 7.07008C15.5795 7.10156 15.5388 7.12476 15.5066 7.13967C15.4745 7.16287 15.4287 7.16287 15.3762 7.16287C15.3254 7.15955 15.2746 7.14132 15.2475 7.11978C15.2204 7.09824 15.1831 7.07008 15.1679 7.03694C15.151 7.00545 15.1273 6.96403 15.1171 6.92426C15.112 6.8845 15.0968 6.83479 15.0781 6.78839L14.7394 5.56224C14.7309 5.5407 14.7225 5.51916 14.7123 5.49928C14.7055 5.47939 14.7021 5.45619 14.7021 5.433V5.36506C14.7021 5.32695 14.7225 5.28553 14.7547 5.25736C14.8072 5.22588 14.8461 5.20599 14.902 5.21096C14.9613 5.21759 15.0138 5.23913 15.0256 5.28221C15.0578 5.32529 15.0714 5.38495 15.1002 5.47608" fill="#5A5A5C"/>
<path d="M17.8528 5.76769L16.9891 5.70141L16.9552 6.15045L17.7461 6.21673C17.8054 6.22335 17.846 6.23495 17.8681 6.26478C17.8986 6.29295 17.9121 6.32443 17.9087 6.36917C17.9053 6.40728 17.8799 6.44539 17.8579 6.46693C17.8173 6.49178 17.7766 6.50338 17.7139 6.49841L16.9315 6.43213L16.8824 6.95739L17.7698 7.02698C17.8291 7.03195 17.8731 7.04686 17.9104 7.07835C17.9341 7.10983 17.9477 7.14297 17.9426 7.19102C17.9358 7.23576 17.924 7.26724 17.885 7.29209C17.8596 7.31695 17.8189 7.32358 17.7546 7.31861L16.7231 7.24073C16.6317 7.2341 16.5707 7.2109 16.5436 7.16617C16.5165 7.13137 16.4996 7.06841 16.5081 6.98887L16.6232 5.61359C16.6232 5.56223 16.6317 5.51418 16.6588 5.48601C16.6757 5.45287 16.7028 5.42967 16.7316 5.4131C16.779 5.40482 16.8214 5.39984 16.8756 5.40482L17.8681 5.48601C17.9324 5.48601 17.9714 5.50589 18.0103 5.53572C18.0256 5.56223 18.0408 5.59537 18.0374 5.63845C18.034 5.68484 18.0273 5.71467 17.9849 5.73952C17.9612 5.76603 17.9172 5.771 17.8528 5.76603" fill="#5A5A5C"/>
<path d="M18.7469 5.74634L18.6351 7.08682L19.3989 7.14316C19.4667 7.14978 19.509 7.1647 19.5327 7.19949C19.5734 7.23429 19.5869 7.26577 19.5869 7.31714C19.5819 7.36188 19.5548 7.39336 19.526 7.41821C19.4819 7.44472 19.4311 7.45467 19.3786 7.44804L18.4539 7.37513C18.3794 7.36685 18.3184 7.34365 18.2845 7.31051C18.2456 7.26743 18.2354 7.21275 18.2405 7.13321L18.3607 5.71486C18.3709 5.63864 18.3878 5.58727 18.4302 5.55247C18.464 5.51602 18.5081 5.50442 18.5673 5.50939C18.6249 5.51105 18.6673 5.5359 18.6995 5.57401C18.7384 5.61378 18.7537 5.67012 18.7452 5.74468" fill="#5A5A5C"/>
<path d="M20.6689 5.67494C20.8603 5.68985 21.0263 5.74122 21.1533 5.83235C21.2939 5.91852 21.3888 6.03947 21.4497 6.18363C21.5056 6.32944 21.5226 6.50177 21.5056 6.69563C21.5056 6.83316 21.465 6.96074 21.4142 7.07673C21.3667 7.18941 21.2973 7.28551 21.216 7.3667C21.1364 7.44292 21.0348 7.49926 20.9128 7.53737C20.7892 7.56885 20.6639 7.58542 20.5199 7.56885C20.3624 7.55891 20.2405 7.52245 20.1236 7.46777C20.0101 7.41641 19.922 7.34185 19.8441 7.25071C19.7832 7.16289 19.7357 7.05519 19.6951 6.93423C19.6748 6.80996 19.6612 6.68072 19.6765 6.5465C19.6866 6.40069 19.7171 6.27311 19.7679 6.16209C19.8204 6.04444 19.8916 5.95 19.9729 5.87378C20.0508 5.79756 20.1524 5.74122 20.2692 5.7114C20.3895 5.67329 20.5182 5.66334 20.6673 5.67329M21.1279 6.65752C21.1415 6.52662 21.1279 6.40566 21.0873 6.30293C21.0466 6.20186 20.9874 6.12067 20.9179 6.0693C20.8298 6.01296 20.7401 5.97651 20.6334 5.96822C20.5673 5.96491 20.4911 5.96822 20.42 5.99308C20.359 6.01959 20.3014 6.05107 20.2523 6.10244C20.2015 6.15049 20.1507 6.2234 20.1168 6.29796C20.0897 6.37749 20.0609 6.4736 20.0508 6.57799C20.0491 6.67906 20.0491 6.77682 20.0745 6.85801C20.0982 6.94749 20.127 7.01708 20.1659 7.0817C20.2083 7.13804 20.2642 7.18941 20.3234 7.21592C20.3895 7.2474 20.4623 7.26563 20.5284 7.27557C20.6249 7.28551 20.7265 7.26397 20.8095 7.22586C20.8908 7.18775 20.967 7.11318 21.0246 7.02039C21.0822 6.92761 21.111 6.80665 21.1279 6.65752Z" fill="#5A5A5C"/>
<path d="M22.5462 6.98729L22.1956 6.95912L22.1567 7.47444C22.1465 7.549 22.1313 7.60368 22.0838 7.6451C22.0483 7.67493 22.0025 7.69647 21.9483 7.68984C21.8874 7.68321 21.8467 7.66333 21.8196 7.62356C21.779 7.57883 21.7705 7.52249 21.7705 7.44793L21.8925 6.03619C21.9026 5.95169 21.9229 5.8937 21.9737 5.86718C22.011 5.83405 22.0771 5.81913 22.1533 5.82576L22.6478 5.86884C22.7884 5.87381 22.9002 5.8937 22.9679 5.92186C23.0492 5.95003 23.1153 5.99311 23.1678 6.04614C23.2186 6.0975 23.2542 6.15881 23.2762 6.2284C23.2965 6.30131 23.3101 6.38084 23.2982 6.47363C23.2796 6.6559 23.2169 6.79508 23.0848 6.88456C22.9645 6.96575 22.7816 7.00552 22.5496 6.98563M22.531 6.13561L22.2786 6.11739L22.2312 6.67744L22.4869 6.69898C22.5699 6.70726 22.6546 6.70395 22.7088 6.68572C22.7681 6.67578 22.8155 6.64927 22.8629 6.60619C22.89 6.56974 22.9171 6.51671 22.9171 6.45044C22.9171 6.36924 22.907 6.29965 22.8629 6.24829C22.8138 6.18698 22.7088 6.14721 22.5327 6.13727" fill="#5A5A5C"/>
<path d="M24.1596 7.55394L23.9564 6.36259L23.8497 7.62685C23.848 7.69976 23.8327 7.75112 23.7938 7.78095C23.7548 7.8174 23.7159 7.82734 23.66 7.82734C23.6109 7.82569 23.5753 7.80249 23.5363 7.76604C23.5126 7.72627 23.4957 7.6749 23.5042 7.60034L23.6329 6.14884C23.6397 6.07262 23.6566 6.02291 23.7023 5.9964C23.7447 5.97155 23.8056 5.9616 23.8869 5.96657L24.0021 5.97155C24.0665 5.97817 24.1173 5.99309 24.1562 6.00303C24.1799 6.02125 24.2087 6.04611 24.2087 6.07593C24.2257 6.1157 24.2443 6.16872 24.2612 6.24329L24.4408 7.26729L24.7947 6.28471C24.8303 6.21346 24.8439 6.16375 24.8676 6.1273C24.8862 6.09747 24.9065 6.07593 24.9336 6.07096C24.9777 6.05771 25.0285 6.05439 25.0928 6.06434L25.2097 6.07428C25.291 6.07759 25.3486 6.09913 25.3875 6.12564C25.4197 6.15713 25.4451 6.21678 25.4366 6.29631L25.3096 7.74947C25.2995 7.8174 25.291 7.87042 25.2453 7.90356C25.2131 7.93007 25.1724 7.9483 25.1199 7.94333C25.0674 7.93836 25.0319 7.92013 24.9929 7.87705C24.9726 7.84391 24.9539 7.78758 24.9624 7.71964L25.0691 6.45206L24.6762 7.59702C24.6406 7.67325 24.6203 7.72295 24.6118 7.75609C24.5898 7.7942 24.5729 7.82403 24.5288 7.85054C24.4967 7.87539 24.4526 7.88699 24.3916 7.88037C24.3493 7.87539 24.3104 7.86711 24.2782 7.84723C24.2562 7.82403 24.2291 7.79917 24.2087 7.76935C24.2053 7.73787 24.1918 7.70141 24.1816 7.66827C24.1732 7.62851 24.163 7.59537 24.1579 7.55229" fill="#5A5A5C"/>
<path d="M27.0594 6.50347L26.1956 6.43553L26.1617 6.88457L26.9527 6.95085C27.0119 6.95582 27.0526 6.96907 27.0678 6.9989C27.1051 7.02541 27.117 7.06186 27.1136 7.10494C27.1102 7.14305 27.0865 7.17785 27.0661 7.20105C27.0255 7.2259 26.9815 7.23916 26.9239 7.23253L26.1329 7.1646L26.0923 7.69151L26.9764 7.75944C27.039 7.76607 27.0797 7.77767 27.117 7.81081C27.1356 7.84229 27.1542 7.87378 27.1491 7.92514C27.1441 7.96822 27.1186 8.00136 27.0932 8.02621C27.0661 8.05273 27.0153 8.0577 26.9577 8.05273L25.9246 7.97485C25.8349 7.96656 25.7773 7.94337 25.7519 7.90029C25.7163 7.86549 25.7061 7.80087 25.7129 7.72133L25.8213 6.34771C25.8213 6.29303 25.8365 6.24664 25.8636 6.21847C25.8704 6.18367 25.9094 6.16379 25.9365 6.14722C25.9754 6.13894 26.0296 6.13231 26.0804 6.13894L27.0746 6.21847C27.1373 6.22178 27.1779 6.24001 27.2152 6.26984C27.2355 6.298 27.2508 6.32949 27.2474 6.37422C27.2423 6.41731 27.2253 6.45044 27.1915 6.4753C27.1678 6.50015 27.1203 6.50512 27.0611 6.50015" fill="#5A5A5C"/>
<path d="M28.0674 6.49184L28.7127 7.62852L28.7974 6.5399C28.8075 6.47196 28.8346 6.41894 28.86 6.38083C28.8905 6.351 28.9413 6.33609 28.9905 6.34272C29.0447 6.34769 29.0938 6.36923 29.1141 6.40237C29.1497 6.44379 29.1514 6.49847 29.1497 6.56806L29.0345 8.00796C29.0159 8.17366 28.9413 8.24822 28.8042 8.23165C28.7754 8.23165 28.7381 8.22668 28.7195 8.21011C28.6839 8.20349 28.6704 8.18029 28.6416 8.15875C28.628 8.13555 28.6009 8.1107 28.5772 8.07921C28.5687 8.0527 28.545 8.02453 28.5281 7.99139L27.9048 6.863L27.8134 7.94169C27.8066 8.00796 27.7947 8.06099 27.7473 8.09744C27.7168 8.12892 27.6762 8.14384 27.6237 8.13721C27.5695 8.13224 27.5288 8.1107 27.4916 8.0759C27.4712 8.03282 27.4526 7.9798 27.4611 7.9102L27.583 6.49682C27.5898 6.43385 27.5932 6.38911 27.6101 6.35266C27.6338 6.32118 27.6575 6.29135 27.6965 6.27147C27.7456 6.24496 27.7846 6.24164 27.8235 6.24496C27.854 6.24496 27.8913 6.25159 27.9048 6.26815C27.937 6.2781 27.9539 6.29632 27.9675 6.31621C27.9912 6.33443 28.0081 6.35929 28.02 6.39243C28.042 6.42225 28.0589 6.45042 28.0725 6.48687" fill="#5A5A5C"/>
<path d="M30.7703 6.82489L30.3553 6.78844L30.2435 8.12395C30.2384 8.20017 30.2232 8.25816 30.1893 8.28799C30.1385 8.32444 30.0945 8.33604 30.0369 8.33438C29.981 8.33438 29.9387 8.30953 29.9133 8.26645C29.8777 8.22834 29.8675 8.16868 29.876 8.09246L29.9827 6.75695L29.5661 6.72713C29.5102 6.7205 29.4627 6.70559 29.4221 6.67245C29.4018 6.64097 29.3865 6.60286 29.3916 6.5548C29.3967 6.50841 29.4085 6.47693 29.4509 6.45042C29.4797 6.42556 29.5254 6.41231 29.5949 6.41893L30.8041 6.51504C30.8634 6.52167 30.9176 6.53824 30.943 6.56972C30.9667 6.60286 30.982 6.63765 30.9786 6.68239C30.9735 6.73044 30.965 6.76358 30.9176 6.79009C30.8905 6.81495 30.8414 6.8282 30.7719 6.82323" fill="#5A5A5C"/>
<path d="M32.972 6.98069L32.2183 6.91607L32.1793 7.38996L32.806 7.44132C32.867 7.44629 32.9042 7.45955 32.9415 7.48938C32.9601 7.51754 32.977 7.54737 32.972 7.59376C32.9652 7.63519 32.9449 7.66998 32.9195 7.69318C32.8924 7.71472 32.8382 7.72466 32.7873 7.71969L32.1641 7.67164L32.1099 8.27478C32.1099 8.35265 32.0777 8.40899 32.0472 8.43716C32.0066 8.47361 31.9558 8.48852 31.9016 8.48687C31.8524 8.4819 31.7982 8.4587 31.7661 8.41562C31.739 8.38082 31.7254 8.3162 31.7322 8.23998L31.8508 6.83322C31.8508 6.77854 31.8592 6.73546 31.8863 6.70398C31.9016 6.66918 31.927 6.6493 31.9591 6.63273C32.0049 6.62278 32.0472 6.61616 32.1031 6.62279L32.9957 6.69403C33.0516 6.70066 33.099 6.71557 33.1278 6.74209C33.1498 6.77191 33.1633 6.81002 33.1583 6.85145C33.1549 6.89121 33.1464 6.93098 33.1058 6.95252C33.082 6.97572 33.0363 6.99063 32.9737 6.98235" fill="#5A5A5C"/>
<path d="M34.2896 6.76201C34.4793 6.78189 34.6453 6.83492 34.7723 6.91777C34.9129 7.01056 35.0094 7.12654 35.0721 7.27236C35.1246 7.41982 35.1432 7.59381 35.1246 7.7827C35.1246 7.92851 35.0857 8.0561 35.0365 8.1638C34.9891 8.28145 34.9163 8.37423 34.8367 8.45543C34.7571 8.5333 34.6572 8.58798 34.5352 8.62444C34.4099 8.66255 34.2846 8.67083 34.1372 8.6642C33.9797 8.64929 33.8594 8.61284 33.7443 8.56313C33.6291 8.50679 33.5444 8.43389 33.4665 8.33944C33.4055 8.25328 33.3564 8.14557 33.3175 8.02627C33.2955 7.902 33.2819 7.77441 33.2955 7.63523C33.3056 7.49605 33.3378 7.36846 33.3903 7.24916C33.4394 7.1398 33.5122 7.03872 33.5918 6.96416C33.6731 6.88794 33.7731 6.83492 33.8899 6.80178C34.0136 6.76367 34.1372 6.75538 34.2896 6.76367M34.7486 7.75122C34.7605 7.61866 34.7486 7.4977 34.708 7.39497C34.669 7.2939 34.6097 7.21602 34.542 7.15968C34.4556 7.10003 34.3625 7.06523 34.2575 7.06192C34.1897 7.05529 34.1135 7.06192 34.0424 7.08678C33.9814 7.10832 33.9272 7.14146 33.8747 7.19116C33.8256 7.24253 33.7731 7.31047 33.7392 7.39331C33.7121 7.47119 33.6833 7.56398 33.6748 7.66837C33.6698 7.77276 33.6698 7.8672 33.6969 7.95502C33.7206 8.03787 33.7477 8.11078 33.7866 8.17209C33.8307 8.23505 33.8849 8.27979 33.9475 8.31127C34.0153 8.3411 34.0864 8.36264 34.1541 8.36595C34.2507 8.37755 34.3472 8.36264 34.4336 8.31624C34.5132 8.27979 34.5911 8.2102 34.647 8.11243C34.7046 8.01964 34.7334 7.90034 34.7503 7.75287" fill="#5A5A5C"/>
<path d="M35.9548 7.98313L35.8176 7.97651L35.7702 8.56307C35.76 8.63929 35.7465 8.69563 35.6991 8.73374C35.6652 8.76688 35.6212 8.78179 35.5619 8.77351C35.4992 8.76853 35.4552 8.74534 35.4349 8.70723C35.3942 8.66415 35.3857 8.60947 35.3857 8.5349L35.5094 7.1182C35.5195 7.03867 35.5416 6.98564 35.5856 6.9525C35.6212 6.91605 35.6872 6.90942 35.76 6.90942L36.3748 6.96079C36.4731 6.96576 36.534 6.97902 36.5984 6.9873C36.6594 7.00221 36.7153 7.01713 36.7593 7.04364C36.8186 7.07346 36.866 7.11157 36.905 7.16294C36.9473 7.2143 36.9829 7.26401 36.9981 7.32532C37.0117 7.3916 37.0235 7.45125 37.0134 7.51919C36.9981 7.65671 36.9524 7.76276 36.8728 7.83898C36.7898 7.91354 36.6611 7.96159 36.4934 7.98148C36.5645 8.02622 36.6238 8.07758 36.6814 8.15546C36.7373 8.23002 36.7881 8.3079 36.8271 8.38412C36.8643 8.46531 36.8914 8.53656 36.9168 8.60615C36.9456 8.6658 36.9456 8.71551 36.9456 8.73871C36.9456 8.76191 36.9422 8.7851 36.9168 8.80664C36.8931 8.82819 36.8812 8.8431 36.8423 8.85801C36.8237 8.86795 36.7898 8.86961 36.7491 8.86795C36.7085 8.86795 36.6797 8.8547 36.6458 8.83316C36.6238 8.81162 36.5933 8.7851 36.5815 8.75031C36.5645 8.71551 36.5307 8.67077 36.507 8.61278L36.3731 8.35264C36.3223 8.25653 36.2817 8.17866 36.2444 8.12895C36.2089 8.07758 36.1648 8.0461 36.1157 8.02622C36.0751 8.00302 36.0192 7.98811 35.9582 7.98148M36.236 7.23253L35.8921 7.20271L35.8515 7.70477L36.1818 7.73293C36.2698 7.74288 36.3596 7.74288 36.424 7.72796C36.4765 7.72133 36.5307 7.69814 36.5696 7.665C36.6001 7.62523 36.6272 7.57718 36.634 7.51421C36.634 7.46285 36.6289 7.41811 36.5984 7.37337C36.5815 7.33526 36.5408 7.30212 36.4951 7.28058C36.4578 7.25904 36.3748 7.24082 36.236 7.23253Z" fill="#5A5A5C"/>
</g>
</g>
</g>
</g>
<defs>
<clipPath id="clip0_611_802">
<rect width="62" height="35" fill="white"/>
</clipPath>
</defs>
</svg>
